<svg width="491" height="474" viewBox="0 0 491 474" fill="none" xmlns="http://www.w3.org/2000/svg">
<rect width="491" height="474" rx="237" fill="white"/>
<path d="M243.138 449.627C309.024 449.627 362.435 396.387 362.435 330.713C362.435 265.039 309.024 211.8 243.138 211.8C177.252 211.8 123.841 265.039 123.841 330.713C123.841 396.387 177.252 449.627 243.138 449.627Z" fill="white"/>
<path d="M277.077 132.433C291.464 132.433 303.126 120.756 303.126 106.353C303.126 91.9496 291.464 80.2733 277.077 80.2733C262.69 80.2733 251.027 91.9496 251.027 106.353C251.027 120.756 262.69 132.433 277.077 132.433Z" fill="white"/>
<path d="M242.392 212.698V212.94L245.762 213.663L245.523 214.386L248.413 215.109L247.448 214.87C247.57 216.596 249.077 217.06 250.381 217.919C253.366 219.885 257.089 221.463 260.698 221.621L259.495 217.521C260.58 217.262 261.841 217.434 261.904 216.075L264.313 215.833C262.891 214.553 260.363 214.375 258.531 214.043C253.236 213.086 247.766 212.698 242.392 212.698ZM233.235 213.263C231.518 213.149 229.724 213.347 228.42 213.525C227.492 213.651 226.168 213.411 225.528 214.144L224.325 213.905V214.144H225.286V214.386L224.325 214.628V214.87H225.286C224.113 216.01 223.138 215.783 221.674 215.593V215.351L223.841 214.386V214.144L217.821 216.317V216.556H217.096L217.821 216.317L216.373 216.075V216.317L212.039 217.282V216.798L216.373 216.075L217.579 215.351V215.109C214.674 215.485 211.025 216.155 208.425 217.521V217.763L209.389 217.521V217.763L206.738 218.244V218.005H207.219V217.763C204.505 218.164 201.829 219.45 199.27 220.405C193.111 222.704 187.089 225.468 181.445 228.858C178.728 230.491 175.074 232.244 173.496 235.128L172.771 234.886C172.37 237.056 169.325 237.908 169.882 240.193C168.328 241.007 167.466 242.573 166.264 243.809C162.119 248.071 159.929 251.577 158.56 257.316C161.035 258.157 159.759 260.136 159.841 262.139C159.896 263.474 160.831 264.247 159.283 265.032L160.88 266.858L161.006 268.823L162.414 270.82C163.261 270.347 163.551 269.376 162.414 269.132L162.172 262.862V262.62L161.45 262.862C161.243 261.382 161.625 259.92 163.378 260.209L162.655 263.104L165.064 265.516L164.581 266.72C165.864 267.743 167.548 269.363 167.815 271.062C168.016 272.338 166.612 273.716 167.781 274.727C170.077 276.732 176.476 278.455 179.517 278.225C180.851 278.124 182.006 276.976 183.373 277.196C185.062 277.467 186.117 279.096 187.707 279.587C190.185 280.354 192.906 280.145 195.417 280.227L194.933 280.95L197.659 282.97L198.22 284.601L199.512 284.569H199.754H199.993L201.921 285.773L201.679 286.497H202.885V286.981C204.504 286.681 206.006 287.017 207.222 288.185L208.667 287.704L207.944 286.497L212.52 286.015L213.729 289.15L214.206 292.769V293.008C212.877 294.155 210.869 295.258 210.592 297.108L208.183 297.834C208.166 299.043 207.378 299.961 206.497 300.727V302.657L207.702 303.861L208.905 302.896L205.93 306.037L206.016 308.927C211.096 310.599 213.616 317.861 216.322 321.918C218.859 325.722 225.326 324.685 227.971 328.507C229.704 331.01 228.276 334.078 228.138 336.661C227.909 340.953 226.762 344.996 226.457 349.203C226.373 350.363 227.045 351.402 226.869 352.579C226.449 355.388 224.664 357.764 224.325 360.537L223.361 360.779C223.601 361.905 224.306 363.227 224.244 364.375C224.149 366.165 223.165 366.877 224.083 368.737C223.053 368.958 223.294 370.467 223.119 371.391C224.758 371.26 224.595 369.826 224.325 368.495L225.528 368.014L226.25 369.221L224.564 375.249L224.806 373.56L224.083 373.802L224.564 373.079L223.119 373.321C223.413 375.239 222.426 376.112 221.433 377.66L221.674 377.902L224.083 377.66V379.832L223.361 380.072L223.119 379.348C221.478 380.207 222.316 381.871 222.877 383.209L224.083 383.448L225.047 382.244V382.483C224.175 383.179 223.626 384.578 224.083 385.621L223.361 386.344L224.564 385.379L225.528 385.621L225.047 386.825L226.25 386.583L225.286 387.067C225.631 387.962 226.037 388.104 226.973 388.032V388.271L226.492 388.513L227.456 389.479L226.734 389.237L226.492 389.96L227.937 390.202V390.683L228.901 390.444L228.659 389.96V389.721H227.698L228.659 389.479V389.721L229.623 389.96L229.143 390.925H230.345V391.167L229.623 391.648L232.754 391.89C233.143 392.989 234.624 392.999 235.646 393.337L233.96 392.132V391.89L237.091 392.613V391.89H239.983L239.742 391.167C237.738 391.287 236.302 389.679 234.682 388.756L234.924 388.032L232.996 387.067L234.682 387.309C234.321 386.542 233.515 385.787 233.514 384.898C233.513 384.114 235.773 381.49 236.403 380.875C237.126 380.172 238.437 379.771 238.605 378.637C238.826 377.145 235.749 377.671 235.79 375.963C235.825 374.538 237.667 374.03 238.778 374.044C239.34 372.603 239.555 371.254 240.945 370.425L239.983 369.702L242.392 369.944C242.072 367.999 239.4 369.41 239.742 366.325C242.568 367.246 246.22 366.977 244.559 362.949C247.022 363.536 255.176 363.079 255.014 359.14C254.93 357.087 252.526 356.189 252.027 354.507C254.15 355.799 258.246 356.932 260.436 355.316C262.018 354.151 263.101 351.966 264.793 351.133V350.891H264.071L266.963 348.237L265.035 350.407V350.649C266.973 349.989 267.58 348.179 268.912 346.8C269.532 346.157 270.439 345.676 270.814 344.835C271.345 343.643 270.892 342.244 271.395 341.014C272.178 339.104 275.606 337.35 277.562 337.868C278.805 335.708 281.146 336.807 283.079 336.341C284.042 336.109 284.769 335.266 285.753 334.972L288.3 330.368L289.923 325.084L290.329 319.538C291.899 320.14 292.371 318.381 293.27 317.377C295.157 315.267 297.614 314.083 297.273 310.857C296.897 307.307 295.146 308.036 292.737 306.524C291.096 305.493 289.809 304.041 287.92 303.406C286.744 303.011 285.507 303.255 284.305 303C282.387 302.593 280.89 301.916 279.007 302.896C279.737 301.096 277.972 300.715 276.598 300.197C273.691 299.099 272.245 299.062 270.094 301.45L269.13 300.969V300.727C270.566 300.553 271.369 300.077 271.539 298.557L267.924 297.592V297.35H268.408V297.108L267.686 296.869C269.293 295.883 266.358 292.92 265.757 291.32L265.035 291.562C262.923 288.211 258.352 289.242 255.158 288.657C253.858 288.42 252.893 287.552 251.544 287.462C251.155 284.993 248.024 284.569 246.004 285.05L246.726 284.327L242.873 281.915H244.079V281.673L238.055 282.544L232.786 282.011L228.901 280.708L229.143 279.985H228.178L228.42 280.95L225.77 281.673C225.953 282.97 226.668 283.783 225.286 284.569L225.047 280.708L226.492 280.227V279.743C225.049 279.395 223.927 280.445 222.639 281.002C220.543 281.908 217.743 281.339 217.579 284.327C216.311 284.519 215.38 285.194 215.171 286.497H214.929C212.853 282.973 207.782 285.126 204.81 285.773C204.105 284.547 202.362 283.907 202.151 282.397C201.93 280.811 203.982 278.338 203.118 276.963C201.579 274.511 195.569 276.509 193.25 276.608C194.304 275.331 194.857 274.192 194.933 272.508L195.659 272.992C196.221 271.879 196.528 270.26 197.826 269.858V268.169C196.081 268.585 194.233 268.533 192.53 269.195C190.837 269.853 190.644 272.187 188.913 273.015C184.298 275.224 177.898 272.896 180.349 266.962C180.947 265.513 181.541 264.027 182.153 262.62C183.149 260.333 185.978 260.57 186.985 258.52H196.381L195.659 258.039C196.054 257.38 196.303 257.59 195.659 257.074C198.492 256.489 200.619 256.779 203.366 256.964C204.19 257.018 204.954 256.384 205.748 256.8C207.128 257.522 207.566 263.612 210.264 262.47C213.284 261.192 209.4 256.989 210.105 255.146C211.141 252.441 216.668 250.293 219.266 249.597L219.024 248.874L220.71 248.151H219.746V247.909L220.469 247.67L220.23 244.051H220.469L220.952 245.258L220.469 246.462C221.512 245.955 222.322 245.238 221.916 244.051C223.262 244.104 224.055 243.431 224.325 242.121L226.973 241.881V241.639H225.77V241.397L230.107 240.916C228.962 237.653 236.35 236.42 238.778 236.093V236.332L236.611 238.021C238.09 238.484 243.819 236.951 244.317 235.37H244.559C245.052 235.915 245.4 235.697 245.765 235.128L245.04 234.405L243.353 235.851H241.67L242.631 235.128V234.886L239.5 234.405L241.428 235.851C240.078 235.364 238.804 235.094 238.778 233.44H237.091V233.198L239.5 232.716V232.232C237.034 231.403 233.931 232.335 231.793 233.682V233.921L230.829 234.163L231.793 233.682C236.35 228.744 244.705 231.816 250.341 228.858C249.927 227.29 248.866 227.13 247.448 226.686L247.69 226.205L242.392 224.516C242.465 223.277 240.119 220.893 238.778 221.22C237.795 221.46 237.207 222.458 236.127 222.592C234.635 222.777 233.812 221.763 234.202 220.417C231.804 220.577 229.029 218.483 226.564 219.63C225.491 220.13 225.195 221.866 224.083 222.586V223.07C226.928 225.034 222.422 226.455 220.71 226.686L221.191 229.34C219.108 230.4 218.029 230.077 217.654 228.858H218.543L217.551 228.461C217.461 227.911 217.472 227.234 217.579 226.444L207.944 225.482L208.425 224.032L207.222 224.274C209.964 220.469 216.77 219.284 220.952 217.763V218.005L218.782 218.97V219.209L224.806 218.728V218.486L222.155 217.763H221.916L222.877 217.521H223.119H223.361L226.492 215.593H227.456V214.87L230.829 214.628L229.623 215.833V216.075L232.996 215.593V216.075L227.214 218.244L230.829 217.924L237.572 219.693L235.888 218.728V218.486C237.144 218.655 238.534 219.387 239.258 218.005L236.849 217.04V216.556L237.091 216.317C238.97 216.957 240.036 217.571 241.67 216.075L236.849 215.109V214.87H237.572C236.587 213.803 234.951 213.376 233.235 213.263ZM231.31 214.87L231.551 215.351H231.068L231.31 214.87ZM222.639 216.075V216.317L221.674 216.556L222.639 216.075ZM270.094 217.763C271.401 219.32 276.096 220.597 278.043 220.175V219.693C275.62 218.327 272.776 218.164 270.094 217.763ZM218.782 217.844L218.863 217.924C218.744 217.964 218.6 217.844 218.782 217.844ZM226.492 218.728V219.209L226.973 218.728H226.492ZM222.639 219.693L220.71 219.933V220.175L222.639 219.693ZM294.182 226.686L298.038 229.821H297.074L297.796 230.305V230.544H297.074V230.786C298.678 231.721 300.172 234.04 302.133 233.198V232.716L299.964 230.786L306.085 235.698L306.534 235.756C306.504 235.717 306.474 235.677 306.445 235.638C306.411 235.592 306.376 235.545 306.344 235.5C306.326 235.474 306.311 235.448 306.295 235.422L306.292 235.419C306.246 235.385 306.203 235.349 306.16 235.312C306.111 235.274 306.064 235.234 306.019 235.191C305.977 235.153 305.937 235.114 305.898 235.073C305.879 235.054 305.864 235.033 305.846 235.013H305.843C305.781 235.012 305.704 234.985 305.624 234.923C305.603 234.907 305.582 234.887 305.561 234.869C305.539 234.849 305.517 234.83 305.495 234.811C305.476 234.795 305.456 234.781 305.437 234.765C305.42 234.75 305.403 234.734 305.385 234.719C305.371 234.706 305.357 234.693 305.342 234.681C305.319 234.662 305.295 234.643 305.273 234.621C305.248 234.596 305.225 234.567 305.201 234.54C305.168 234.503 305.134 234.467 305.101 234.431C305.069 234.396 305.04 234.359 305.008 234.324C304.973 234.284 304.936 234.245 304.899 234.206C304.865 234.171 304.827 234.137 304.793 234.102C304.76 234.069 304.726 234.034 304.692 234.001C304.662 233.973 304.633 233.947 304.603 233.921C304.575 233.897 304.547 233.873 304.519 233.849C304.502 233.834 304.487 233.818 304.47 233.803C304.423 233.788 304.372 233.76 304.321 233.71C304.297 233.687 304.278 233.662 304.255 233.639C304.222 233.606 304.189 233.571 304.157 233.538C304.115 233.494 304.075 233.45 304.036 233.405C303.998 233.361 303.962 233.317 303.924 233.273C303.897 233.241 303.87 233.209 303.843 233.177C303.827 233.158 303.811 233.138 303.794 233.12C303.77 233.094 303.745 233.071 303.719 233.048C303.677 233.01 303.633 232.972 303.59 232.935C303.552 232.903 303.513 232.871 303.475 232.84C303.438 232.811 303.4 232.784 303.362 232.757C303.321 232.727 303.279 232.7 303.236 232.673C303.187 232.644 303.136 232.612 303.089 232.581C303.053 232.556 303.02 232.532 302.985 232.506C302.966 232.491 302.947 232.473 302.928 232.457C302.907 232.439 302.916 232.423 302.902 232.405C302.883 232.404 302.858 232.389 302.824 232.356C302.811 232.344 302.799 232.332 302.787 232.319C302.771 232.302 302.756 232.284 302.741 232.267C302.731 232.253 302.726 232.248 302.715 232.238C302.693 232.217 302.671 232.198 302.649 232.177C302.622 232.154 302.596 232.13 302.571 232.105C302.542 232.078 302.511 232.049 302.482 232.022C302.451 231.993 302.422 231.963 302.39 231.936C302.368 231.917 302.346 231.899 302.324 231.881C302.3 231.863 302.278 231.844 302.254 231.826C302.232 231.808 302.211 231.789 302.188 231.771C302.163 231.752 302.138 231.734 302.113 231.714C302.094 231.697 302.072 231.68 302.053 231.662C302.034 231.646 302.016 231.63 301.998 231.613C301.979 231.595 301.959 231.577 301.941 231.558C301.912 231.53 301.886 231.503 301.857 231.475C301.834 231.449 301.809 231.425 301.785 231.4C301.766 231.379 301.748 231.356 301.728 231.336C301.712 231.321 301.695 231.308 301.679 231.293C301.667 231.283 301.653 231.272 301.641 231.261C301.623 231.247 301.603 231.234 301.584 231.221C301.563 231.203 301.542 231.184 301.521 231.166C301.488 231.139 301.458 231.111 301.426 231.083C301.393 231.054 301.359 231.024 301.328 230.993C301.297 230.965 301.266 230.936 301.236 230.907C301.214 230.886 301.192 230.867 301.17 230.847C301.156 230.833 301.143 230.819 301.129 230.809C301.118 230.8 301.116 230.797 301.106 230.789C301.105 230.786 301.103 230.783 301.1 230.78C301.099 230.779 301.096 230.782 301.095 230.777L301.092 230.774C301.071 230.759 301.052 230.744 301.034 230.725C301.019 230.709 301.004 230.694 300.988 230.679C300.963 230.654 300.936 230.632 300.91 230.607C300.863 230.566 300.814 230.525 300.766 230.483V230.48C300.721 230.441 300.691 230.401 300.671 230.362C300.517 230.26 300.358 230.165 300.208 230.057C300.122 229.993 300.038 229.928 299.955 229.861C299.803 229.767 299.632 229.686 299.483 229.59C297.824 228.526 296.165 227.086 294.182 226.686ZM245.523 226.928V227.17L244.559 227.409L245.523 226.928ZM250.821 229.34C248.673 229.535 247.221 231.782 246.487 233.682H252.269V233.921L251.305 234.163V234.405L253.955 233.682L253.714 234.405C254.706 234.75 255.304 234.784 255.639 233.682H254.194L254.917 232.474L253.955 232.716L253.714 232.474L253.955 231.751L249.618 231.27L250.821 229.34ZM239.5 231.028C240.242 232.009 241.726 231.984 242.873 231.993L239.5 231.028ZM210.353 233.682L210.592 234.644L211.556 234.405L211.798 236.093L206.98 235.851L207.461 235.609V235.37L202.163 236.574C203.953 234.778 207.879 233.683 210.353 233.682ZM239.742 236.174L239.822 236.252C239.703 236.291 239.558 236.174 239.742 236.174ZM214.687 236.332V236.574H214.206V236.816L215.171 237.058C215.889 236.061 216.694 236.442 217.579 237.058C216.968 238.107 216.249 237.687 215.412 237.058L215.651 238.021L213.484 239.951L213.242 238.744L211.556 239.228V238.986C212.699 238.034 212.611 237.484 211.317 236.816L214.687 236.332ZM210.834 236.574C210.292 237.61 209.282 237.749 208.508 238.559C207.132 240 207.582 241.54 205.294 242.121C205.119 240.183 206.365 239.18 207.461 237.781L206.98 238.021C207.928 236.945 209.457 236.76 210.834 236.574ZM308.637 237.781L309.593 238.441C309.578 238.423 309.561 238.407 309.544 238.389C309.514 238.358 309.485 238.327 309.455 238.294C309.453 238.291 309.452 238.288 309.449 238.285C309.413 238.26 309.378 238.235 309.342 238.21C309.248 238.145 309.158 238.072 309.069 238C309.02 237.961 309.042 237.978 309.003 237.948C308.971 237.924 308.944 237.898 308.916 237.873L308.637 237.781ZM221.384 238.263C221.857 238.247 222.293 238.252 222.639 238.263C221.702 239.676 219.115 239.276 217.579 239.47C218.216 238.557 219.965 238.31 221.384 238.263ZM171.326 238.505L171.088 239.709H170.846L171.326 238.505ZM218.302 239.951V240.193C216.383 240.717 213.458 242.515 211.556 241.397L218.302 239.951ZM212.762 240.513C212.948 240.513 212.8 240.633 212.681 240.594L212.762 240.513ZM311.046 243.328C312.153 245.719 314.81 249.467 316.905 251.124C318.067 252.043 319.66 252.499 320.923 253.458H321.165L323.291 253.219L323.28 253.207C323.274 253.214 323.261 253.211 323.254 253.195C323.246 253.179 323.239 253.165 323.231 253.149L323.222 253.14C323.216 253.133 323.209 253.127 323.205 253.12C323.197 253.11 323.203 253.108 323.21 253.103C323.159 253.035 323.109 252.967 323.058 252.898C322.964 252.771 322.871 252.644 322.779 252.515C322.749 252.473 322.752 252.44 322.747 252.406C322.72 252.406 322.708 252.428 322.727 252.489C322.727 252.491 322.73 252.495 322.727 252.495C322.725 252.495 322.728 252.491 322.724 252.489C322.717 252.474 322.709 252.458 322.701 252.443C322.691 252.425 322.678 252.411 322.667 252.394C322.644 252.363 322.622 252.33 322.6 252.299C322.584 252.275 322.567 252.252 322.549 252.23C322.531 252.209 322.513 252.188 322.497 252.167C322.484 252.149 322.47 252.13 322.456 252.112C322.446 252.097 322.435 252.083 322.425 252.069C322.413 252.053 322.401 252.039 322.39 252.023C322.383 252.011 322.373 251.998 322.364 251.988C322.35 251.97 322.339 251.949 322.324 251.93C322.311 251.913 322.294 251.896 322.281 251.878C322.268 251.863 322.258 251.846 322.246 251.829C322.232 251.812 322.218 251.793 322.203 251.775C322.185 251.75 322.167 251.727 322.149 251.703C322.132 251.68 322.114 251.654 322.097 251.631C322.08 251.61 322.066 251.589 322.051 251.567C322.035 251.546 322.02 251.525 322.005 251.504C321.982 251.475 321.96 251.444 321.939 251.415C321.923 251.393 321.908 251.373 321.893 251.351C321.884 251.34 321.876 251.324 321.867 251.311C321.853 251.291 321.862 251.278 321.855 251.259L321.852 251.256C321.84 251.24 321.828 251.224 321.818 251.207C321.79 251.163 321.765 251.118 321.743 251.072C321.721 251.025 321.702 250.977 321.682 250.931C321.669 250.899 321.66 250.868 321.648 250.836C321.637 250.812 321.628 250.788 321.619 250.764C321.612 250.744 321.603 250.723 321.596 250.703C321.587 250.68 321.575 250.657 321.564 250.634C321.551 250.606 321.539 250.581 321.524 250.553C321.509 250.523 321.494 250.491 321.478 250.461C321.471 250.448 321.465 250.435 321.458 250.421C321.457 250.419 321.459 250.416 321.455 250.415C321.442 250.397 321.428 250.38 321.415 250.363C321.29 250.293 321.165 250.177 321.052 250.006C321.011 249.943 320.972 249.876 320.931 249.813C320.881 249.73 320.83 249.65 320.779 249.568C320.736 249.505 320.699 249.44 320.661 249.375C320.63 249.32 320.594 249.269 320.56 249.216C320.517 249.157 320.48 249.092 320.439 249.032C320.378 248.943 320.317 248.852 320.258 248.761C320.202 248.678 320.156 248.592 320.102 248.508C320.048 248.421 319.99 248.333 319.935 248.245C319.881 248.163 319.838 248.076 319.783 247.995C319.73 247.915 319.679 247.834 319.625 247.756C319.567 247.663 319.502 247.576 319.435 247.491C319.347 247.379 319.26 247.265 319.17 247.156C319.057 247.021 318.947 246.885 318.83 246.753C318.709 246.614 318.585 246.478 318.465 246.338C318.369 246.228 318.276 246.116 318.18 246.007C318.08 245.895 317.982 245.78 317.884 245.667C317.785 245.554 317.683 245.445 317.581 245.335C317.492 245.243 317.405 245.149 317.317 245.056C317.244 244.979 317.167 244.906 317.092 244.831C316.998 244.735 316.9 244.641 316.801 244.549C316.791 244.54 316.783 244.529 316.773 244.52L311.046 243.328ZM321.165 253.697L321.645 255.87C318.911 257.405 322.053 259.235 321.487 261.174C321.194 262.179 320.07 262.342 319.611 263.176C318.82 264.612 317.954 268.968 318.238 270.578C318.574 272.488 320.706 274.032 321.084 276.127C321.567 278.805 320.875 281.359 322.575 283.771C323.786 285.49 325.919 286.812 327.315 288.447C327.437 288.59 327.558 288.76 327.68 288.92C327.683 288.903 327.686 288.887 327.689 288.871C327.705 288.758 327.731 288.646 327.758 288.536C327.775 288.468 327.794 288.401 327.818 288.335C327.834 288.295 327.851 288.256 327.867 288.217C327.883 288.18 327.902 288.144 327.919 288.107C327.934 288.071 327.952 288.037 327.971 288.003C327.978 287.993 327.986 287.979 327.988 287.972V287.969C327.994 287.944 328.004 287.918 328.011 287.894C328.026 287.84 328.043 287.788 328.06 287.735C328.072 287.694 328.084 287.653 328.098 287.611C328.112 287.562 328.126 287.513 328.144 287.465C328.159 287.419 328.174 287.375 328.189 287.329C328.203 287.292 328.214 287.254 328.224 287.217C328.239 287.173 328.251 287.128 328.264 287.084C328.279 287.037 328.29 286.991 328.302 286.943C328.318 286.886 328.334 286.828 328.348 286.77C328.361 286.713 328.377 286.657 328.394 286.6C328.399 286.57 328.415 286.541 328.422 286.511C328.434 286.479 328.439 286.446 328.448 286.413C328.461 286.359 328.474 286.305 328.488 286.252C328.503 286.197 328.518 286.142 328.532 286.087C328.54 286.046 328.55 286.008 328.558 285.966C328.563 285.928 328.575 285.889 328.583 285.851C328.592 285.814 328.605 285.775 328.618 285.739C328.624 285.718 328.634 285.7 328.638 285.678C328.65 285.642 328.661 285.605 328.673 285.569C328.689 285.529 328.703 285.488 328.716 285.448C328.731 285.41 328.746 285.372 328.756 285.333C328.768 285.291 328.779 285.25 328.793 285.209C328.801 285.181 328.82 285.153 328.828 285.125C328.835 285.101 328.844 285.075 328.851 285.05C328.863 285.018 328.871 284.988 328.88 284.955C328.886 284.927 328.895 284.897 328.903 284.869C328.907 284.834 328.913 284.8 328.917 284.765C328.918 284.762 328.917 284.759 328.917 284.756C328.925 284.703 328.933 284.65 328.943 284.598C328.951 284.556 328.963 284.515 328.975 284.474C328.982 284.442 328.99 284.411 328.998 284.379C329.007 284.336 329.019 284.291 329.032 284.249C329.037 284.237 329.038 284.226 329.041 284.215C329.07 284.096 329.122 284.027 329.182 283.981C329.19 283.958 329.196 283.933 329.202 283.909C329.168 283.818 329.155 283.7 329.174 283.558C329.193 283.41 329.214 283.263 329.237 283.117C329.256 283 329.275 282.884 329.298 282.768C329.312 282.693 329.329 282.617 329.349 282.543C329.364 282.49 329.381 282.438 329.398 282.385C329.417 282.33 329.433 282.273 329.45 282.218C329.477 282.133 329.506 282.048 329.537 281.964C329.56 281.9 329.58 281.836 329.603 281.771C329.624 281.706 329.65 281.641 329.672 281.575C329.693 281.512 329.714 281.451 329.735 281.388C329.75 281.342 329.765 281.296 329.778 281.25C329.795 281.188 329.814 281.127 329.833 281.065C329.851 281.001 329.875 280.937 329.893 280.872C329.912 280.815 329.926 280.755 329.942 280.697C329.961 280.629 329.982 280.562 330 280.495C330.021 280.42 330.04 280.346 330.058 280.27C330.071 280.219 330.081 280.167 330.092 280.115C330.095 280.059 330.099 280.004 330.104 279.948C330.111 279.88 330.119 279.811 330.127 279.743C330.134 279.696 330.142 279.648 330.153 279.602C330.16 279.559 330.168 279.518 330.176 279.475C330.19 279.392 330.201 279.307 330.219 279.225C330.25 279.08 330.288 278.936 330.322 278.792C330.344 278.699 330.366 278.606 330.389 278.513C330.4 278.427 330.412 278.342 330.423 278.256C330.443 278.092 330.465 277.927 330.489 277.764C330.503 277.678 330.513 277.593 330.527 277.507C330.54 277.42 330.551 277.331 330.561 277.242C330.576 277.125 330.594 277.007 330.613 276.891C330.626 276.798 330.646 276.708 330.665 276.617C330.677 276.549 330.693 276.482 330.72 276.418C330.743 276.364 330.776 276.316 330.806 276.266C330.825 276.235 330.841 276.203 330.858 276.171C330.882 276.122 330.907 276.073 330.93 276.024C330.955 275.967 330.984 275.921 331.019 275.885C331.031 275.822 331.041 275.758 331.053 275.695C331.07 275.61 331.088 275.528 331.099 275.442C331.105 275.402 331.113 275.363 331.12 275.323V275.321C331.029 275.224 330.967 275.062 330.979 274.836C330.985 274.739 330.989 274.643 330.993 274.545C331.002 274.399 331.01 274.25 331.016 274.102C331.018 273.992 331.025 273.883 331.031 273.773C331.033 273.691 331.041 273.61 331.048 273.528C331.053 273.481 331.059 273.434 331.066 273.387C331.071 273.369 331.073 273.354 331.074 273.335C331.076 273.275 331.077 273.214 331.08 273.154C331.083 273.094 331.096 273.035 331.098 272.975C331.099 272.895 331.113 272.814 331.115 272.733C331.116 272.566 331.118 272.399 331.118 272.232C331.118 272.148 331.118 272.063 331.118 271.978C331.113 271.954 331.106 271.93 331.103 271.906C331.096 271.854 331.091 271.801 331.086 271.748C331.081 271.704 331.075 271.659 331.068 271.615C331.058 271.565 331.05 271.514 331.043 271.463C331.035 271.421 331.028 271.38 331.02 271.339C331.012 271.306 331.009 271.273 331.002 271.241C330.995 271.203 330.986 271.163 330.979 271.126C330.97 271.07 330.968 271.014 330.956 270.958C330.946 270.903 330.938 270.847 330.93 270.791C330.926 270.744 330.92 270.697 330.913 270.65C330.907 270.602 330.898 270.556 330.887 270.506C330.877 270.459 330.867 270.413 330.861 270.365C330.855 270.322 330.841 270.28 330.833 270.238C330.821 270.184 330.811 270.129 330.801 270.074C330.792 270.03 330.784 269.986 330.769 269.944C330.769 269.943 330.77 269.94 330.769 269.938C330.723 269.912 330.698 269.854 330.671 269.742C330.651 269.649 330.633 269.556 330.614 269.463C330.594 269.359 330.575 269.256 330.553 269.152C330.54 269.088 330.527 269.023 330.516 268.959C330.512 268.942 330.504 268.926 330.499 268.91C330.49 268.88 330.485 268.849 330.473 268.821C330.461 268.781 330.448 268.741 330.441 268.7C330.429 268.644 330.418 268.589 330.407 268.533C330.395 268.47 330.381 268.406 330.375 268.342C330.369 268.278 330.362 268.213 330.358 268.149C330.356 268.088 330.346 268.029 330.34 267.968C330.333 267.905 330.322 267.843 330.315 267.781C330.303 267.698 330.292 267.615 330.277 267.533C330.259 267.433 330.242 267.333 330.222 267.233C330.209 267.161 330.195 267.086 330.179 267.014C330.178 267.004 330.173 266.995 330.17 266.985C330.147 267.018 330.137 267.076 330.144 267.173C330.14 267.152 330.133 267.132 330.127 267.112C330.115 267.058 330.102 267.002 330.09 266.948C330.064 266.833 330.039 266.718 330.015 266.602C329.997 266.526 329.983 266.45 329.966 266.375C329.965 266.373 329.967 266.37 329.966 266.369C329.962 266.36 329.954 266.349 329.949 266.34C329.924 266.29 329.9 266.241 329.88 266.19C329.861 266.143 329.841 266.094 329.825 266.046C329.808 265.99 329.793 265.936 329.782 265.879C329.762 265.784 329.738 265.688 329.716 265.594C329.687 265.475 329.655 265.357 329.624 265.239C329.599 265.148 329.578 265.054 329.552 264.963H329.549C329.534 264.914 329.547 264.877 329.563 264.853C329.55 264.814 329.536 264.775 329.52 264.735C329.492 264.666 329.461 264.599 329.431 264.531C329.396 264.452 329.359 264.372 329.322 264.294C329.288 264.224 329.254 264.154 329.218 264.084C329.196 264.041 329.175 263.997 329.152 263.954C329.136 263.923 329.153 263.9 329.169 263.9C329.171 263.9 329.185 263.899 329.187 263.9C329.181 263.899 329.172 263.901 329.169 263.891L329.163 263.876C329.148 263.836 329.134 263.796 329.12 263.755C329.104 263.708 329.092 263.661 329.077 263.614C329.06 263.563 329.039 263.512 329.022 263.461C329.011 263.428 329.001 263.394 328.991 263.36C328.971 263.325 328.95 263.29 328.93 263.254C328.884 263.167 328.84 263.079 328.795 262.991C328.751 262.901 328.705 262.813 328.66 262.723C328.628 262.658 328.596 262.592 328.562 262.528C328.527 262.464 328.507 262.395 328.484 262.326C328.463 262.264 328.442 262.2 328.421 262.139C328.405 262.093 328.391 262.047 328.372 262.003C328.349 261.953 328.324 261.903 328.3 261.853C328.267 261.786 328.235 261.72 328.202 261.652C328.159 261.559 328.115 261.464 328.07 261.372C328.018 261.27 327.97 261.166 327.917 261.064C327.884 260.999 327.854 260.933 327.825 260.865C327.796 260.799 327.77 260.732 327.748 260.663C327.736 260.627 327.727 260.589 327.716 260.551C327.713 260.55 327.704 260.548 327.699 260.539C327.679 260.505 327.661 260.469 327.644 260.433C327.626 260.39 327.623 260.347 327.601 260.306C327.581 260.264 327.559 260.22 327.538 260.179C327.518 260.142 327.499 260.103 327.477 260.067C327.462 260.041 327.449 260.015 327.434 259.989C327.419 259.959 327.41 259.93 327.397 259.9C327.385 259.867 327.368 259.836 327.353 259.805C327.334 259.757 327.312 259.709 327.293 259.66C327.273 259.605 327.253 259.552 327.233 259.496C327.23 259.487 327.222 259.479 327.218 259.47C327.208 259.449 327.194 259.428 327.183 259.407C327.147 259.336 327.111 259.265 327.077 259.194C327.041 259.121 327.004 259.049 326.968 258.978C326.937 258.914 326.901 258.853 326.87 258.79C326.845 258.741 326.823 258.691 326.801 258.64C326.799 258.639 326.796 258.636 326.795 258.634C326.781 258.614 326.767 258.593 326.752 258.574C326.721 258.531 326.69 258.487 326.662 258.442C326.633 258.397 326.603 258.353 326.573 258.309C326.524 258.243 326.471 258.179 326.426 258.11C326.365 258.019 326.308 257.925 326.251 257.831C326.187 257.722 326.123 257.613 326.064 257.502C326.018 257.416 325.969 257.329 325.923 257.243C325.885 257.174 325.848 257.106 325.807 257.038C325.776 256.982 325.747 256.926 325.713 256.871C325.678 256.814 325.646 256.754 325.609 256.699C325.556 256.613 325.507 256.527 325.454 256.442C325.396 256.348 325.338 256.252 325.281 256.157C325.233 256.073 325.186 255.989 325.14 255.903C325.098 255.822 325.061 255.741 325.022 255.658C324.988 255.589 324.951 255.518 324.913 255.451C324.897 255.423 324.878 255.397 324.858 255.373C324.833 255.341 324.813 255.306 324.789 255.272C324.734 255.199 324.68 255.124 324.633 255.045C324.625 255.029 324.614 255.013 324.605 254.999L324.3 255.071L321.165 253.697ZM213.726 260.209V260.451H214.687L213.726 260.209ZM216.373 260.209L216.135 261.174H216.373V260.209ZM314.9 261.174V261.897L315.383 261.174H314.9ZM317.792 261.416V262.139L318.272 261.416H317.792ZM316.105 261.897V262.381H316.586V261.897H316.105ZM214.448 262.381L214.206 263.343L215.412 264.069L214.929 262.381H214.448ZM207.222 265.519C205.485 265.57 203.058 265.855 202.402 267.685L207.222 265.997L206.98 266.72L213.001 267.204C213.641 268.346 214.417 268.404 215.651 268.408L214.687 269.616L221.191 268.892C220.001 267.945 218.067 267.748 216.615 267.319C213.373 266.363 210.644 265.418 207.222 265.519ZM205.774 267.204L204.81 267.446V267.685L205.774 267.927V267.204ZM222.155 267.446V267.685H223.361L222.155 267.446ZM225.111 269.039C224.325 269.013 223.51 269.039 222.639 269.132V269.374L223.841 269.616L224.325 270.82L220.469 271.062V271.304C223.513 272.459 228.957 271.669 232.032 270.82V270.339C229.547 269.669 227.467 269.117 225.111 269.039ZM234.441 270.581L234.202 270.82V271.304C235.347 271.643 236.461 271.711 237.333 270.82L234.441 270.581ZM215.32 271.457C214.61 271.394 213.85 271.482 213.242 271.546C214.319 272.66 215.678 272.298 217.096 272.269C216.688 271.733 216.03 271.52 215.32 271.457ZM245.523 273.474L244.559 273.958L244.801 274.197L245.523 273.474ZM245.281 274.681V275.162H245.762V274.681H245.281ZM239.983 281.192V281.431H240.706L239.983 281.192ZM246.487 281.431L245.281 281.673L245.04 282.639C245.971 282.566 246.33 282.375 246.487 281.431ZM267.686 297.35L267.444 298.073H268.888V298.315L265.999 299.762L265.757 298.796V298.557L267.686 297.35ZM265.035 300.246V300.485H264.071L265.035 300.246ZM186.021 300.485L185.54 301.45H186.504L186.021 302.415L186.985 302.173L186.021 300.485ZM268.408 300.727V300.969H267.686L268.408 300.727ZM187.949 301.208L187.707 301.692H188.191L187.949 301.208ZM354.925 341.242C354.86 341.412 354.798 341.584 354.735 341.755C354.738 342.013 354.733 342.27 354.75 342.53C354.793 342.099 354.861 341.67 354.925 341.242ZM357.227 342.801C357.215 342.915 357.198 343.029 357.187 343.143C357.157 343.426 357.127 343.708 357.097 343.991C357.156 343.677 357.212 343.362 357.27 343.048C357.252 342.969 357.238 342.888 357.227 342.801ZM356.885 353.107C356.886 353.423 356.889 353.739 356.89 354.055C356.954 353.755 357.01 353.452 357.075 353.153C357.01 353.144 356.947 353.128 356.885 353.107ZM223.841 374.767L224.083 375.733H223.841V374.767ZM224.325 375.491H224.806L224.564 376.214H224.325V375.491ZM224.806 379.348H225.286V379.832H224.806V379.348ZM223.119 380.556H224.325V381.521C223.748 381.322 222.842 381.282 223.119 380.556ZM223.119 381.521V382.002H222.639L223.119 381.521ZM222.877 383.448V384.656L223.603 383.448H222.877ZM223.841 386.344L224.564 387.548L224.325 386.344H223.841ZM227.937 386.583V386.825L226.973 387.067L227.937 386.583ZM232.754 387.548L231.551 389.237H233.238V389.479L232.032 389.96L232.754 390.925L231.551 390.683V389.721H231.31L231.068 391.167H230.829L230.107 390.444V390.202H230.829C230.835 388.597 231.165 387.99 232.754 387.548ZM229.381 387.79V388.032L227.698 388.271L229.381 387.79ZM225.286 388.756V388.995L226.725 389.237L225.286 388.756ZM231.551 391.006C231.738 391.006 231.59 391.126 231.471 391.086L231.551 391.006ZM241.186 391.409V391.648H241.909L241.186 391.409ZM232.996 391.729C233.182 391.729 233.034 391.849 232.915 391.81L232.996 391.729ZM231.068 392.132V392.371H232.032L231.068 392.132ZM246.004 405.878V406.092C246.036 406.047 246.068 406.003 246.102 405.959C246.117 405.94 246.133 405.921 246.148 405.901L246.004 405.878ZM232.274 418.901V418.962C232.275 418.943 232.277 418.923 232.279 418.904L232.274 418.901ZM230.829 419.625L229.381 419.867V420.109L230.829 420.348V419.625ZM232.032 421.071L229.142 421.794V422.036C230.238 422.027 231.367 422.043 232.032 421.071ZM230.829 422.759C231.011 423.315 231.353 423.535 231.767 423.693C231.776 423.624 231.786 423.554 231.796 423.485C231.8 423.433 231.805 423.38 231.802 423.327V423.068V422.814C231.713 422.87 231.618 422.917 231.551 423.001L230.829 422.759ZM210.834 424.932L210.111 425.655H209.87C209.219 424.752 206.534 425.281 206.016 426.136H211.798L211.556 425.171L210.834 425.655V424.932ZM231.068 425.171L230.829 425.894L231.724 426.194C231.723 426.06 231.722 425.926 231.727 425.793C231.727 425.78 231.73 425.766 231.73 425.753C231.73 425.751 231.73 425.75 231.73 425.747C231.729 425.737 231.729 425.727 231.73 425.715C231.73 425.714 231.73 425.711 231.73 425.709C231.73 425.704 231.733 425.698 231.733 425.692C231.734 425.659 231.733 425.627 231.736 425.594C231.737 425.55 231.74 425.508 231.742 425.465V425.318V425.225C231.739 425.206 231.736 425.187 231.736 425.171L231.068 425.171ZM215.893 425.655L216.373 426.859L206.258 427.101C207.346 428.409 209.029 428.066 210.592 428.066V428.308L208.183 428.548V428.79L213.726 430.72V430.959L210.592 431.037L205.294 431.924C204.987 430.891 204.41 430.595 203.366 430.478L204.33 431.682L200.957 430.478L201.679 431.443L199.754 431.682C199.469 432.907 195.442 434.025 194.211 434.094L194.453 435.782C196.205 437.831 196.801 438.299 199.512 438.92L199.27 439.643H200.234V439.882H198.548V440.124L207.461 442.288L212.52 444.287L220.952 446.154V446.396L220.23 446.636V446.878H227.214V447.12L225.286 447.843V448.082C229.095 448.114 232.874 448.484 236.665 448.765C236.604 448.64 236.553 448.496 236.516 448.327C236.497 448.247 236.508 448.161 236.49 448.082C236.476 447.978 236.448 447.875 236.423 447.774C236.369 447.592 236.316 447.411 236.254 447.232C236.189 447.054 236.12 446.876 236.052 446.699C235.989 446.541 235.926 446.386 235.865 446.227C235.804 446.07 235.761 445.907 235.707 445.748C235.658 445.6 235.607 445.452 235.554 445.305C235.519 445.201 235.484 445.098 235.445 444.996C235.406 444.892 235.373 444.784 235.341 444.676C235.313 444.564 235.281 444.452 235.252 444.339C235.21 444.194 235.176 444.047 235.134 443.901C235.087 443.743 235.053 443.58 235.01 443.42C234.97 443.27 234.936 443.12 234.904 442.968C234.875 442.81 234.84 442.653 234.809 442.495C234.777 442.344 234.747 442.194 234.714 442.043C234.682 441.891 234.649 441.737 234.616 441.585C234.581 441.389 234.531 441.197 234.487 441.003C234.442 440.808 234.398 440.613 234.354 440.418C234.32 440.245 234.276 440.074 234.236 439.902C234.221 439.841 234.203 439.78 234.187 439.718C234.177 439.694 234.172 439.663 234.164 439.637C234.149 439.586 234.139 439.535 234.124 439.485C234.078 439.322 234.03 439.162 233.98 439C233.941 438.891 233.903 438.782 233.865 438.672C233.582 438.565 233.334 438.295 233.35 437.707C233.354 437.559 233.338 437.412 233.324 437.266C233.319 437.218 233.315 437.17 233.309 437.122C233.286 437.062 233.263 437.003 233.24 436.943C233.153 436.715 233.062 436.488 232.972 436.26C232.972 436.259 232.971 436.256 232.969 436.254C231.541 436.215 230.157 435.986 229.139 434.82C230.287 435.314 231.453 435.589 232.659 435.396C232.617 435.267 232.579 435.137 232.541 435.007C232.503 434.877 232.466 434.748 232.428 434.618L230.342 434.094V433.855C230.86 433.92 231.601 434.046 232.305 434.154C232.271 434.012 232.24 433.871 232.212 433.728C232.176 433.514 232.146 433.298 232.123 433.082C232.101 432.922 232.083 432.763 232.072 432.601C232.058 432.463 232.064 432.324 232.054 432.186C232.041 432.041 232.033 431.894 232.028 431.748C232.017 431.571 232.007 431.396 232 431.218C231.998 431.187 231.998 431.154 231.997 431.123C231.992 431.003 232.001 430.895 232.017 430.795C231.956 430.639 231.917 430.451 231.916 430.224C231.916 430.135 231.917 430.048 231.916 429.959C231.916 429.797 231.916 429.634 231.91 429.472C231.906 429.278 231.897 429.084 231.884 428.89C231.874 428.741 231.867 428.59 231.858 428.441C231.857 428.423 231.855 428.405 231.855 428.389C231.838 428.318 231.805 428.272 231.801 428.184C231.789 427.952 231.779 427.72 231.775 427.487C231.767 427.201 231.762 426.914 231.758 426.629C231.757 426.597 231.758 426.565 231.758 426.534L226.488 425.655L226.008 426.136L226.246 427.101L219.262 426.62C218.877 425.474 217.791 425.798 217.576 426.859H216.853V426.62L215.893 425.655ZM199.754 430.72V431.201H200.234V430.72H199.754ZM193.489 430.959C194.179 431.949 195.721 432.073 196.862 432.166V431.924L196.139 431.682V431.443L198.306 432.166L198.111 431.169L193.489 430.959ZM198.111 431.169L198.79 431.201L198.067 430.959L198.111 431.169ZM235.943 431.331C235.927 431.493 235.911 431.655 235.897 431.818L235.931 431.821C235.933 431.657 235.94 431.494 235.943 431.331ZM293.673 432.002C293.608 432.232 293.545 432.461 293.48 432.691C293.49 432.67 293.501 432.65 293.511 432.63C293.554 432.478 293.598 432.327 293.641 432.175C293.645 432.159 293.651 432.142 293.656 432.126C293.656 432.123 293.655 432.12 293.656 432.117C293.662 432.079 293.667 432.04 293.673 432.002ZM194.211 433.371V433.613H194.933L194.211 433.371ZM204.81 442.536V442.778L207.461 443.501L204.81 442.536Z" fill="white"/>
<path d="M262.957 471.134L214.154 466.923C205.926 466.213 197.91 463.929 190.542 460.194L161.936 445.696C151.026 440.166 141.456 432.317 133.894 422.696L121.368 406.759C114.879 398.503 109.67 389.317 105.914 379.508L101.716 368.543C97.5295 357.61 95.3091 346.021 95.1572 334.313L95.0142 323.297C94.7945 306.355 97.1184 289.476 101.908 273.226C105.706 260.511 110.814 248.227 117.152 236.571L121.797 227.954C128.119 216.226 135.303 204.985 143.29 194.324L151.329 183.592C160.49 171.363 168.824 158.532 176.272 145.187L186.096 127.589C189.924 120.729 193.533 113.749 196.916 106.659L209.11 81.0959C212.613 73.753 215.676 66.2075 218.282 58.4996L227.669 30.7336C229.129 26.4154 230.559 22.0873 231.961 17.7497L237.603 0.291077L236.542 63.498C236.311 77.2571 234.995 90.9764 232.606 104.528L232.265 106.462C229.263 123.496 224.294 140.123 217.459 156.009L208.033 177.915L247.898 170.291C263.031 167.397 278.474 166.481 293.842 167.564L320.68 169.456L278.418 182.334C263.435 186.899 248.845 192.664 234.787 199.573L226.558 203.617C220.33 206.678 214.469 210.437 209.087 214.821L204.416 218.626C199.759 222.42 195.417 226.585 191.432 231.08L186.02 237.185C181.84 241.901 177.874 246.803 174.134 251.875L161.36 269.202C158.194 273.497 155.487 278.113 153.286 282.974C148.929 293.974 146.352 305.6 145.652 317.412L145.398 319.765C144.241 330.513 144.616 341.372 146.511 352.015L147.088 355.256C148.614 363.824 150.584 372.307 152.99 380.67L155.284 388.646C157.31 395.686 160.389 402.378 164.418 408.493L170.655 417.961C177.775 428.768 187.366 437.72 198.632 444.074L213.812 452.636C217.973 454.983 222.335 456.956 226.845 458.53L262.957 471.134Z" fill="white"/>
<path d="M259.959 471.4L254.408 467.752C247.655 463.315 242.397 458.342 238.845 453.037C232.642 441.735 230.434 429.967 232.324 418.276C233 411.904 234.645 405.568 237.242 399.323L241.29 388.044C244.005 380.481 249.077 373.185 256.316 366.428L258.329 364.548C261.516 361.574 265.162 358.732 269.234 356.048L299.156 336.332C303.385 333.545 306.787 330.461 309.253 327.176C320.732 310 328.054 292.182 331.057 274.112C330.741 266.463 327.73 258.904 322.164 251.791C319.657 247.647 316.021 243.699 311.361 240.063L280.93 212.764L316.548 235.743C326.826 242.373 335.044 249.759 340.92 257.645L343.013 260.455C353.39 274.384 361.079 288.789 365.972 303.468C368.742 313.704 369.811 324.04 369.168 334.367C368.937 343.27 367.367 352.151 364.471 360.933C360.951 372.5 354.986 383.843 346.679 394.765C342.184 400.392 337.048 405.882 331.294 411.207C325.436 416.853 318.272 422.127 309.954 426.917L298.644 433.429L310.243 428.561C322.525 423.405 332.869 417.169 340.777 410.153C345.295 405.737 349.068 401.135 352.057 396.398C358.68 386.832 364.283 377.093 368.842 367.223C373.841 356.329 376.24 345.171 375.989 333.988C375.473 322.422 373.683 310.88 370.629 299.414L369.471 294.037L379.021 306.077C382.356 310.282 385.072 314.606 387.148 319.014C389.177 323.382 390.946 327.781 392.451 332.203C396.487 344.417 397.448 356.84 395.31 369.176L394.744 372.769C392.965 384.048 389.279 395.229 383.724 406.189C378.532 416.427 370.972 426.318 361.2 435.658C351.528 444.908 339.29 453.409 324.86 460.903C315.885 465.563 304.271 468.697 291.625 469.869L282.324 470.731C278.777 471.059 275.182 471.243 271.576 471.28L259.959 471.4Z" fill="white"/>
<path d="M243.138 449.627C309.024 449.627 362.435 396.387 362.435 330.713C362.435 265.039 309.024 211.8 243.138 211.8C177.252 211.8 123.841 265.039 123.841 330.713C123.841 396.387 177.252 449.627 243.138 449.627Z" fill="#0172D1" fill-opacity="0.32579"/>
<path d="M277.077 132.433C291.464 132.433 303.126 120.756 303.126 106.353C303.126 91.9496 291.464 80.2733 277.077 80.2733C262.69 80.2733 251.027 91.9496 251.027 106.353C251.027 120.756 262.69 132.433 277.077 132.433Z" fill="url(#paint0_radial_140_570)"/>
<path d="M242.392 212.698V212.94L245.762 213.663L245.523 214.386L248.413 215.109L247.448 214.87C247.57 216.596 249.077 217.06 250.381 217.919C253.366 219.885 257.089 221.463 260.698 221.621L259.495 217.521C260.58 217.262 261.841 217.434 261.904 216.075L264.313 215.833C262.891 214.553 260.363 214.375 258.531 214.043C253.236 213.086 247.766 212.698 242.392 212.698ZM233.235 213.263C231.518 213.149 229.724 213.347 228.42 213.525C227.492 213.651 226.168 213.411 225.528 214.144L224.325 213.905V214.144H225.286V214.386L224.325 214.628V214.87H225.286C224.113 216.01 223.138 215.783 221.674 215.593V215.351L223.841 214.386V214.144L217.821 216.317V216.556H217.096L217.821 216.317L216.373 216.075V216.317L212.039 217.282V216.798L216.373 216.075L217.579 215.351V215.109C214.674 215.485 211.025 216.155 208.425 217.521V217.763L209.389 217.521V217.763L206.738 218.244V218.005H207.219V217.763C204.505 218.164 201.829 219.45 199.27 220.405C193.111 222.704 187.089 225.468 181.445 228.858C178.728 230.491 175.074 232.244 173.496 235.128L172.771 234.886C172.37 237.056 169.325 237.908 169.882 240.193C168.328 241.007 167.466 242.573 166.264 243.809C162.119 248.071 159.929 251.577 158.56 257.316C161.035 258.157 159.759 260.136 159.841 262.139C159.896 263.474 160.831 264.247 159.283 265.032L160.88 266.858L161.006 268.823L162.414 270.82C163.261 270.347 163.551 269.376 162.414 269.132L162.172 262.862V262.62L161.45 262.862C161.243 261.382 161.625 259.92 163.378 260.209L162.655 263.104L165.064 265.516L164.581 266.72C165.864 267.743 167.548 269.363 167.815 271.062C168.016 272.338 166.612 273.716 167.781 274.727C170.077 276.732 176.476 278.455 179.517 278.225C180.851 278.124 182.006 276.976 183.373 277.196C185.062 277.467 186.117 279.096 187.707 279.587C190.185 280.354 192.906 280.145 195.417 280.227L194.933 280.95L197.659 282.97L198.22 284.601L199.512 284.569H199.754H199.993L201.921 285.773L201.679 286.497H202.885V286.981C204.504 286.681 206.006 287.017 207.222 288.185L208.667 287.704L207.944 286.497L212.52 286.015L213.729 289.15L214.206 292.769V293.008C212.877 294.155 210.869 295.258 210.592 297.108L208.183 297.834C208.166 299.043 207.378 299.961 206.497 300.727V302.657L207.702 303.861L208.905 302.896L205.93 306.037L206.016 308.927C211.096 310.599 213.616 317.861 216.322 321.918C218.859 325.722 225.326 324.685 227.971 328.507C229.704 331.01 228.276 334.078 228.138 336.661C227.909 340.953 226.762 344.996 226.457 349.203C226.373 350.363 227.045 351.402 226.869 352.579C226.449 355.388 224.664 357.764 224.325 360.537L223.361 360.779C223.601 361.905 224.306 363.227 224.244 364.375C224.149 366.165 223.165 366.877 224.083 368.737C223.053 368.958 223.294 370.467 223.119 371.391C224.758 371.26 224.595 369.826 224.325 368.495L225.528 368.014L226.25 369.221L224.564 375.249L224.806 373.56L224.083 373.802L224.564 373.079L223.119 373.321C223.413 375.239 222.426 376.112 221.433 377.66L221.674 377.902L224.083 377.66V379.832L223.361 380.072L223.119 379.348C221.478 380.207 222.316 381.871 222.877 383.209L224.083 383.448L225.047 382.244V382.483C224.175 383.179 223.626 384.578 224.083 385.621L223.361 386.344L224.564 385.379L225.528 385.621L225.047 386.825L226.25 386.583L225.286 387.067C225.631 387.962 226.037 388.104 226.973 388.032V388.271L226.492 388.513L227.456 389.479L226.734 389.237L226.492 389.96L227.937 390.202V390.683L228.901 390.444L228.659 389.96V389.721H227.698L228.659 389.479V389.721L229.623 389.96L229.143 390.925H230.345V391.167L229.623 391.648L232.754 391.89C233.143 392.989 234.624 392.999 235.646 393.337L233.96 392.132V391.89L237.091 392.613V391.89H239.983L239.742 391.167C237.738 391.287 236.302 389.679 234.682 388.756L234.924 388.032L232.996 387.067L234.682 387.309C234.321 386.542 233.515 385.787 233.514 384.898C233.513 384.114 235.773 381.49 236.403 380.875C237.126 380.172 238.437 379.771 238.605 378.637C238.826 377.145 235.749 377.671 235.79 375.963C235.825 374.538 237.667 374.03 238.778 374.044C239.34 372.603 239.555 371.254 240.945 370.425L239.983 369.702L242.392 369.944C242.072 367.999 239.4 369.41 239.742 366.325C242.568 367.246 246.22 366.977 244.559 362.949C247.022 363.536 255.176 363.079 255.014 359.14C254.93 357.087 252.526 356.189 252.027 354.507C254.15 355.799 258.246 356.932 260.436 355.316C262.018 354.151 263.101 351.966 264.793 351.133V350.891H264.071L266.963 348.237L265.035 350.407V350.649C266.973 349.989 267.58 348.179 268.912 346.8C269.532 346.157 270.439 345.676 270.814 344.835C271.345 343.643 270.892 342.244 271.395 341.014C272.178 339.104 275.606 337.35 277.562 337.868C278.805 335.708 281.146 336.807 283.079 336.341C284.042 336.109 284.769 335.266 285.753 334.972L288.3 330.368L289.923 325.084L290.329 319.538C291.899 320.14 292.371 318.381 293.27 317.377C295.157 315.267 297.614 314.083 297.273 310.857C296.897 307.307 295.146 308.036 292.737 306.524C291.096 305.493 289.809 304.041 287.92 303.406C286.744 303.011 285.507 303.255 284.305 303C282.387 302.593 280.89 301.916 279.007 302.896C279.737 301.096 277.972 300.715 276.598 300.197C273.691 299.099 272.245 299.062 270.094 301.45L269.13 300.969V300.727C270.566 300.553 271.369 300.077 271.539 298.557L267.924 297.592V297.35H268.408V297.108L267.686 296.869C269.293 295.883 266.358 292.92 265.757 291.32L265.035 291.562C262.923 288.211 258.352 289.242 255.158 288.657C253.858 288.42 252.893 287.552 251.544 287.462C251.155 284.993 248.024 284.569 246.004 285.05L246.726 284.327L242.873 281.915H244.079V281.673L238.055 282.544L232.786 282.011L228.901 280.708L229.143 279.985H228.178L228.42 280.95L225.77 281.673C225.953 282.97 226.668 283.783 225.286 284.569L225.047 280.708L226.492 280.227V279.743C225.049 279.395 223.927 280.445 222.639 281.002C220.543 281.908 217.743 281.339 217.579 284.327C216.311 284.519 215.38 285.194 215.171 286.497H214.929C212.853 282.973 207.782 285.126 204.81 285.773C204.105 284.547 202.362 283.907 202.151 282.397C201.93 280.811 203.982 278.338 203.118 276.963C201.579 274.511 195.569 276.509 193.25 276.608C194.304 275.331 194.857 274.192 194.933 272.508L195.659 272.992C196.221 271.879 196.528 270.26 197.826 269.858V268.169C196.081 268.585 194.233 268.533 192.53 269.195C190.837 269.853 190.644 272.187 188.913 273.015C184.298 275.224 177.898 272.896 180.349 266.962C180.947 265.513 181.541 264.027 182.153 262.62C183.149 260.333 185.978 260.57 186.985 258.52H196.381L195.659 258.039C196.054 257.38 196.303 257.59 195.659 257.074C198.492 256.489 200.619 256.779 203.366 256.964C204.19 257.018 204.954 256.384 205.748 256.8C207.128 257.522 207.566 263.612 210.264 262.47C213.284 261.192 209.4 256.989 210.105 255.146C211.141 252.441 216.668 250.293 219.266 249.597L219.024 248.874L220.71 248.151H219.746V247.909L220.469 247.67L220.23 244.051H220.469L220.952 245.258L220.469 246.462C221.512 245.955 222.322 245.238 221.916 244.051C223.262 244.104 224.055 243.431 224.325 242.121L226.973 241.881V241.639H225.77V241.397L230.107 240.916C228.962 237.653 236.35 236.42 238.778 236.093V236.332L236.611 238.021C238.09 238.484 243.819 236.951 244.317 235.37H244.559C245.052 235.915 245.4 235.697 245.765 235.128L245.04 234.405L243.353 235.851H241.67L242.631 235.128V234.886L239.5 234.405L241.428 235.851C240.078 235.364 238.804 235.094 238.778 233.44H237.091V233.198L239.5 232.716V232.232C237.034 231.403 233.931 232.335 231.793 233.682V233.921L230.829 234.163L231.793 233.682C236.35 228.744 244.705 231.816 250.341 228.858C249.927 227.29 248.866 227.13 247.448 226.686L247.69 226.205L242.392 224.516C242.465 223.277 240.119 220.893 238.778 221.22C237.795 221.46 237.207 222.458 236.127 222.592C234.635 222.777 233.812 221.763 234.202 220.417C231.804 220.577 229.029 218.483 226.564 219.63C225.491 220.13 225.195 221.866 224.083 222.586V223.07C226.928 225.034 222.422 226.455 220.71 226.686L221.191 229.34C219.108 230.4 218.029 230.077 217.654 228.858H218.543L217.551 228.461C217.461 227.911 217.472 227.234 217.579 226.444L207.944 225.482L208.425 224.032L207.222 224.274C209.964 220.469 216.77 219.284 220.952 217.763V218.005L218.782 218.97V219.209L224.806 218.728V218.486L222.155 217.763H221.916L222.877 217.521H223.119H223.361L226.492 215.593H227.456V214.87L230.829 214.628L229.623 215.833V216.075L232.996 215.593V216.075L227.214 218.244L230.829 217.924L237.572 219.693L235.888 218.728V218.486C237.144 218.655 238.534 219.387 239.258 218.005L236.849 217.04V216.556L237.091 216.317C238.97 216.957 240.036 217.571 241.67 216.075L236.849 215.109V214.87H237.572C236.587 213.803 234.951 213.376 233.235 213.263ZM231.31 214.87L231.551 215.351H231.068L231.31 214.87ZM222.639 216.075V216.317L221.674 216.556L222.639 216.075ZM270.094 217.763C271.401 219.32 276.096 220.597 278.043 220.175V219.693C275.62 218.327 272.776 218.164 270.094 217.763ZM218.782 217.844L218.863 217.924C218.744 217.964 218.6 217.844 218.782 217.844ZM226.492 218.728V219.209L226.973 218.728H226.492ZM222.639 219.693L220.71 219.933V220.175L222.639 219.693ZM294.182 226.686L298.038 229.821H297.074L297.796 230.305V230.544H297.074V230.786C298.678 231.721 300.172 234.04 302.133 233.198V232.716L299.964 230.786L306.085 235.698L306.534 235.756C306.504 235.717 306.474 235.677 306.445 235.638C306.411 235.592 306.376 235.545 306.344 235.5C306.326 235.474 306.311 235.448 306.295 235.422L306.292 235.419C306.246 235.385 306.203 235.349 306.16 235.312C306.111 235.274 306.064 235.234 306.019 235.191C305.977 235.153 305.937 235.114 305.898 235.073C305.879 235.054 305.864 235.033 305.846 235.013H305.843C305.781 235.012 305.704 234.985 305.624 234.923C305.603 234.907 305.582 234.887 305.561 234.869C305.539 234.849 305.517 234.83 305.495 234.811C305.476 234.795 305.456 234.781 305.437 234.765C305.42 234.75 305.403 234.734 305.385 234.719C305.371 234.706 305.357 234.693 305.342 234.681C305.319 234.662 305.295 234.643 305.273 234.621C305.248 234.596 305.225 234.567 305.201 234.54C305.168 234.503 305.134 234.467 305.101 234.431C305.069 234.396 305.04 234.359 305.008 234.324C304.973 234.284 304.936 234.245 304.899 234.206C304.865 234.171 304.827 234.137 304.793 234.102C304.76 234.069 304.726 234.034 304.692 234.001C304.662 233.973 304.633 233.947 304.603 233.921C304.575 233.897 304.547 233.873 304.519 233.849C304.502 233.834 304.487 233.818 304.47 233.803C304.423 233.788 304.372 233.76 304.321 233.71C304.297 233.687 304.278 233.662 304.255 233.639C304.222 233.606 304.189 233.571 304.157 233.538C304.115 233.494 304.075 233.45 304.036 233.405C303.998 233.361 303.962 233.317 303.924 233.273C303.897 233.241 303.87 233.209 303.843 233.177C303.827 233.158 303.811 233.138 303.794 233.12C303.77 233.094 303.745 233.071 303.719 233.048C303.677 233.01 303.633 232.972 303.59 232.935C303.552 232.903 303.513 232.871 303.475 232.84C303.438 232.811 303.4 232.784 303.362 232.757C303.321 232.727 303.279 232.7 303.236 232.673C303.187 232.644 303.136 232.612 303.089 232.581C303.053 232.556 303.02 232.532 302.985 232.506C302.966 232.491 302.947 232.473 302.928 232.457C302.907 232.439 302.916 232.423 302.902 232.405C302.883 232.404 302.858 232.389 302.824 232.356C302.811 232.344 302.799 232.332 302.787 232.319C302.771 232.302 302.756 232.284 302.741 232.267C302.731 232.253 302.726 232.248 302.715 232.238C302.693 232.217 302.671 232.198 302.649 232.177C302.622 232.154 302.596 232.13 302.571 232.105C302.542 232.078 302.511 232.049 302.482 232.022C302.451 231.993 302.422 231.963 302.39 231.936C302.368 231.917 302.346 231.899 302.324 231.881C302.3 231.863 302.278 231.844 302.254 231.826C302.232 231.808 302.211 231.789 302.188 231.771C302.163 231.752 302.138 231.734 302.113 231.714C302.094 231.697 302.072 231.68 302.053 231.662C302.034 231.646 302.016 231.63 301.998 231.613C301.979 231.595 301.959 231.577 301.941 231.558C301.912 231.53 301.886 231.503 301.857 231.475C301.834 231.449 301.809 231.425 301.785 231.4C301.766 231.379 301.748 231.356 301.728 231.336C301.712 231.321 301.695 231.308 301.679 231.293C301.667 231.283 301.653 231.272 301.641 231.261C301.623 231.247 301.603 231.234 301.584 231.221C301.563 231.203 301.542 231.184 301.521 231.166C301.488 231.139 301.458 231.111 301.426 231.083C301.393 231.054 301.359 231.024 301.328 230.993C301.297 230.965 301.266 230.936 301.236 230.907C301.214 230.886 301.192 230.867 301.17 230.847C301.156 230.833 301.143 230.819 301.129 230.809C301.118 230.8 301.116 230.797 301.106 230.789C301.105 230.786 301.103 230.783 301.1 230.78C301.099 230.779 301.096 230.782 301.095 230.777L301.092 230.774C301.071 230.759 301.052 230.744 301.034 230.725C301.019 230.709 301.004 230.694 300.988 230.679C300.963 230.654 300.936 230.632 300.91 230.607C300.863 230.566 300.814 230.525 300.766 230.483V230.48C300.721 230.441 300.691 230.401 300.671 230.362C300.517 230.26 300.358 230.165 300.208 230.057C300.122 229.993 300.038 229.928 299.955 229.861C299.803 229.767 299.632 229.686 299.483 229.59C297.824 228.526 296.165 227.086 294.182 226.686ZM245.523 226.928V227.17L244.559 227.409L245.523 226.928ZM250.821 229.34C248.673 229.535 247.221 231.782 246.487 233.682H252.269V233.921L251.305 234.163V234.405L253.955 233.682L253.714 234.405C254.706 234.75 255.304 234.784 255.639 233.682H254.194L254.917 232.474L253.955 232.716L253.714 232.474L253.955 231.751L249.618 231.27L250.821 229.34ZM239.5 231.028C240.242 232.009 241.726 231.984 242.873 231.993L239.5 231.028ZM210.353 233.682L210.592 234.644L211.556 234.405L211.798 236.093L206.98 235.851L207.461 235.609V235.37L202.163 236.574C203.953 234.778 207.879 233.683 210.353 233.682ZM239.742 236.174L239.822 236.252C239.703 236.291 239.558 236.174 239.742 236.174ZM214.687 236.332V236.574H214.206V236.816L215.171 237.058C215.889 236.061 216.694 236.442 217.579 237.058C216.968 238.107 216.249 237.687 215.412 237.058L215.651 238.021L213.484 239.951L213.242 238.744L211.556 239.228V238.986C212.699 238.034 212.611 237.484 211.317 236.816L214.687 236.332ZM210.834 236.574C210.292 237.61 209.282 237.749 208.508 238.559C207.132 240 207.582 241.54 205.294 242.121C205.119 240.183 206.365 239.18 207.461 237.781L206.98 238.021C207.928 236.945 209.457 236.76 210.834 236.574ZM308.637 237.781L309.593 238.441C309.578 238.423 309.561 238.407 309.544 238.389C309.514 238.358 309.485 238.327 309.455 238.294C309.453 238.291 309.452 238.288 309.449 238.285C309.413 238.26 309.378 238.235 309.342 238.21C309.248 238.145 309.158 238.072 309.069 238C309.02 237.961 309.042 237.978 309.003 237.948C308.971 237.924 308.944 237.898 308.916 237.873L308.637 237.781ZM221.384 238.263C221.857 238.247 222.293 238.252 222.639 238.263C221.702 239.676 219.115 239.276 217.579 239.47C218.216 238.557 219.965 238.31 221.384 238.263ZM171.326 238.505L171.088 239.709H170.846L171.326 238.505ZM218.302 239.951V240.193C216.383 240.717 213.458 242.515 211.556 241.397L218.302 239.951ZM212.762 240.513C212.948 240.513 212.8 240.633 212.681 240.594L212.762 240.513ZM311.046 243.328C312.153 245.719 314.81 249.467 316.905 251.124C318.067 252.043 319.66 252.499 320.923 253.458H321.165L323.291 253.219L323.28 253.207C323.274 253.214 323.261 253.211 323.254 253.195C323.246 253.179 323.239 253.165 323.231 253.149L323.222 253.14C323.216 253.133 323.209 253.127 323.205 253.12C323.197 253.11 323.203 253.108 323.21 253.103C323.159 253.035 323.109 252.967 323.058 252.898C322.964 252.771 322.871 252.644 322.779 252.515C322.749 252.473 322.752 252.44 322.747 252.406C322.72 252.406 322.708 252.428 322.727 252.489C322.727 252.491 322.73 252.495 322.727 252.495C322.725 252.495 322.728 252.491 322.724 252.489C322.717 252.474 322.709 252.458 322.701 252.443C322.691 252.425 322.678 252.411 322.667 252.394C322.644 252.363 322.622 252.33 322.6 252.299C322.584 252.275 322.567 252.252 322.549 252.23C322.531 252.209 322.513 252.188 322.497 252.167C322.484 252.149 322.47 252.13 322.456 252.112C322.446 252.097 322.435 252.083 322.425 252.069C322.413 252.053 322.401 252.039 322.39 252.023C322.383 252.011 322.373 251.998 322.364 251.988C322.35 251.97 322.339 251.949 322.324 251.93C322.311 251.913 322.294 251.896 322.281 251.878C322.268 251.863 322.258 251.846 322.246 251.829C322.232 251.812 322.218 251.793 322.203 251.775C322.185 251.75 322.167 251.727 322.149 251.703C322.132 251.68 322.114 251.654 322.097 251.631C322.08 251.61 322.066 251.589 322.051 251.567C322.035 251.546 322.02 251.525 322.005 251.504C321.982 251.475 321.96 251.444 321.939 251.415C321.923 251.393 321.908 251.373 321.893 251.351C321.884 251.34 321.876 251.324 321.867 251.311C321.853 251.291 321.862 251.278 321.855 251.259L321.852 251.256C321.84 251.24 321.828 251.224 321.818 251.207C321.79 251.163 321.765 251.118 321.743 251.072C321.721 251.025 321.702 250.977 321.682 250.931C321.669 250.899 321.66 250.868 321.648 250.836C321.637 250.812 321.628 250.788 321.619 250.764C321.612 250.744 321.603 250.723 321.596 250.703C321.587 250.68 321.575 250.657 321.564 250.634C321.551 250.606 321.539 250.581 321.524 250.553C321.509 250.523 321.494 250.491 321.478 250.461C321.471 250.448 321.465 250.435 321.458 250.421C321.457 250.419 321.459 250.416 321.455 250.415C321.442 250.397 321.428 250.38 321.415 250.363C321.29 250.293 321.165 250.177 321.052 250.006C321.011 249.943 320.972 249.876 320.931 249.813C320.881 249.73 320.83 249.65 320.779 249.568C320.736 249.505 320.699 249.44 320.661 249.375C320.63 249.32 320.594 249.269 320.56 249.216C320.517 249.157 320.48 249.092 320.439 249.032C320.378 248.943 320.317 248.852 320.258 248.761C320.202 248.678 320.156 248.592 320.102 248.508C320.048 248.421 319.99 248.333 319.935 248.245C319.881 248.163 319.838 248.076 319.783 247.995C319.73 247.915 319.679 247.834 319.625 247.756C319.567 247.663 319.502 247.576 319.435 247.491C319.347 247.379 319.26 247.265 319.17 247.156C319.057 247.021 318.947 246.885 318.83 246.753C318.709 246.614 318.585 246.478 318.465 246.338C318.369 246.228 318.276 246.116 318.18 246.007C318.08 245.895 317.982 245.78 317.884 245.667C317.785 245.554 317.683 245.445 317.581 245.335C317.492 245.243 317.405 245.149 317.317 245.056C317.244 244.979 317.167 244.906 317.092 244.831C316.998 244.735 316.9 244.641 316.801 244.549C316.791 244.54 316.783 244.529 316.773 244.52L311.046 243.328ZM321.165 253.697L321.645 255.87C318.911 257.405 322.053 259.235 321.487 261.174C321.194 262.179 320.07 262.342 319.611 263.176C318.82 264.612 317.954 268.968 318.238 270.578C318.574 272.488 320.706 274.032 321.084 276.127C321.567 278.805 320.875 281.359 322.575 283.771C323.786 285.49 325.919 286.812 327.315 288.447C327.437 288.59 327.558 288.76 327.68 288.92C327.683 288.903 327.686 288.887 327.689 288.871C327.705 288.758 327.731 288.646 327.758 288.536C327.775 288.468 327.794 288.401 327.818 288.335C327.834 288.295 327.851 288.256 327.867 288.217C327.883 288.18 327.902 288.144 327.919 288.107C327.934 288.071 327.952 288.037 327.971 288.003C327.978 287.993 327.986 287.979 327.988 287.972V287.969C327.994 287.944 328.004 287.918 328.011 287.894C328.026 287.84 328.043 287.788 328.06 287.735C328.072 287.694 328.084 287.653 328.098 287.611C328.112 287.562 328.126 287.513 328.144 287.465C328.159 287.419 328.174 287.375 328.189 287.329C328.203 287.292 328.214 287.254 328.224 287.217C328.239 287.173 328.251 287.128 328.264 287.084C328.279 287.037 328.29 286.991 328.302 286.943C328.318 286.886 328.334 286.828 328.348 286.77C328.361 286.713 328.377 286.657 328.394 286.6C328.399 286.57 328.415 286.541 328.422 286.511C328.434 286.479 328.439 286.446 328.448 286.413C328.461 286.359 328.474 286.305 328.488 286.252C328.503 286.197 328.518 286.142 328.532 286.087C328.54 286.046 328.55 286.008 328.558 285.966C328.563 285.928 328.575 285.889 328.583 285.851C328.592 285.814 328.605 285.775 328.618 285.739C328.624 285.718 328.634 285.7 328.638 285.678C328.65 285.642 328.661 285.605 328.673 285.569C328.689 285.529 328.703 285.488 328.716 285.448C328.731 285.41 328.746 285.372 328.756 285.333C328.768 285.291 328.779 285.25 328.793 285.209C328.801 285.181 328.82 285.153 328.828 285.125C328.835 285.101 328.844 285.075 328.851 285.05C328.863 285.018 328.871 284.988 328.88 284.955C328.886 284.927 328.895 284.897 328.903 284.869C328.907 284.834 328.913 284.8 328.917 284.765C328.918 284.762 328.917 284.759 328.917 284.756C328.925 284.703 328.933 284.65 328.943 284.598C328.951 284.556 328.963 284.515 328.975 284.474C328.982 284.442 328.99 284.411 328.998 284.379C329.007 284.336 329.019 284.291 329.032 284.249C329.037 284.237 329.038 284.226 329.041 284.215C329.07 284.096 329.122 284.027 329.182 283.981C329.19 283.958 329.196 283.933 329.202 283.909C329.168 283.818 329.155 283.7 329.174 283.558C329.193 283.41 329.214 283.263 329.237 283.117C329.256 283 329.275 282.884 329.298 282.768C329.312 282.693 329.329 282.617 329.349 282.543C329.364 282.49 329.381 282.438 329.398 282.385C329.417 282.33 329.433 282.273 329.45 282.218C329.477 282.133 329.506 282.048 329.537 281.964C329.56 281.9 329.58 281.836 329.603 281.771C329.624 281.706 329.65 281.641 329.672 281.575C329.693 281.512 329.714 281.451 329.735 281.388C329.75 281.342 329.765 281.296 329.778 281.25C329.795 281.188 329.814 281.127 329.833 281.065C329.851 281.001 329.875 280.937 329.893 280.872C329.912 280.815 329.926 280.755 329.942 280.697C329.961 280.629 329.982 280.562 330 280.495C330.021 280.42 330.04 280.346 330.058 280.27C330.071 280.219 330.081 280.167 330.092 280.115C330.095 280.059 330.099 280.004 330.104 279.948C330.111 279.88 330.119 279.811 330.127 279.743C330.134 279.696 330.142 279.648 330.153 279.602C330.16 279.559 330.168 279.518 330.176 279.475C330.19 279.392 330.201 279.307 330.219 279.225C330.25 279.08 330.288 278.936 330.322 278.792C330.344 278.699 330.366 278.606 330.389 278.513C330.4 278.427 330.412 278.342 330.423 278.256C330.443 278.092 330.465 277.927 330.489 277.764C330.503 277.678 330.513 277.593 330.527 277.507C330.54 277.42 330.551 277.331 330.561 277.242C330.576 277.125 330.594 277.007 330.613 276.891C330.626 276.798 330.646 276.708 330.665 276.617C330.677 276.549 330.693 276.482 330.72 276.418C330.743 276.364 330.776 276.316 330.806 276.266C330.825 276.235 330.841 276.203 330.858 276.171C330.882 276.122 330.907 276.073 330.93 276.024C330.955 275.967 330.984 275.921 331.019 275.885C331.031 275.822 331.041 275.758 331.053 275.695C331.07 275.61 331.088 275.528 331.099 275.442C331.105 275.402 331.113 275.363 331.12 275.323V275.321C331.029 275.224 330.967 275.062 330.979 274.836C330.985 274.739 330.989 274.643 330.993 274.545C331.002 274.399 331.01 274.25 331.016 274.102C331.018 273.992 331.025 273.883 331.031 273.773C331.033 273.691 331.041 273.61 331.048 273.528C331.053 273.481 331.059 273.434 331.066 273.387C331.071 273.369 331.073 273.354 331.074 273.335C331.076 273.275 331.077 273.214 331.08 273.154C331.083 273.094 331.096 273.035 331.098 272.975C331.099 272.895 331.113 272.814 331.115 272.733C331.116 272.566 331.118 272.399 331.118 272.232C331.118 272.148 331.118 272.063 331.118 271.978C331.113 271.954 331.106 271.93 331.103 271.906C331.096 271.854 331.091 271.801 331.086 271.748C331.081 271.704 331.075 271.659 331.068 271.615C331.058 271.565 331.05 271.514 331.043 271.463C331.035 271.421 331.028 271.38 331.02 271.339C331.012 271.306 331.009 271.273 331.002 271.241C330.995 271.203 330.986 271.163 330.979 271.126C330.97 271.07 330.968 271.014 330.956 270.958C330.946 270.903 330.938 270.847 330.93 270.791C330.926 270.744 330.92 270.697 330.913 270.65C330.907 270.602 330.898 270.556 330.887 270.506C330.877 270.459 330.867 270.413 330.861 270.365C330.855 270.322 330.841 270.28 330.833 270.238C330.821 270.184 330.811 270.129 330.801 270.074C330.792 270.03 330.784 269.986 330.769 269.944C330.769 269.943 330.77 269.94 330.769 269.938C330.723 269.912 330.698 269.854 330.671 269.742C330.651 269.649 330.633 269.556 330.614 269.463C330.594 269.359 330.575 269.256 330.553 269.152C330.54 269.088 330.527 269.023 330.516 268.959C330.512 268.942 330.504 268.926 330.499 268.91C330.49 268.88 330.485 268.849 330.473 268.821C330.461 268.781 330.448 268.741 330.441 268.7C330.429 268.644 330.418 268.589 330.407 268.533C330.395 268.47 330.381 268.406 330.375 268.342C330.369 268.278 330.362 268.213 330.358 268.149C330.356 268.088 330.346 268.029 330.34 267.968C330.333 267.905 330.322 267.843 330.315 267.781C330.303 267.698 330.292 267.615 330.277 267.533C330.259 267.433 330.242 267.333 330.222 267.233C330.209 267.161 330.195 267.086 330.179 267.014C330.178 267.004 330.173 266.995 330.17 266.985C330.147 267.018 330.137 267.076 330.144 267.173C330.14 267.152 330.133 267.132 330.127 267.112C330.115 267.058 330.102 267.002 330.09 266.948C330.064 266.833 330.039 266.718 330.015 266.602C329.997 266.526 329.983 266.45 329.966 266.375C329.965 266.373 329.967 266.37 329.966 266.369C329.962 266.36 329.954 266.349 329.949 266.34C329.924 266.29 329.9 266.241 329.88 266.19C329.861 266.143 329.841 266.094 329.825 266.046C329.808 265.99 329.793 265.936 329.782 265.879C329.762 265.784 329.738 265.688 329.716 265.594C329.687 265.475 329.655 265.357 329.624 265.239C329.599 265.148 329.578 265.054 329.552 264.963H329.549C329.534 264.914 329.547 264.877 329.563 264.853C329.55 264.814 329.536 264.775 329.52 264.735C329.492 264.666 329.461 264.599 329.431 264.531C329.396 264.452 329.359 264.372 329.322 264.294C329.288 264.224 329.254 264.154 329.218 264.084C329.196 264.041 329.175 263.997 329.152 263.954C329.136 263.923 329.153 263.9 329.169 263.9C329.171 263.9 329.185 263.899 329.187 263.9C329.181 263.899 329.172 263.901 329.169 263.891L329.163 263.876C329.148 263.836 329.134 263.796 329.12 263.755C329.104 263.708 329.092 263.661 329.077 263.614C329.06 263.563 329.039 263.512 329.022 263.461C329.011 263.428 329.001 263.394 328.991 263.36C328.971 263.325 328.95 263.29 328.93 263.254C328.884 263.167 328.84 263.079 328.795 262.991C328.751 262.901 328.705 262.813 328.66 262.723C328.628 262.658 328.596 262.592 328.562 262.528C328.527 262.464 328.507 262.395 328.484 262.326C328.463 262.264 328.442 262.2 328.421 262.139C328.405 262.093 328.391 262.047 328.372 262.003C328.349 261.953 328.324 261.903 328.3 261.853C328.267 261.786 328.235 261.72 328.202 261.652C328.159 261.559 328.115 261.464 328.07 261.372C328.018 261.27 327.97 261.166 327.917 261.064C327.884 260.999 327.854 260.933 327.825 260.865C327.796 260.799 327.77 260.732 327.748 260.663C327.736 260.627 327.727 260.589 327.716 260.551C327.713 260.55 327.704 260.548 327.699 260.539C327.679 260.505 327.661 260.469 327.644 260.433C327.626 260.39 327.623 260.347 327.601 260.306C327.581 260.264 327.559 260.22 327.538 260.179C327.518 260.142 327.499 260.103 327.477 260.067C327.462 260.041 327.449 260.015 327.434 259.989C327.419 259.959 327.41 259.93 327.397 259.9C327.385 259.867 327.368 259.836 327.353 259.805C327.334 259.757 327.312 259.709 327.293 259.66C327.273 259.605 327.253 259.552 327.233 259.496C327.23 259.487 327.222 259.479 327.218 259.47C327.208 259.449 327.194 259.428 327.183 259.407C327.147 259.336 327.111 259.265 327.077 259.194C327.041 259.121 327.004 259.049 326.968 258.978C326.937 258.914 326.901 258.853 326.87 258.79C326.845 258.741 326.823 258.691 326.801 258.64C326.799 258.639 326.796 258.636 326.795 258.634C326.781 258.614 326.767 258.593 326.752 258.574C326.721 258.531 326.69 258.487 326.662 258.442C326.633 258.397 326.603 258.353 326.573 258.309C326.524 258.243 326.471 258.179 326.426 258.11C326.365 258.019 326.308 257.925 326.251 257.831C326.187 257.722 326.123 257.613 326.064 257.502C326.018 257.416 325.969 257.329 325.923 257.243C325.885 257.174 325.848 257.106 325.807 257.038C325.776 256.982 325.747 256.926 325.713 256.871C325.678 256.814 325.646 256.754 325.609 256.699C325.556 256.613 325.507 256.527 325.454 256.442C325.396 256.348 325.338 256.252 325.281 256.157C325.233 256.073 325.186 255.989 325.14 255.903C325.098 255.822 325.061 255.741 325.022 255.658C324.988 255.589 324.951 255.518 324.913 255.451C324.897 255.423 324.878 255.397 324.858 255.373C324.833 255.341 324.813 255.306 324.789 255.272C324.734 255.199 324.68 255.124 324.633 255.045C324.625 255.029 324.614 255.013 324.605 254.999L324.3 255.071L321.165 253.697ZM213.726 260.209V260.451H214.687L213.726 260.209ZM216.373 260.209L216.135 261.174H216.373V260.209ZM314.9 261.174V261.897L315.383 261.174H314.9ZM317.792 261.416V262.139L318.272 261.416H317.792ZM316.105 261.897V262.381H316.586V261.897H316.105ZM214.448 262.381L214.206 263.343L215.412 264.069L214.929 262.381H214.448ZM207.222 265.519C205.485 265.57 203.058 265.855 202.402 267.685L207.222 265.997L206.98 266.72L213.001 267.204C213.641 268.346 214.417 268.404 215.651 268.408L214.687 269.616L221.191 268.892C220.001 267.945 218.067 267.748 216.615 267.319C213.373 266.363 210.644 265.418 207.222 265.519ZM205.774 267.204L204.81 267.446V267.685L205.774 267.927V267.204ZM222.155 267.446V267.685H223.361L222.155 267.446ZM225.111 269.039C224.325 269.013 223.51 269.039 222.639 269.132V269.374L223.841 269.616L224.325 270.82L220.469 271.062V271.304C223.513 272.459 228.957 271.669 232.032 270.82V270.339C229.547 269.669 227.467 269.117 225.111 269.039ZM234.441 270.581L234.202 270.82V271.304C235.347 271.643 236.461 271.711 237.333 270.82L234.441 270.581ZM215.32 271.457C214.61 271.394 213.85 271.482 213.242 271.546C214.319 272.66 215.678 272.298 217.096 272.269C216.688 271.733 216.03 271.52 215.32 271.457ZM245.523 273.474L244.559 273.958L244.801 274.197L245.523 273.474ZM245.281 274.681V275.162H245.762V274.681H245.281ZM239.983 281.192V281.431H240.706L239.983 281.192ZM246.487 281.431L245.281 281.673L245.04 282.639C245.971 282.566 246.33 282.375 246.487 281.431ZM267.686 297.35L267.444 298.073H268.888V298.315L265.999 299.762L265.757 298.796V298.557L267.686 297.35ZM265.035 300.246V300.485H264.071L265.035 300.246ZM186.021 300.485L185.54 301.45H186.504L186.021 302.415L186.985 302.173L186.021 300.485ZM268.408 300.727V300.969H267.686L268.408 300.727ZM187.949 301.208L187.707 301.692H188.191L187.949 301.208ZM354.925 341.242C354.86 341.412 354.798 341.584 354.735 341.755C354.738 342.013 354.733 342.27 354.75 342.53C354.793 342.099 354.861 341.67 354.925 341.242ZM357.227 342.801C357.215 342.915 357.198 343.029 357.187 343.143C357.157 343.426 357.127 343.708 357.097 343.991C357.156 343.677 357.212 343.362 357.27 343.048C357.252 342.969 357.238 342.888 357.227 342.801ZM356.885 353.107C356.886 353.423 356.889 353.739 356.89 354.055C356.954 353.755 357.01 353.452 357.075 353.153C357.01 353.144 356.947 353.128 356.885 353.107ZM223.841 374.767L224.083 375.733H223.841V374.767ZM224.325 375.491H224.806L224.564 376.214H224.325V375.491ZM224.806 379.348H225.286V379.832H224.806V379.348ZM223.119 380.556H224.325V381.521C223.748 381.322 222.842 381.282 223.119 380.556ZM223.119 381.521V382.002H222.639L223.119 381.521ZM222.877 383.448V384.656L223.603 383.448H222.877ZM223.841 386.344L224.564 387.548L224.325 386.344H223.841ZM227.937 386.583V386.825L226.973 387.067L227.937 386.583ZM232.754 387.548L231.551 389.237H233.238V389.479L232.032 389.96L232.754 390.925L231.551 390.683V389.721H231.31L231.068 391.167H230.829L230.107 390.444V390.202H230.829C230.835 388.597 231.165 387.99 232.754 387.548ZM229.381 387.79V388.032L227.698 388.271L229.381 387.79ZM225.286 388.756V388.995L226.725 389.237L225.286 388.756ZM231.551 391.006C231.738 391.006 231.59 391.126 231.471 391.086L231.551 391.006ZM241.186 391.409V391.648H241.909L241.186 391.409ZM232.996 391.729C233.182 391.729 233.034 391.849 232.915 391.81L232.996 391.729ZM231.068 392.132V392.371H232.032L231.068 392.132ZM246.004 405.878V406.092C246.036 406.047 246.068 406.003 246.102 405.959C246.117 405.94 246.133 405.921 246.148 405.901L246.004 405.878ZM232.274 418.901V418.962C232.275 418.943 232.277 418.923 232.279 418.904L232.274 418.901ZM230.829 419.625L229.381 419.867V420.109L230.829 420.348V419.625ZM232.032 421.071L229.142 421.794V422.036C230.238 422.027 231.367 422.043 232.032 421.071ZM230.829 422.759C231.011 423.315 231.353 423.535 231.767 423.693C231.776 423.624 231.786 423.554 231.796 423.485C231.8 423.433 231.805 423.38 231.802 423.327V423.068V422.814C231.713 422.87 231.618 422.917 231.551 423.001L230.829 422.759ZM210.834 424.932L210.111 425.655H209.87C209.219 424.752 206.534 425.281 206.016 426.136H211.798L211.556 425.171L210.834 425.655V424.932ZM231.068 425.171L230.829 425.894L231.724 426.194C231.723 426.06 231.722 425.926 231.727 425.793C231.727 425.78 231.73 425.766 231.73 425.753C231.73 425.751 231.73 425.75 231.73 425.747C231.729 425.737 231.729 425.727 231.73 425.715C231.73 425.714 231.73 425.711 231.73 425.709C231.73 425.704 231.733 425.698 231.733 425.692C231.734 425.659 231.733 425.627 231.736 425.594C231.737 425.55 231.74 425.508 231.742 425.465V425.318V425.225C231.739 425.206 231.736 425.187 231.736 425.171L231.068 425.171ZM215.893 425.655L216.373 426.859L206.258 427.101C207.346 428.409 209.029 428.066 210.592 428.066V428.308L208.183 428.548V428.79L213.726 430.72V430.959L210.592 431.037L205.294 431.924C204.987 430.891 204.41 430.595 203.366 430.478L204.33 431.682L200.957 430.478L201.679 431.443L199.754 431.682C199.469 432.907 195.442 434.025 194.211 434.094L194.453 435.782C196.205 437.831 196.801 438.299 199.512 438.92L199.27 439.643H200.234V439.882H198.548V440.124L207.461 442.288L212.52 444.287L220.952 446.154V446.396L220.23 446.636V446.878H227.214V447.12L225.286 447.843V448.082C229.095 448.114 232.874 448.484 236.665 448.765C236.604 448.64 236.553 448.496 236.516 448.327C236.497 448.247 236.508 448.161 236.49 448.082C236.476 447.978 236.448 447.875 236.423 447.774C236.369 447.592 236.316 447.411 236.254 447.232C236.189 447.054 236.12 446.876 236.052 446.699C235.989 446.541 235.926 446.386 235.865 446.227C235.804 446.07 235.761 445.907 235.707 445.748C235.658 445.6 235.607 445.452 235.554 445.305C235.519 445.201 235.484 445.098 235.445 444.996C235.406 444.892 235.373 444.784 235.341 444.676C235.313 444.564 235.281 444.452 235.252 444.339C235.21 444.194 235.176 444.047 235.134 443.901C235.087 443.743 235.053 443.58 235.01 443.42C234.97 443.27 234.936 443.12 234.904 442.968C234.875 442.81 234.84 442.653 234.809 442.495C234.777 442.344 234.747 442.194 234.714 442.043C234.682 441.891 234.649 441.737 234.616 441.585C234.581 441.389 234.531 441.197 234.487 441.003C234.442 440.808 234.398 440.613 234.354 440.418C234.32 440.245 234.276 440.074 234.236 439.902C234.221 439.841 234.203 439.78 234.187 439.718C234.177 439.694 234.172 439.663 234.164 439.637C234.149 439.586 234.139 439.535 234.124 439.485C234.078 439.322 234.03 439.162 233.98 439C233.941 438.891 233.903 438.782 233.865 438.672C233.582 438.565 233.334 438.295 233.35 437.707C233.354 437.559 233.338 437.412 233.324 437.266C233.319 437.218 233.315 437.17 233.309 437.122C233.286 437.062 233.263 437.003 233.24 436.943C233.153 436.715 233.062 436.488 232.972 436.26C232.972 436.259 232.971 436.256 232.969 436.254C231.541 436.215 230.157 435.986 229.139 434.82C230.287 435.314 231.453 435.589 232.659 435.396C232.617 435.267 232.579 435.137 232.541 435.007C232.503 434.877 232.466 434.748 232.428 434.618L230.342 434.094V433.855C230.86 433.92 231.601 434.046 232.305 434.154C232.271 434.012 232.24 433.871 232.212 433.728C232.176 433.514 232.146 433.298 232.123 433.082C232.101 432.922 232.083 432.763 232.072 432.601C232.058 432.463 232.064 432.324 232.054 432.186C232.041 432.041 232.033 431.894 232.028 431.748C232.017 431.571 232.007 431.396 232 431.218C231.998 431.187 231.998 431.154 231.997 431.123C231.992 431.003 232.001 430.895 232.017 430.795C231.956 430.639 231.917 430.451 231.916 430.224C231.916 430.135 231.917 430.048 231.916 429.959C231.916 429.797 231.916 429.634 231.91 429.472C231.906 429.278 231.897 429.084 231.884 428.89C231.874 428.741 231.867 428.59 231.858 428.441C231.857 428.423 231.855 428.405 231.855 428.389C231.838 428.318 231.805 428.272 231.801 428.184C231.789 427.952 231.779 427.72 231.775 427.487C231.767 427.201 231.762 426.914 231.758 426.629C231.757 426.597 231.758 426.565 231.758 426.534L226.488 425.655L226.008 426.136L226.246 427.101L219.262 426.62C218.877 425.474 217.791 425.798 217.576 426.859H216.853V426.62L215.893 425.655ZM199.754 430.72V431.201H200.234V430.72H199.754ZM193.489 430.959C194.179 431.949 195.721 432.073 196.862 432.166V431.924L196.139 431.682V431.443L198.306 432.166L198.111 431.169L193.489 430.959ZM198.111 431.169L198.79 431.201L198.067 430.959L198.111 431.169ZM235.943 431.331C235.927 431.493 235.911 431.655 235.897 431.818L235.931 431.821C235.933 431.657 235.94 431.494 235.943 431.331ZM293.673 432.002C293.608 432.232 293.545 432.461 293.48 432.691C293.49 432.67 293.501 432.65 293.511 432.63C293.554 432.478 293.598 432.327 293.641 432.175C293.645 432.159 293.651 432.142 293.656 432.126C293.656 432.123 293.655 432.12 293.656 432.117C293.662 432.079 293.667 432.04 293.673 432.002ZM194.211 433.371V433.613H194.933L194.211 433.371ZM204.81 442.536V442.778L207.461 443.501L204.81 442.536Z" fill="url(#paint1_linear_140_570)"/>
<path d="M262.957 471.134L214.154 466.923C205.926 466.213 197.91 463.929 190.542 460.194L161.936 445.696C151.026 440.166 141.456 432.317 133.894 422.696L121.368 406.759C114.879 398.503 109.67 389.317 105.914 379.508L101.716 368.543C97.5295 357.61 95.3091 346.021 95.1572 334.313L95.0142 323.297C94.7945 306.355 97.1184 289.476 101.908 273.226C105.706 260.511 110.814 248.227 117.152 236.571L121.797 227.954C128.119 216.226 135.303 204.985 143.29 194.324L151.329 183.592C160.49 171.363 168.824 158.532 176.272 145.187L186.096 127.589C189.924 120.729 193.533 113.749 196.916 106.659L209.11 81.0959C212.613 73.753 215.676 66.2075 218.282 58.4996L227.669 30.7336C229.129 26.4154 230.559 22.0873 231.961 17.7497L237.603 0.291077L236.542 63.498C236.311 77.2571 234.995 90.9764 232.606 104.528L232.265 106.462C229.263 123.496 224.294 140.123 217.459 156.009L208.033 177.915L247.898 170.291C263.031 167.397 278.474 166.481 293.842 167.564L320.68 169.456L278.418 182.334C263.435 186.899 248.845 192.664 234.787 199.573L226.558 203.617C220.33 206.678 214.469 210.437 209.087 214.821L204.416 218.626C199.759 222.42 195.417 226.585 191.432 231.08L186.02 237.185C181.84 241.901 177.874 246.803 174.134 251.875L161.36 269.202C158.194 273.497 155.487 278.113 153.286 282.974C148.929 293.974 146.352 305.6 145.652 317.412L145.398 319.765C144.241 330.513 144.616 341.372 146.511 352.015L147.088 355.256C148.614 363.824 150.584 372.307 152.99 380.67L155.284 388.646C157.31 395.686 160.389 402.378 164.418 408.493L170.655 417.961C177.775 428.768 187.366 437.72 198.632 444.074L213.812 452.636C217.973 454.983 222.335 456.956 226.845 458.53L262.957 471.134Z" fill="url(#paint2_linear_140_570)"/>
<path d="M259.959 471.4L254.408 467.752C247.655 463.315 242.397 458.342 238.845 453.037C232.642 441.735 230.434 429.967 232.324 418.276C233 411.904 234.645 405.568 237.242 399.323L241.29 388.044C244.005 380.481 249.077 373.185 256.316 366.428L258.329 364.548C261.516 361.574 265.162 358.732 269.234 356.048L299.156 336.332C303.385 333.545 306.787 330.461 309.253 327.176C320.732 310 328.054 292.182 331.057 274.112C330.741 266.463 327.73 258.904 322.164 251.791C319.657 247.647 316.021 243.699 311.361 240.063L280.93 212.764L316.548 235.743C326.826 242.373 335.044 249.759 340.92 257.645L343.013 260.455C353.39 274.384 361.079 288.789 365.972 303.468C368.742 313.704 369.811 324.04 369.168 334.367C368.937 343.27 367.367 352.151 364.471 360.933C360.951 372.5 354.986 383.843 346.679 394.765C342.184 400.392 337.048 405.882 331.294 411.207C325.436 416.853 318.272 422.127 309.954 426.917L298.644 433.429L310.243 428.561C322.525 423.405 332.869 417.169 340.777 410.153C345.295 405.737 349.068 401.135 352.057 396.398C358.68 386.832 364.283 377.093 368.842 367.223C373.841 356.329 376.24 345.171 375.989 333.988C375.473 322.422 373.683 310.88 370.629 299.414L369.471 294.037L379.021 306.077C382.356 310.282 385.072 314.606 387.148 319.014C389.177 323.382 390.946 327.781 392.451 332.203C396.487 344.417 397.448 356.84 395.31 369.176L394.744 372.769C392.965 384.048 389.279 395.229 383.724 406.189C378.532 416.427 370.972 426.318 361.2 435.658C351.528 444.908 339.29 453.409 324.86 460.903C315.885 465.563 304.271 468.697 291.625 469.869L282.324 470.731C278.777 471.059 275.182 471.243 271.576 471.28L259.959 471.4Z" fill="url(#paint3_linear_140_570)"/>
<defs>
<radialGradient id="paint0_radial_140_570" cx="0" cy="0" r="1" gradientUnits="userSpaceOnUse" gradientTransform="translate(291.016 92.896) scale(26.0495 26.0797)">
<stop stop-color="#015396" stop-opacity="0"/>
<stop offset="1" stop-color="#015396"/>
</radialGradient>
<linearGradient id="paint1_linear_140_570" x1="254.89" y1="277.631" x2="287.536" y2="213.08" gradientUnits="userSpaceOnUse">
<stop stop-color="#065798"/>
<stop offset="1" stop-color="#065798" stop-opacity="0"/>
</linearGradient>
<linearGradient id="paint2_linear_140_570" x1="225.432" y1="119.085" x2="305.758" y2="97.2025" gradientUnits="userSpaceOnUse">
<stop stop-color="#015396"/>
<stop offset="1" stop-color="#015396" stop-opacity="0"/>
</linearGradient>
<linearGradient id="paint3_linear_140_570" x1="364.327" y1="397.439" x2="381.064" y2="245.863" gradientUnits="userSpaceOnUse">
<stop stop-color="#2E5617"/>
<stop offset="1" stop-color="#2E5617" stop-opacity="0.220564"/>
</linearGradient>
</defs>
</svg>
