<?xml version="1.0" encoding="UTF-8" standalone="no"?>
<svg
   width="94"
   height="96"
   viewBox="0 0 94 96"
   fill="none"
   version="1.1"
   id="svg17"
   sodipodi:docname="favicon.svg"
   inkscape:version="1.4 (e7c3feb100, 2024-10-09)"
   xmlns:inkscape="http://www.inkscape.org/namespaces/inkscape"
   xmlns:sodipodi="http://sodipodi.sourceforge.net/DTD/sodipodi-0.dtd"
   xmlns="http://www.w3.org/2000/svg"
   xmlns:svg="http://www.w3.org/2000/svg">
  <sodipodi:namedview
     id="namedview17"
     pagecolor="#ffffff"
     bordercolor="#000000"
     borderopacity="0.25"
     inkscape:showpageshadow="2"
     inkscape:pageopacity="0.0"
     inkscape:pagecheckerboard="0"
     inkscape:deskcolor="#d1d1d1"
     inkscape:zoom="4.827421"
     inkscape:cx="-25.065143"
     inkscape:cy="28.897417"
     inkscape:window-width="1920"
     inkscape:window-height="1012"
     inkscape:window-x="0"
     inkscape:window-y="31"
     inkscape:window-maximized="1"
     inkscape:current-layer="svg17" />
  <rect
     width="85.020149"
     height="83.418213"
     rx="41.038239"
     fill="#ffffff"
     id="rect1"
     x="3.417973"
     y="4.7644491"
     style="stroke-width:0.174567" />
  <path
     d="m 45.519053,83.893314 c 11.408631,0 20.657126,-9.369593 20.657126,-20.927413 0,-11.557823 -9.248495,-20.927238 -20.657126,-20.927238 -11.40863,0 -20.657126,9.369415 -20.657126,20.927238 0,11.55782 9.248496,20.927413 20.657126,20.927413 z"
     fill="#ffffff"
     id="path1"
     style="stroke-width:0.174567" />
  <path
     d="m 51.395834,28.07104 c 2.491211,0 4.510569,-2.055009 4.510569,-4.589762 0,-2.534823 -2.019358,-4.589709 -4.510569,-4.589709 -2.491212,0 -4.510744,2.054886 -4.510744,4.589709 0,2.534753 2.019532,4.589762 4.510744,4.589762 z"
     fill="#ffffff"
     id="path2"
     style="stroke-width:0.174567" />
  <path
     d="m 45.389877,42.196699 v 0.04258 l 0.583541,0.127248 -0.04139,0.12725 0.500422,0.127249 -0.167088,-0.04206 c 0.02112,0.303755 0.282073,0.385412 0.507867,0.536585 0.516876,0.345993 1.16154,0.623702 1.786465,0.651507 l -0.208305,-0.721551 c 0.18788,-0.0456 0.406226,-0.01535 0.417133,-0.254478 l 0.417135,-0.04258 c -0.24623,-0.225269 -0.68397,-0.256594 -1.001194,-0.315019 -0.916868,-0.168413 -1.864036,-0.236706 -2.794582,-0.236706 z m -1.585598,0.09944 c -0.29731,-0.02007 -0.607956,0.01477 -0.833753,0.04611 -0.160681,0.02218 -0.38995,-0.02007 -0.50077,0.108931 l -0.208308,-0.04206 v 0.04206 h 0.166398 v 0.04258 l -0.166398,0.04258 v 0.0426 h 0.166398 c -0.203112,0.200625 -0.371941,0.160663 -0.625443,0.127249 v -0.04258 l 0.375232,-0.169831 v -0.04258 l -1.042406,0.382421 v 0.04207 h -0.125542 l 0.125542,-0.04207 -0.250732,-0.04258 v 0.04258 l -0.750463,0.169833 v -0.08519 l 0.750463,-0.127248 0.208828,-0.127422 v -0.04258 c -0.503022,0.06618 -1.134874,0.184083 -1.585081,0.424483 v 0.04258 l 0.166916,-0.04258 v 0.04258 l -0.459038,0.08465 v -0.04206 h 0.08328 v -0.04258 c -0.469948,0.07059 -0.933316,0.296892 -1.376424,0.464962 -1.066476,0.404595 -2.109227,0.891026 -3.086527,1.487622 -0.470468,0.287389 -1.103185,0.595897 -1.376426,1.103445 l -0.125541,-0.04258 c -0.06943,0.381892 -0.5967,0.531835 -0.500253,0.933968 -0.269085,0.143265 -0.418346,0.418851 -0.626481,0.63637 -0.717737,0.750061 -1.096951,1.367074 -1.334001,2.377069 0.428562,0.148003 0.207613,0.496284 0.221813,0.848789 0.0096,0.234942 0.171423,0.370982 -0.09662,0.509131 l 0.276532,0.321354 0.0218,0.345816 0.243806,0.351448 c 0.146661,-0.08325 0.196879,-0.254126 0,-0.297067 l -0.04192,-1.103444 v -0.04258 l -0.125024,0.04258 c -0.03585,-0.260461 0.03031,-0.517754 0.333848,-0.466895 l -0.125197,0.509483 0.417135,0.424485 -0.08363,0.211889 c 0.222162,0.180036 0.513758,0.465134 0.559991,0.764138 0.0348,0.224561 -0.208308,0.467072 -0.0058,0.644994 0.397568,0.352856 1.505599,0.656084 2.032172,0.615606 0.230991,-0.01785 0.430988,-0.219808 0.667692,-0.181091 0.292464,0.04768 0.475144,0.334377 0.750463,0.420786 0.429084,0.134979 0.900245,0.09821 1.335043,0.112634 l -0.0838,0.127248 0.472028,0.355493 0.09714,0.287037 0.223718,-0.0056 h 0.04189 0.04139 l 0.333849,0.211891 -0.04189,0.127422 h 0.208827 v 0.08519 c 0.280343,-0.05278 0.540423,0.0063 0.750984,0.21189 l 0.250212,-0.08465 -0.125196,-0.212417 0.792369,-0.08483 0.209345,0.551722 0.0826,0.636901 v 0.04206 c -0.230124,0.201857 -0.577824,0.395969 -0.62579,0.721548 L 39.4664,57.179694 c -0.0031,0.212772 -0.13939,0.374326 -0.291943,0.509132 v 0.339657 l 0.208655,0.211889 0.208307,-0.169832 -0.515142,0.552779 0.01477,0.508604 c 0.879638,0.294252 1.315994,1.572273 1.784557,2.286256 0.439301,0.66946 1.559108,0.48696 2.017108,1.159584 0.300079,0.4405 0.0528,0.980429 0.02891,1.435005 -0.03965,0.755339 -0.238265,1.466858 -0.291077,2.20724 -0.01458,0.204147 0.101815,0.386996 0.07134,0.594134 -0.07273,0.49435 -0.381811,0.912497 -0.440513,1.40051 l -0.166934,0.04258 c 0.04157,0.198162 0.163616,0.430818 0.152913,0.632851 -0.01649,0.315021 -0.186845,0.440323 -0.02789,0.76766 -0.178347,0.0389 -0.136628,0.304457 -0.166935,0.46707 0.283805,-0.02305 0.255579,-0.27542 0.208828,-0.509659 l 0.208309,-0.08465 0.125023,0.21242 -0.291946,1.060854 0.0419,-0.297244 -0.125196,0.04258 0.08328,-0.12725 -0.25021,0.04258 c 0.05091,0.337545 -0.119998,0.491184 -0.291944,0.763611 l 0.04174,0.04258 0.417134,-0.04258 v 0.382247 l -0.125024,0.04224 -0.04189,-0.127422 c -0.284149,0.151168 -0.139045,0.444017 -0.04189,0.679491 l 0.208829,0.04206 0.166916,-0.211888 v 0.04206 c -0.150995,0.122493 -0.246055,0.368697 -0.166916,0.552251 l -0.125024,0.127248 0.208308,-0.169831 0.166915,0.04258 -0.08329,0.211891 0.208309,-0.04258 -0.166936,0.08519 c 0.05973,0.157498 0.130051,0.182492 0.292117,0.169832 v 0.04206 l -0.08328,0.04258 0.166916,0.170004 -0.125024,-0.04258 -0.04189,0.127248 0.250212,0.04258 v 0.08465 l 0.166914,-0.04206 -0.04189,-0.08519 v -0.04206 h -0.166423 l 0.166399,-0.04258 v 0.04258 l 0.166934,0.04206 -0.08311,0.169831 h 0.208135 v 0.04258 l -0.125024,0.08465 0.542156,0.04258 c 0.06736,0.193412 0.323804,0.19517 0.500771,0.254654 l -0.291901,-0.212112 v -0.04258 l 0.542156,0.12725 v -0.12725 h 0.500769 l -0.04174,-0.127248 c -0.347007,0.02114 -0.595661,-0.26187 -0.876176,-0.424306 l 0.04189,-0.127422 -0.333847,-0.169831 0.291944,0.04258 c -0.06251,-0.134998 -0.202075,-0.267854 -0.20225,-0.424308 -1.72e-4,-0.137972 0.391162,-0.599766 0.500253,-0.707998 0.125196,-0.12372 0.352201,-0.19429 0.381293,-0.393862 0.03827,-0.262572 -0.494537,-0.170004 -0.487438,-0.47059 0.0059,-0.250783 0.325015,-0.340185 0.517392,-0.33772 0.09731,-0.2536 0.134538,-0.491008 0.375233,-0.636901 l -0.16659,-0.127248 0.417136,0.04258 c -0.05542,-0.342281 -0.518092,-0.09396 -0.458871,-0.636885 0.489342,0.162102 1.121712,0.114742 0.834097,-0.594133 0.426486,0.10331 1.838408,0.02286 1.810359,-0.670337 -0.01458,-0.361302 -0.430816,-0.519341 -0.517222,-0.815353 0.367614,0.227378 1.076865,0.426772 1.456077,0.142364 0.273938,-0.205025 0.461467,-0.589559 0.754447,-0.736156 v -0.04258 H 49.14365 l 0.500771,-0.467073 -0.333846,0.381895 v 0.04258 c 0.335578,-0.116143 0.440684,-0.43469 0.671329,-0.677376 0.107359,-0.11317 0.264412,-0.19781 0.329346,-0.345817 0.09195,-0.209777 0.01343,-0.455984 0.100607,-0.672451 0.135573,-0.336134 0.729165,-0.644818 1.067861,-0.553655 0.215233,-0.380135 0.620593,-0.18673 0.955306,-0.268735 0.166762,-0.04084 0.292636,-0.189184 0.463024,-0.240928 l 0.44103,-0.810248 0.281033,-0.929917 0.0703,-0.976028 c 0.271856,0.105957 0.353586,-0.203618 0.509254,-0.38031 0.326747,-0.371334 0.752196,-0.579704 0.693148,-1.147441 -0.0651,-0.624756 -0.368305,-0.496463 -0.785441,-0.762555 -0.28415,-0.181436 -0.507003,-0.436979 -0.834096,-0.548732 -0.203635,-0.06951 -0.41783,-0.02659 -0.625965,-0.07144 -0.332114,-0.07162 -0.591331,-0.190778 -0.917385,-0.01823 0.126404,-0.316782 -0.179211,-0.383832 -0.417136,-0.474995 -0.503368,-0.193235 -0.753753,-0.199746 -1.126214,0.220515 l -0.166935,-0.08465 v -0.04258 c 0.248656,-0.03063 0.387701,-0.114378 0.417136,-0.381893 L 49.810816,57.13707 v -0.04258 h 0.0838 v -0.04258 l -0.125023,-0.04206 c 0.278262,-0.173534 -0.229954,-0.694978 -0.33402,-0.976558 l -0.125024,0.04258 C 48.94484,55.48613 48.15334,55.667574 47.600275,55.564619 c -0.225104,-0.0417 -0.3922,-0.194465 -0.62579,-0.210305 -0.06736,-0.434515 -0.609512,-0.509132 -0.959289,-0.42448 l 0.125024,-0.12725 -0.667174,-0.424481 h 0.208826 v -0.04258 l -1.043099,0.153278 -0.912365,-0.0938 -0.672713,-0.229313 0.04189,-0.127249 h -0.167088 l 0.04189,0.169832 -0.458866,0.127249 c 0.03169,0.228256 0.155482,0.371335 -0.0838,0.509661 l -0.04139,-0.679489 0.250212,-0.08465 v -0.08519 c -0.249867,-0.06125 -0.444148,0.123547 -0.667175,0.221567 -0.362938,0.159455 -0.847777,0.05931 -0.876174,0.58516 -0.219564,0.03378 -0.380772,0.152587 -0.416962,0.381894 h -0.04189 c -0.359461,-0.620182 -1.237542,-0.241278 -1.752165,-0.127422 -0.122088,-0.215761 -0.42389,-0.328392 -0.460425,-0.594134 -0.03827,-0.279116 0.317053,-0.714335 0.167454,-0.956317 -0.266491,-0.431522 -1.307163,-0.07989 -1.708714,-0.06247 0.18251,-0.224738 0.278264,-0.425186 0.291422,-0.72155 l 0.125715,0.08519 c 0.09731,-0.195876 0.150479,-0.480799 0.37523,-0.551548 v -0.297243 c -0.302158,0.0732 -0.622153,0.06405 -0.917041,0.180573 -0.293154,0.115798 -0.326573,0.526556 -0.626308,0.672272 -0.79912,0.388757 -1.907326,-0.02094 -1.482917,-1.065253 0.103539,-0.255006 0.206401,-0.516524 0.312375,-0.764139 0.172478,-0.402485 0.662325,-0.360775 0.836695,-0.72155 h 1.626984 l -0.125023,-0.08465 c 0.06841,-0.115971 0.111519,-0.07901 0,-0.169831 0.490552,-0.102951 0.858859,-0.05192 1.334521,-0.01937 0.14267,0.0096 0.274974,-0.102063 0.412459,-0.02886 0.238957,0.127057 0.314801,1.198827 0.781979,0.99785 0.522935,-0.224912 -0.149614,-0.96459 -0.02753,-1.288936 0.179384,-0.476047 1.136431,-0.854068 1.586294,-0.976556 l -0.04189,-0.127248 0.291943,-0.12725 h -0.166915 v -0.04258 l 0.125197,-0.04206 -0.04139,-0.6369 h 0.04139 l 0.08363,0.212418 -0.08363,0.211888 c 0.180611,-0.08924 0.320859,-0.215409 0.250559,-0.424306 0.233068,0.0094 0.370381,-0.109123 0.417134,-0.339658 l 0.458521,-0.04224 v -0.04258 h -0.208308 v -0.04258 l 0.750981,-0.08465 c -0.198263,-0.574249 1.081023,-0.791243 1.501447,-0.848789 v 0.04206 l -0.375233,0.297245 c 0.256101,0.08148 1.248118,-0.188302 1.334349,-0.466545 h 0.0419 c 0.08538,0.09593 0.145624,0.05754 0.208827,-0.04258 l -0.125522,-0.127258 -0.292117,0.25448 h -0.291425 l 0.166399,-0.12725 v -0.04258 l -0.542154,-0.08465 0.333847,0.25448 c -0.233702,-0.08568 -0.454306,-0.133214 -0.458808,-0.42429 h -0.292116 v -0.04258 l 0.417136,-0.08483 v -0.08519 c -0.427006,-0.145893 -0.964311,0.01823 -1.334522,0.255182 v 0.04207 l -0.166917,0.04258 0.166917,-0.08465 c 0.789079,-0.869022 2.235805,-0.328389 3.21172,-0.84896 -0.0717,-0.275948 -0.255407,-0.304107 -0.500945,-0.382246 l 0.04189,-0.08465 -0.917388,-0.297241 c 0.01246,-0.21805 -0.393585,-0.637606 -0.62579,-0.580056 -0.170196,0.04224 -0.272029,0.21787 -0.45904,0.241454 -0.258349,0.03256 -0.400857,-0.145893 -0.333327,-0.382773 -0.415229,0.02815 -0.895741,-0.34036 -1.322573,-0.138508 -0.18579,0.08799 -0.237053,0.393509 -0.429603,0.520219 v 0.08519 c 0.492631,0.345637 -0.287616,0.595716 -0.584058,0.63637 l 0.08328,0.467071 c -0.360686,0.186539 -0.547524,0.129704 -0.612459,-0.08483 h 0.15393 l -0.171769,-0.06986 c -0.01553,-0.09679 -0.01362,-0.215937 0.0049,-0.354967 l -1.66837,-0.169295 0.08329,-0.255183 -0.20831,0.04258 c 0.474798,-0.669634 1.653305,-0.878177 2.377448,-1.145856 v 0.04258 l -0.375748,0.16984 v 0.04206 l 1.043097,-0.08465 v -0.04258 L 41.88565,43.088143 h -0.04139 l 0.166397,-0.04258 h 0.0419 0.04189 l 0.542123,-0.339305 h 0.166915 V 42.57901 l 0.584061,-0.0426 -0.20883,0.212066 v 0.04258 l 0.58406,-0.08483 v 0.08483 l -1.001195,0.381718 0.625965,-0.05631 1.167598,0.311325 -0.291596,-0.169831 v -0.04258 c 0.217484,0.02975 0.458172,0.158573 0.583539,-0.08465 l -0.417161,-0.169821 v -0.08519 l 0.04189,-0.04206 c 0.325364,0.112633 0.509947,0.220689 0.792887,-0.04258 L 44.429901,42.62107 v -0.04206 h 0.125196 c -0.170555,-0.187786 -0.45384,-0.262928 -0.750975,-0.282814 z m -0.333329,0.282814 0.04174,0.08465 h -0.08363 z m -1.501445,0.212063 v 0.04258 l -0.167088,0.04206 z m 8.217171,0.297068 c 0.226318,0.274013 1.039289,0.49875 1.376428,0.424483 v -0.08483 C 51.143544,43.18734 50.651085,43.158653 50.186676,43.08808 Z m -8.885037,0.0142 0.014,0.014 c -0.02062,0.0071 -0.04553,-0.014 -0.014,-0.014 z m 1.335042,0.15556 v 0.08465 l 0.08329,-0.08465 z m -0.667176,0.169832 -0.33402,0.04224 v 0.04258 z m 12.38818,1.230683 0.667695,0.551721 h -0.166916 l 0.125023,0.08519 v 0.04206 h -0.125023 v 0.04258 c 0.277743,0.164556 0.53644,0.572665 0.876002,0.424482 v -0.08483 l -0.375579,-0.339659 1.059897,0.864454 0.07774,0.01012 c -0.0052,-0.0069 -0.01036,-0.01382 -0.01535,-0.02078 -0.0058,-0.0081 -0.01208,-0.01631 -0.01746,-0.0243 -0.0033,-0.0043 -0.0058,-0.0092 -0.0085,-0.01362 l -5.21e-4,-5.25e-4 c -0.0081,-0.0059 -0.01535,-0.01247 -0.02286,-0.0188 -0.0085,-0.0067 -0.01668,-0.01362 -0.02442,-0.02129 -0.0073,-0.0067 -0.0142,-0.01344 -0.02095,-0.02078 -0.0035,-0.0035 -0.0058,-0.0071 -0.009,-0.01055 h -5.21e-4 c -0.01074,-1.74e-4 -0.02405,-0.0049 -0.03792,-0.01573 -0.0036,-0.0029 -0.0073,-0.0063 -0.01094,-0.0096 -0.0038,-0.0036 -0.0076,-0.0069 -0.0115,-0.01012 -0.0035,-0.0029 -0.0067,-0.0052 -0.01012,-0.0081 -0.0031,-0.0027 -0.0058,-0.0054 -0.009,-0.0081 -0.0025,-0.0023 -0.0049,-0.0043 -0.0074,-0.0067 -0.004,-0.0035 -0.0081,-0.0067 -0.01208,-0.01055 -0.0042,-0.0043 -0.0083,-0.0096 -0.01246,-0.0142 -0.0058,-0.0066 -0.0117,-0.01285 -0.01727,-0.01918 -0.0056,-0.0061 -0.01056,-0.01266 -0.01611,-0.01879 -0.0059,-0.0071 -0.01246,-0.01382 -0.0188,-0.02078 -0.0058,-0.0061 -0.01246,-0.01227 -0.01841,-0.01823 -0.0058,-0.0058 -0.0117,-0.01208 -0.01746,-0.01785 -0.0052,-0.0049 -0.01012,-0.0096 -0.01535,-0.014 -0.0049,-0.0042 -0.0098,-0.0085 -0.01458,-0.01266 -0.0031,-0.0027 -0.0056,-0.0054 -0.0085,-0.0081 -0.0081,-0.0027 -0.01707,-0.0074 -0.0258,-0.01631 -0.004,-0.0042 -0.0074,-0.0085 -0.0115,-0.01246 -0.0058,-0.0058 -0.0115,-0.01208 -0.01707,-0.01785 -0.0073,-0.0076 -0.0142,-0.01553 -0.02095,-0.02342 -0.0066,-0.0076 -0.01266,-0.01553 -0.01939,-0.02323 -0.0046,-0.0056 -0.0094,-0.01132 -0.014,-0.01687 -0.0029,-0.0035 -0.0056,-0.0069 -0.0085,-0.01012 -0.004,-0.0043 -0.0085,-0.0087 -0.01285,-0.01266 -0.0073,-0.0067 -0.01477,-0.01323 -0.02233,-0.01989 -0.0066,-0.0056 -0.01324,-0.01132 -0.01993,-0.01669 -0.0063,-0.0051 -0.01285,-0.01002 -0.01956,-0.01458 -0.0071,-0.0052 -0.01439,-0.01012 -0.0218,-0.01477 -0.0085,-0.0051 -0.01727,-0.01074 -0.02545,-0.01611 -0.0061,-0.0043 -0.01208,-0.0087 -0.01803,-0.01304 -0.0035,-0.0027 -0.0066,-0.0058 -0.01002,-0.0087 -0.0036,-0.0033 -0.0021,-0.0059 -0.0043,-0.0092 -0.0035,-1.76e-4 -0.0076,-0.0029 -0.01343,-0.0087 -0.0023,-0.0021 -0.0042,-0.0042 -0.0063,-0.0066 -0.0029,-0.0031 -0.0054,-0.0061 -0.0081,-0.0092 -0.0018,-0.0025 -0.0027,-0.0035 -0.0043,-0.0051 -0.0038,-0.0038 -0.0076,-0.0071 -0.0115,-0.01074 -0.0046,-0.0042 -0.0092,-0.0083 -0.01344,-0.01266 -0.0051,-0.0046 -0.01036,-0.01002 -0.01535,-0.01458 -0.0054,-0.0051 -0.01036,-0.01036 -0.01591,-0.01515 -0.0038,-0.0035 -0.0076,-0.0066 -0.0115,-0.0098 -0.004,-0.0033 -0.0078,-0.0066 -0.01227,-0.0098 -0.0038,-0.0033 -0.0074,-0.0066 -0.0115,-0.0098 -0.0042,-0.0035 -0.0087,-0.0066 -0.01285,-0.01012 -0.0035,-0.0031 -0.0071,-0.0059 -0.01036,-0.0092 -0.0035,-0.0029 -0.0063,-0.0056 -0.0096,-0.0087 -0.0035,-0.0033 -0.0067,-0.0063 -0.01002,-0.0098 -0.0051,-0.0049 -0.0096,-0.0098 -0.01458,-0.01458 -0.004,-0.0043 -0.0083,-0.0089 -0.01246,-0.01304 -0.0035,-0.0038 -0.0063,-0.0076 -0.01002,-0.01132 -0.0029,-0.0027 -0.0058,-0.0049 -0.0085,-0.0074 -0.0021,-0.0018 -0.0043,-0.0038 -0.0066,-0.0056 -0.0033,-0.0025 -0.0066,-0.0046 -0.01002,-0.0071 -0.0036,-0.0033 -0.0073,-0.0066 -0.01094,-0.0098 -0.0058,-0.0046 -0.01094,-0.0098 -0.01649,-0.01458 -0.0058,-0.0051 -0.0117,-0.01036 -0.01707,-0.01591 -0.0054,-0.0049 -0.01074,-0.01012 -0.01591,-0.01515 -0.0038,-0.0038 -0.0076,-0.0071 -0.0115,-0.01056 -0.0025,-0.0025 -0.0046,-0.0049 -0.0071,-0.0067 -0.002,-0.0015 -0.0023,-0.0021 -0.004,-0.0036 -1.72e-4,-5.27e-4 -5.19e-4,-0.0011 -0.001,-0.0015 -1.74e-4,-1.75e-4 -6.94e-4,3.52e-4 -8.64e-4,-5.25e-4 l -5.21e-4,-5.3e-4 c -0.0036,-0.0027 -0.0069,-0.0052 -0.01012,-0.0087 -0.0027,-0.0029 -0.0052,-0.0054 -0.0081,-0.0081 -0.0042,-0.0043 -0.009,-0.0083 -0.01343,-0.01266 -0.0081,-0.0073 -0.01669,-0.01439 -0.02494,-0.02183 v -10e-4 c -0.0078,-0.0069 -0.01285,-0.01382 -0.01649,-0.02078 -0.02666,-0.01803 -0.05419,-0.03466 -0.08016,-0.05367 -0.01477,-0.01132 -0.02944,-0.02269 -0.04381,-0.03449 -0.02634,-0.01649 -0.05593,-0.03081 -0.08174,-0.04768 -0.287267,-0.187248 -0.574534,-0.440674 -0.917905,-0.511069 z m -8.425653,0.04258 v 0.04258 l -0.166935,0.04206 z m 0.917387,0.424483 c -0.371941,0.03434 -0.623364,0.429763 -0.750461,0.76414 h 1.001193 v 0.04206 l -0.166934,0.04258 v 0.04258 l 0.458865,-0.127249 -0.04174,0.127249 c 0.171768,0.06071 0.275318,0.06669 0.333328,-0.127249 h -0.250197 l 0.125196,-0.212595 -0.16657,0.04258 -0.04174,-0.04258 0.04174,-0.127248 -0.750981,-0.08465 z m -1.96031,0.297066 c 0.128495,0.172651 0.385447,0.16824 0.584058,0.169832 z m -5.047011,0.467074 0.04138,0.169293 0.166916,-0.04206 0.04189,0.297068 -0.834271,-0.04258 0.08329,-0.0426 v -0.04206 l -0.917386,0.211891 c 0.30995,-0.316076 0.989765,-0.508782 1.418157,-0.508958 z m 5.088914,0.438561 0.01382,0.01362 c -0.02062,0.0069 -0.04571,-0.01362 -0.01382,-0.01362 z m -4.338451,0.02779 v 0.04258 h -0.08329 v 0.04258 l 0.167089,0.04258 c 0.124334,-0.175451 0.263719,-0.108413 0.416963,0 -0.105804,0.184621 -0.2303,0.110695 -0.375232,0 l 0.04139,0.169487 -0.375231,0.339657 -0.0419,-0.212418 -0.291945,0.08519 v -0.04258 c 0.197919,-0.167549 0.182683,-0.264333 -0.04139,-0.381894 z m -0.667175,0.04258 c -0.09385,0.18232 -0.268739,0.206787 -0.402763,0.349336 -0.238265,0.2536 -0.160356,0.52462 -0.556529,0.626869 -0.03031,-0.341065 0.185445,-0.517579 0.375233,-0.763787 l -0.08329,0.04224 c 0.164155,-0.189358 0.428911,-0.221921 0.667348,-0.254655 z m 16.935285,0.212418 0.165535,0.116143 c -0.0027,-0.0033 -0.0056,-0.0059 -0.0085,-0.0092 -0.0052,-0.0054 -0.01012,-0.01094 -0.01535,-0.01669 -3.46e-4,-5.3e-4 -5.2e-4,-0.0011 -10e-4,-0.0015 -0.0061,-0.0043 -0.01227,-0.0089 -0.01861,-0.01304 -0.01631,-0.0115 -0.03187,-0.02428 -0.04728,-0.03697 -0.0085,-0.0069 -0.0046,-0.004 -0.0115,-0.0092 -0.0056,-0.0042 -0.01012,-0.0089 -0.01496,-0.01304 z m -15.108479,0.08483 c 0.0819,-0.0029 0.157403,-0.002 0.217313,0 -0.162255,0.248669 -0.610206,0.17827 -0.876174,0.212416 0.110293,-0.160662 0.413153,-0.204144 0.658861,-0.212416 z m -8.667899,0.04258 -0.0412,0.211888 h -0.04189 z m 8.134229,0.254478 v 0.04258 c -0.332287,0.09222 -0.838772,0.408643 -1.168117,0.21189 z m -0.95929,0.0989 c 0.0322,0 0.0066,0.02112 -0.014,0.0142 z m 17.018576,0.495405 c 0.191679,0.420786 0.651763,1.08039 1.014527,1.372001 0.20121,0.161737 0.477049,0.241984 0.695746,0.410755 h 0.04189 l 0.368132,-0.04206 -0.002,-0.0021 c -10e-4,0.0012 -0.0035,7.04e-4 -0.0043,-0.0021 -0.0013,-0.0029 -0.0027,-0.0052 -0.004,-0.0081 l -0.0015,-0.0015 c -10e-4,-0.0012 -0.0023,-0.0023 -0.0031,-0.0036 -0.0013,-0.0018 -3.44e-4,-0.0021 8.68e-4,-0.0031 -0.0089,-0.01208 -0.01746,-0.02394 -0.02631,-0.03608 -0.01631,-0.02234 -0.03238,-0.04472 -0.04832,-0.06741 -0.0052,-0.0073 -0.0046,-0.01304 -0.0056,-0.01918 -0.0046,0 -0.0067,0.004 -0.0035,0.01458 0,3.52e-4 5.18e-4,0.0011 0,0.0011 -3.48e-4,0 1.71e-4,-7.03e-4 -5.2e-4,-0.0011 -0.0011,-0.0027 -0.0027,-0.0054 -0.004,-0.0081 -0.0018,-0.0033 -0.004,-0.0056 -0.0058,-0.0087 -0.004,-0.0054 -0.0078,-0.01132 -0.0117,-0.01669 -0.0029,-0.0042 -0.0058,-0.0083 -0.0089,-0.01228 -0.0033,-0.0038 -0.0061,-0.0073 -0.009,-0.01112 -0.0023,-0.0033 -0.0046,-0.0066 -0.0071,-0.0098 -0.0018,-0.0027 -0.0036,-0.0051 -0.0054,-0.0074 -0.0021,-0.0029 -0.004,-0.0052 -0.0059,-0.0081 -0.0011,-0.0021 -0.0031,-0.0043 -0.0043,-0.0061 -0.0025,-0.0033 -0.0042,-0.0069 -0.0069,-0.01012 -0.0023,-0.0031 -0.0052,-0.0059 -0.0074,-0.0092 -0.0023,-0.0027 -0.004,-0.0056 -0.0059,-0.0087 -0.0025,-0.0031 -0.0049,-0.0063 -0.0074,-0.0096 -0.0033,-0.0043 -0.0061,-0.0085 -0.0094,-0.01266 -0.0031,-0.0042 -0.0059,-0.0087 -0.009,-0.01266 -0.0031,-0.0038 -0.0054,-0.0073 -0.0081,-0.01132 -0.0029,-0.0038 -0.0054,-0.0073 -0.0081,-0.01112 -0.004,-0.0051 -0.0078,-0.01055 -0.0115,-0.01573 -0.0029,-0.004 -0.0054,-0.0073 -0.0081,-0.01132 -0.0015,-0.002 -0.0031,-0.0046 -0.0043,-0.0071 -0.0025,-0.0036 -8.65e-4,-0.0058 -0.0021,-0.0092 L 59.149,48.981662 c -0.0021,-0.0029 -0.004,-0.0056 -0.0058,-0.0087 -0.0049,-0.0076 -0.0092,-0.01573 -0.01285,-0.02374 -0.0038,-0.0083 -0.0071,-0.01669 -0.01055,-0.02482 -0.0023,-0.0056 -0.0038,-0.01112 -0.0058,-0.01668 -0.002,-0.0042 -0.0035,-0.0085 -0.0051,-0.01266 -0.0011,-0.0036 -0.0029,-0.0071 -0.004,-0.01074 -0.0015,-0.0042 -0.0036,-0.0081 -0.0056,-0.01227 -0.0023,-0.0049 -0.0042,-0.0094 -0.0069,-0.0142 -0.0027,-0.0052 -0.0052,-0.01094 -0.0081,-0.01611 -0.0011,-0.0023 -0.0023,-0.0043 -0.0035,-0.0071 -1.75e-4,-3.54e-4 1.72e-4,-8.79e-4 -5.21e-4,-0.0011 -0.0023,-0.0033 -0.0046,-0.0061 -0.0069,-0.0092 -0.02164,-0.01246 -0.04329,-0.03272 -0.06285,-0.06284 -0.0071,-0.01112 -0.01382,-0.02287 -0.02094,-0.03397 -0.0087,-0.01458 -0.01746,-0.02868 -0.02633,-0.04312 -0.0074,-0.01112 -0.01382,-0.02253 -0.02043,-0.03397 -0.0054,-0.0098 -0.0117,-0.01861 -0.01746,-0.02799 -0.0074,-0.01036 -0.01382,-0.02183 -0.02094,-0.03238 -0.01055,-0.01573 -0.02112,-0.03169 -0.03134,-0.04768 -0.0098,-0.01458 -0.01765,-0.02975 -0.02701,-0.04452 -0.0094,-0.01535 -0.01939,-0.03081 -0.02891,-0.04629 -0.0094,-0.01439 -0.01687,-0.02975 -0.02633,-0.044 -0.0092,-0.014 -0.01803,-0.02833 -0.02736,-0.04206 -0.01012,-0.01631 -0.02132,-0.03169 -0.03291,-0.04666 -0.01515,-0.01972 -0.03031,-0.03978 -0.04589,-0.05897 -0.01956,-0.02374 -0.03861,-0.04768 -0.05886,-0.07091 -0.02095,-0.02446 -0.04242,-0.04839 -0.0632,-0.07304 -0.01669,-0.01935 -0.03272,-0.03907 -0.04935,-0.05823 -0.01727,-0.01971 -0.0343,-0.03996 -0.05125,-0.05982 -0.01707,-0.01989 -0.0348,-0.03908 -0.05246,-0.05843 -0.01535,-0.01611 -0.03046,-0.03272 -0.04571,-0.0491 -0.01246,-0.01342 -0.02597,-0.0264 -0.03895,-0.03959 -0.0163,-0.01687 -0.03324,-0.03343 -0.05039,-0.04962 -0.0018,-0.0015 -0.0033,-0.0036 -0.0049,-0.0051 z m 1.752177,1.824819 0.08311,0.382421 c -0.473411,0.27014 0.07065,0.592199 -0.02736,0.933438 -0.05074,0.176871 -0.245363,0.205555 -0.324841,0.352329 -0.136954,0.252717 -0.286922,1.019322 -0.237745,1.30266 0.05818,0.336137 0.42735,0.607862 0.492806,0.976556 0.08363,0.471295 -0.03618,0.920769 0.258177,1.345253 0.209693,0.302522 0.579037,0.535178 0.820765,0.822917 0.02112,0.02517 0.04207,0.05508 0.0632,0.08325 5.2e-4,-0.0031 0.001,-0.0058 0.0015,-0.0087 0.0029,-0.01989 0.0073,-0.03959 0.01208,-0.05897 0.0031,-0.01208 0.0061,-0.02374 0.01036,-0.03537 0.0029,-0.0071 0.0058,-0.01382 0.0085,-0.02078 0.0029,-0.0066 0.0059,-0.01285 0.009,-0.01935 0.0027,-0.0063 0.0058,-0.01246 0.009,-0.01823 0.0011,-0.0018 0.0027,-0.0042 0.0031,-0.0054 v -5.3e-4 c 10e-4,-0.0043 0.0029,-0.009 0.004,-0.01304 0.0027,-0.0096 0.0056,-0.01861 0.0085,-0.02799 0.0021,-0.0073 0.004,-0.01439 0.0066,-0.02183 0.0025,-0.0087 0.0049,-0.01727 0.0078,-0.0257 0.0027,-0.0081 0.0052,-0.01591 0.0078,-0.02394 0.0025,-0.0066 0.0042,-0.01304 0.0059,-0.01971 0.0027,-0.0076 0.0046,-0.01573 0.0069,-0.02342 0.0027,-0.0083 0.0043,-0.0163 0.0066,-0.02482 0.0029,-0.01012 0.0056,-0.02024 0.0081,-0.03044 0.0023,-0.01012 0.0051,-0.01989 0.0081,-0.02993 8.64e-4,-0.0052 0.0036,-0.01036 0.0049,-0.01573 0.0021,-0.0056 0.0031,-0.0115 0.0043,-0.01727 0.0023,-0.0096 0.0043,-0.01899 0.0069,-0.02833 0.0027,-0.0098 0.0052,-0.01937 0.0076,-0.02904 0.0013,-0.0073 0.0033,-0.01382 0.0043,-0.0213 8.67e-4,-0.0067 0.0031,-0.01344 0.0042,-0.02024 0.0015,-0.0066 0.0038,-0.01323 0.0059,-0.01971 10e-4,-0.0038 0.0029,-0.0069 0.0035,-0.01074 0.0021,-0.0063 0.004,-0.01285 0.0059,-0.01918 0.0029,-0.0071 0.0052,-0.0142 0.0074,-0.02129 0.0027,-0.0067 0.0052,-0.01323 0.0069,-0.02024 0.0021,-0.0073 0.004,-0.01458 0.0063,-0.02183 0.0013,-0.0049 0.0046,-0.01002 0.0059,-0.01477 0.0011,-0.0042 0.0029,-0.0089 0.004,-0.01304 0.0021,-0.0056 0.0035,-0.01094 0.0051,-0.01668 10e-4,-0.0049 0.0027,-0.01012 0.004,-0.01515 6.93e-4,-0.0061 0.0018,-0.01227 0.0025,-0.01823 1.72e-4,-5.25e-4 0,-0.0011 0,-0.0015 0.0013,-0.0094 0.0029,-0.01861 0.0043,-0.02779 0.0013,-0.0073 0.0035,-0.01458 0.0056,-0.02183 0.0011,-0.0056 0.0027,-0.01112 0.004,-0.01669 0.0015,-0.0074 0.0036,-0.01553 0.0058,-0.02286 8.65e-4,-0.0021 0.001,-0.0042 0.0015,-0.0059 0.0051,-0.02094 0.014,-0.03309 0.02442,-0.04118 0.0013,-0.0042 0.0025,-0.0085 0.0035,-0.01266 -0.0058,-0.01591 -0.0081,-0.03677 -0.0049,-0.06176 0.0035,-0.02607 0.0069,-0.05192 0.01094,-0.07761 0.0035,-0.02058 0.0066,-0.041 0.01055,-0.06145 0.0025,-0.01304 0.0054,-0.02659 0.0089,-0.03959 0.0027,-0.0094 0.0056,-0.01841 0.0085,-0.02779 0.0035,-0.0098 0.0059,-0.0197 0.009,-0.02939 0.0046,-0.01496 0.0098,-0.02993 0.01496,-0.04472 0.004,-0.01132 0.0074,-0.02253 0.0115,-0.03397 0.0036,-0.01151 0.0081,-0.02289 0.01208,-0.03449 0.0036,-0.01112 0.0073,-0.02183 0.01094,-0.03291 0.0027,-0.0081 0.0052,-0.01611 0.0074,-0.02429 0.0031,-0.01094 0.0061,-0.02166 0.0096,-0.03256 0.0033,-0.01132 0.0073,-0.02253 0.01036,-0.03397 0.0035,-0.01012 0.0058,-0.02058 0.0085,-0.03081 0.0035,-0.01208 0.0069,-0.02374 0.01012,-0.03555 0.0036,-0.01304 0.0069,-0.02622 0.01012,-0.03959 0.0023,-0.009 0.004,-0.01823 0.0058,-0.02727 5.2e-4,-0.01002 0.0011,-0.01953 0.0021,-0.02939 0.0011,-0.01208 0.0027,-0.02411 0.004,-0.03608 0.0011,-0.0083 0.0027,-0.01669 0.0043,-0.02482 0.0011,-0.0074 0.0027,-0.01477 0.004,-0.02235 0.0025,-0.01458 0.0042,-0.02956 0.0074,-0.044 0.0054,-0.02551 0.01208,-0.05085 0.01785,-0.07621 0.0038,-0.01631 0.0076,-0.03273 0.0117,-0.04908 0.002,-0.01515 0.004,-0.03009 0.0058,-0.04523 0.0035,-0.02886 0.0073,-0.0579 0.0115,-0.08658 0.0025,-0.01515 0.004,-0.03009 0.0066,-0.04523 0.0023,-0.01535 0.004,-0.03096 0.0058,-0.04665 0.0027,-0.02058 0.0058,-0.04135 0.009,-0.06176 0.0023,-0.01631 0.0058,-0.0322 0.009,-0.04822 0.0021,-0.01208 0.0049,-0.02374 0.0096,-0.03501 0.004,-0.0096 0.0098,-0.01803 0.01477,-0.02676 0.0035,-0.0054 0.0059,-0.01112 0.009,-0.01669 0.004,-0.0087 0.0085,-0.01727 0.01246,-0.02588 0.0042,-0.01002 0.0094,-0.01803 0.01535,-0.02445 0.0021,-0.01112 0.0038,-0.02235 0.0058,-0.03343 0.0031,-0.01496 0.0059,-0.02939 0.0081,-0.04452 0.001,-0.0071 0.0025,-0.01382 0.0036,-0.02094 v -3.51e-4 c -0.01573,-0.01707 -0.02649,-0.04559 -0.02442,-0.08536 10e-4,-0.01707 0.0018,-0.03397 0.0025,-0.05121 0.0015,-0.0257 0.0031,-0.05192 0.004,-0.07797 3.47e-4,-0.01937 0.0015,-0.03853 0.0027,-0.0579 3.47e-4,-0.01439 0.0018,-0.02868 0.0031,-0.04312 8.68e-4,-0.0083 0.002,-0.01649 0.0033,-0.02482 8.67e-4,-0.0033 0.0011,-0.0058 0.0013,-0.0092 3.47e-4,-0.01055 5.19e-4,-0.0213 10e-4,-0.03185 5.2e-4,-0.01055 0.0029,-0.02095 0.0033,-0.0315 1.72e-4,-0.014 0.0027,-0.02833 0.0031,-0.04258 1.72e-4,-0.02939 5.18e-4,-0.05879 5.18e-4,-0.08816 0,-0.01477 0,-0.02975 0,-0.04472 -8.67e-4,-0.0042 -0.0021,-0.0085 -0.0027,-0.01266 -0.0011,-0.0092 -0.0021,-0.01841 -0.0031,-0.02779 -8.65e-4,-0.0076 -0.002,-0.01573 -0.0033,-0.02342 -0.0018,-0.0089 -0.0033,-0.01785 -0.0042,-0.02676 -0.0013,-0.0073 -0.0027,-0.01458 -0.004,-0.02183 -0.0013,-0.0058 -0.002,-0.0117 -0.0033,-0.01727 -0.0011,-0.0067 -0.0029,-0.01362 -0.004,-0.02024 -0.0015,-0.01002 -0.002,-0.01971 -0.004,-0.02956 -0.0018,-0.0098 -0.0033,-0.01953 -0.0043,-0.02939 -6.9e-4,-0.0083 -0.0018,-0.01649 -0.0031,-0.02482 -10e-4,-0.0085 -0.0027,-0.01649 -0.0043,-0.02534 -0.0018,-0.0083 -0.0035,-0.01631 -0.0043,-0.02483 -10e-4,-0.0074 -0.0035,-0.01496 -0.0049,-0.02234 -0.0021,-0.0096 -0.0038,-0.01918 -0.0056,-0.02887 -0.0015,-0.0076 -0.0031,-0.01553 -0.0056,-0.02288 0,-1.77e-4 1.73e-4,-7.05e-4 0,-0.0011 -0.0081,-0.0043 -0.01227,-0.01477 -0.01707,-0.03449 -0.0035,-0.01631 -0.0066,-0.03272 -0.01002,-0.04911 -0.0035,-0.01823 -0.0067,-0.03642 -0.01055,-0.05474 -0.0023,-0.01132 -0.0043,-0.02269 -0.0063,-0.03397 -6.92e-4,-0.0031 -0.0021,-0.0058 -0.0031,-0.0087 -0.0015,-0.0052 -0.0025,-0.01074 -0.0043,-0.01573 -0.0021,-0.0071 -0.0042,-0.014 -0.0056,-0.0213 -0.0021,-0.01002 -0.004,-0.01953 -0.0058,-0.02939 -0.0021,-0.01112 -0.0043,-0.02234 -0.0056,-0.0336 -0.001,-0.01132 -0.0023,-0.02269 -0.0031,-0.03397 -3.47e-4,-0.01074 -0.0021,-0.02112 -0.0033,-0.03184 -0.0011,-0.01112 -0.0033,-0.022 -0.0042,-0.03291 -0.0021,-0.01458 -0.004,-0.02922 -0.0066,-0.04364 -0.0033,-0.01765 -0.0059,-0.03519 -0.0096,-0.0528 -0.0023,-0.01266 -0.0046,-0.02588 -0.0074,-0.03853 -1.72e-4,-0.0018 -10e-4,-0.0035 -0.0015,-0.0051 -0.004,0.0058 -0.0058,0.01591 -0.0043,0.03309 -6.93e-4,-0.0038 -0.002,-0.0071 -0.0031,-0.01074 -0.0021,-0.0096 -0.0042,-0.01937 -0.0063,-0.02886 -0.0043,-0.02024 -0.0089,-0.04047 -0.01285,-0.06088 -0.0033,-0.01323 -0.0056,-0.02676 -0.0085,-0.03995 -1.73e-4,-3.53e-4 1.73e-4,-8.8e-4 0,-0.0011 -6.93e-4,-0.0015 -0.0021,-0.0036 -0.0031,-0.0051 -0.0042,-0.0089 -0.0085,-0.01746 -0.01208,-0.0264 -0.0035,-0.0083 -0.0067,-0.01687 -0.0096,-0.02534 -0.0031,-0.01002 -0.0056,-0.01937 -0.0074,-0.02939 -0.0035,-0.01669 -0.0076,-0.0336 -0.0115,-0.05016 -0.0051,-0.02095 -0.01055,-0.0417 -0.01591,-0.06247 -0.0042,-0.01591 -0.0081,-0.03255 -0.01246,-0.04857 h -5.17e-4 c -0.0027,-0.0087 -3.47e-4,-0.01515 0.0025,-0.01937 -0.0023,-0.0069 -0.0046,-0.01362 -0.0074,-0.02078 -0.0049,-0.01227 -0.01012,-0.02394 -0.01535,-0.03589 -0.0059,-0.01382 -0.01246,-0.02799 -0.0188,-0.04172 -0.0058,-0.01247 -0.01189,-0.02463 -0.01803,-0.03696 -0.0038,-0.0074 -0.0074,-0.01535 -0.0115,-0.02286 -0.0029,-0.0054 1.74e-4,-0.0096 0.0031,-0.0096 3.45e-4,0 0.0029,-1.77e-4 0.0033,0 -0.001,-1.77e-4 -0.0027,1.73e-4 -0.0033,-0.0015 l -10e-4,-0.0027 c -0.0027,-0.0071 -0.0051,-0.014 -0.0074,-0.0213 -0.0029,-0.0083 -0.0049,-0.01649 -0.0074,-0.02482 -0.0031,-0.009 -0.0066,-0.01803 -0.0096,-0.0269 -0.002,-0.0058 -0.0036,-0.0119 -0.0054,-0.01785 -0.0035,-0.0061 -0.0071,-0.01246 -0.01055,-0.01861 -0.0081,-0.01535 -0.01553,-0.03081 -0.02338,-0.04629 -0.0076,-0.01591 -0.01553,-0.03133 -0.02336,-0.04716 -0.0056,-0.0115 -0.01112,-0.02305 -0.01707,-0.03432 -0.0059,-0.01132 -0.0096,-0.02342 -0.01344,-0.03554 -0.0036,-0.01094 -0.0073,-0.02217 -0.01094,-0.03291 -0.0029,-0.0081 -0.0052,-0.01611 -0.0085,-0.02394 -0.004,-0.0089 -0.0083,-0.01765 -0.01246,-0.0264 -0.0058,-0.0119 -0.01132,-0.02342 -0.01707,-0.03537 -0.0074,-0.01631 -0.01496,-0.03309 -0.02286,-0.04928 -0.009,-0.01803 -0.01727,-0.03626 -0.02649,-0.05421 -0.0058,-0.0115 -0.01094,-0.02305 -0.01591,-0.03503 -0.0051,-0.0117 -0.0096,-0.02342 -0.01323,-0.03555 -0.0021,-0.0063 -0.0036,-0.01305 -0.0056,-0.01971 -5.21e-4,-1.76e-4 -0.0021,-5.27e-4 -0.0031,-0.0021 -0.0035,-0.0059 -0.0066,-0.01246 -0.0096,-0.01861 -0.0033,-0.0074 -0.0036,-0.01515 -0.0074,-0.02234 -0.0035,-0.0073 -0.0073,-0.01515 -0.01094,-0.02235 -0.0035,-0.0066 -0.0067,-0.01323 -0.01055,-0.0197 -0.0027,-0.0043 -0.0049,-0.0092 -0.0074,-0.01362 -0.0027,-0.0052 -0.004,-0.01036 -0.0063,-0.01573 -0.0021,-0.0058 -0.0051,-0.01132 -0.0076,-0.01669 -0.0035,-0.0085 -0.0071,-0.01687 -0.01036,-0.02552 -0.0035,-0.0098 -0.0069,-0.01899 -0.01036,-0.02886 -5.18e-4,-0.0015 -0.002,-0.0031 -0.0027,-0.0043 -0.0018,-0.0038 -0.004,-0.0073 -0.0059,-0.01112 -0.0061,-0.01247 -0.01246,-0.02499 -0.01841,-0.0375 -0.0061,-0.01285 -0.01246,-0.02551 -0.01879,-0.03801 -0.0054,-0.01132 -0.0117,-0.022 -0.01707,-0.03309 -0.0042,-0.0087 -0.0081,-0.01746 -0.01208,-0.0264 -3.45e-4,-1.75e-4 -8.64e-4,-7.04e-4 -10e-4,-0.0011 -0.0025,-0.0036 -0.0049,-0.0073 -0.0074,-0.01055 -0.0054,-0.0074 -0.01074,-0.01535 -0.01553,-0.02323 -0.0051,-0.0078 -0.01012,-0.01573 -0.01535,-0.02342 -0.0085,-0.0117 -0.01765,-0.02286 -0.02545,-0.03501 -0.01055,-0.01591 -0.02043,-0.03256 -0.03031,-0.0491 -0.01112,-0.01918 -0.02217,-0.03838 -0.03238,-0.0579 -0.0081,-0.01515 -0.01649,-0.03044 -0.02442,-0.04559 -0.0066,-0.01228 -0.01285,-0.02411 -0.02009,-0.03608 -0.0054,-0.01002 -0.01036,-0.01972 -0.01631,-0.02939 -0.0059,-0.01012 -0.0117,-0.02058 -0.01803,-0.03027 -0.0092,-0.01515 -0.01765,-0.03027 -0.02683,-0.04523 -0.01012,-0.01649 -0.02009,-0.03343 -0.02996,-0.05016 -0.0083,-0.01477 -0.01649,-0.02956 -0.02442,-0.04472 -0.0073,-0.0142 -0.01362,-0.0285 -0.02043,-0.04312 -0.0058,-0.01227 -0.01227,-0.02463 -0.0188,-0.03642 -0.0029,-0.0049 -0.0059,-0.0096 -0.0096,-0.01362 -0.0042,-0.0056 -0.0078,-0.0119 -0.01208,-0.01785 -0.0096,-0.01285 -0.0188,-0.02605 -0.02703,-0.03995 -0.0013,-0.0029 -0.0035,-0.0056 -0.0049,-0.0081 l -0.0528,0.01266 z m -18.603828,1.14603 v 0.0426 h 0.166398 z m 0.458345,0 -0.04121,0.169831 h 0.04121 z m 17.060652,0.169831 v 0.127249 l 0.08363,-0.127249 z m 0.500771,0.04258 v 0.127248 l 0.08313,-0.127248 z m -0.292116,0.08465 v 0.08519 h 0.0833 v -0.08519 z m -17.602634,0.08519 -0.04189,0.169294 0.208828,0.127767 -0.08363,-0.297067 z m -1.251232,0.552247 c -0.300774,0.009 -0.721028,0.05913 -0.83462,0.381191 l 0.83462,-0.297067 -0.04189,0.127249 1.042577,0.08519 c 0.11083,0.200978 0.245191,0.211185 0.458867,0.211889 l -0.166916,0.212583 1.126214,-0.127422 c -0.206054,-0.166674 -0.54094,-0.201337 -0.792364,-0.276836 -0.561376,-0.16824 -1.03392,-0.334553 -1.626464,-0.316778 z m -0.250732,0.296542 -0.166935,0.04258 v 0.04206 l 0.166935,0.04258 z m 2.836485,0.04258 v 0.04206 h 0.20883 z m 0.511854,0.280347 c -0.136092,-0.0043 -0.277226,0 -0.428045,0.01631 v 0.04258 l 0.208135,0.04258 0.0838,0.211891 -0.667695,0.04258 v 0.04258 c 0.527089,0.203266 1.469757,0.06423 2.002216,-0.08519 v -0.08465 C 43.165662,52.222688 42.805496,52.125539 42.397539,52.11181 Z m 1.615556,0.271375 -0.0414,0.04206 v 0.08519 c 0.198267,0.05967 0.391164,0.07162 0.542157,-0.08519 z m -3.310937,0.154161 c -0.122953,-0.01112 -0.254543,0.0043 -0.359821,0.01573 0.186481,0.196051 0.421811,0.132351 0.667349,0.127249 -0.07065,-0.09434 -0.184582,-0.131814 -0.307528,-0.142901 z m 5.229863,0.354967 -0.166935,0.08519 0.0419,0.04206 z m -0.04189,0.212418 v 0.08467 h 0.08329 v -0.08467 z m -0.917386,1.145855 v 0.04206 h 0.125196 z m 1.126214,0.04206 -0.208828,0.04258 -0.04174,0.170005 c 0.161218,-0.01285 0.223374,-0.04645 0.250559,-0.212592 z m 3.670757,2.801548 -0.04189,0.127249 h 0.250039 v 0.04258 l -0.500251,0.254653 -0.04189,-0.170004 v -0.04206 z m -0.45904,0.509662 v 0.04206 h -0.166938 z m -13.681836,0.04206 -0.08329,0.169832 h 0.166916 l -0.08363,0.169832 0.166916,-0.04258 z m 14.265897,0.04258 v 0.04258 h -0.125025 z m -13.932051,0.08465 -0.04189,0.08519 h 0.0838 z m 28.913086,7.045493 c -0.01132,0.02993 -0.02201,0.0602 -0.03289,0.09029 5.19e-4,0.04541 -3.48e-4,0.09063 0.0027,0.136399 0.0074,-0.07584 0.01922,-0.15136 0.03031,-0.226673 z m 0.398609,0.274365 c -0.0021,0.02007 -0.0051,0.04013 -0.0069,0.0602 -0.0052,0.04982 -0.01036,0.09944 -0.01553,0.14923 0.01012,-0.05526 0.01991,-0.110695 0.02996,-0.165956 -0.0033,-0.01382 -0.0056,-0.02815 -0.0074,-0.04347 z m -0.05921,1.81373 c 1.73e-4,0.05563 6.93e-4,0.111213 8.67e-4,0.166839 0.01112,-0.05278 0.02078,-0.10611 0.03201,-0.158744 -0.01132,-0.0015 -0.02217,-0.0043 -0.03291,-0.0081 z m -23.037518,3.811895 0.0419,0.170005 h -0.0419 z m 0.0838,0.127422 h 0.08329 l -0.04189,0.12725 h -0.04138 z m 0.08329,0.678783 h 0.08311 v 0.08519 h -0.08311 z m -0.292118,0.212594 h 0.208829 v 0.169832 c -0.09992,-0.03501 -0.256792,-0.04206 -0.208829,-0.169832 z m 0,0.169832 v 0.08465 h -0.08311 z m -0.04189,0.33913 v 0.212593 L 42.13646,72.2465 Z m 0.166935,0.509659 0.125196,0.21189 -0.04138,-0.21189 z m 0.709251,0.04206 v 0.04258 l -0.166916,0.04258 z m 0.834098,0.169832 -0.20831,0.297243 h 0.292119 v 0.04258 l -0.208828,0.08465 0.125023,0.169832 -0.20831,-0.04258 v -0.169294 h -0.04174 l -0.04189,0.254478 h -0.04138 l -0.125023,-0.127248 v -0.04258 h 0.125023 c 10e-4,-0.282459 0.05818,-0.389284 0.333328,-0.46707 z m -0.58406,0.0426 v 0.04258 l -0.291435,0.04205 z m -0.709078,0.170005 v 0.04206 l 0.249174,0.04258 z m 1.084828,0.395973 c 0.03238,0 0.0067,0.02112 -0.01382,0.014 z m 1.668371,0.07092 v 0.04206 H 45.3063 Z m -1.418156,0.05631 c 0.0322,0 0.0066,0.02112 -0.014,0.0142 z m -0.333849,0.07091 v 0.04207 h 0.166916 z m 2.586277,2.41913 v 0.03765 c 0.0056,-0.0078 0.01112,-0.01573 0.01707,-0.02342 0.0027,-0.0035 0.0054,-0.0067 0.0081,-0.01012 z m -2.377448,2.291889 v 0.01074 c 1.73e-4,-0.0035 5.2e-4,-0.0069 8.65e-4,-0.01012 z m -0.250212,0.127422 -0.250733,0.04258 v 0.04258 l 0.250733,0.04206 z m 0.208308,0.254478 -0.500425,0.127249 v 0.04258 c 0.18978,-0.0015 0.385274,0.0012 0.500425,-0.169831 z m -0.208295,0.297062 c 0.03152,0.09784 0.09072,0.13657 0.162426,0.164382 0.0015,-0.01228 0.0035,-0.02445 0.0051,-0.03662 6.92e-4,-0.0092 0.0015,-0.01841 10e-4,-0.02779 v -0.04559 -0.04472 c -0.01535,0.01002 -0.03186,0.01823 -0.04347,0.03291 z m -3.462276,0.38242 -0.125197,0.127249 h -0.04174 c -0.112729,-0.158898 -0.577653,-0.06581 -0.667347,0.08465 h 1.001194 l -0.04189,-0.169831 -0.125025,0.08519 z m 3.503659,0.04206 -0.04139,0.127249 0.154966,0.05278 c -1.73e-4,-0.02358 -3.45e-4,-0.04716 5.19e-4,-0.07059 0,-0.0023 5.21e-4,-0.0046 5.21e-4,-0.0071 0,-3.55e-4 0,-5.28e-4 0,-0.0011 -1.73e-4,-0.0018 -1.73e-4,-0.0036 0,-0.0056 0,-1.78e-4 0,-7.06e-4 0,-0.0011 0,-8.79e-4 5.17e-4,-0.002 5.17e-4,-0.0031 1.75e-4,-0.0058 0,-0.0115 5.19e-4,-0.01727 1.76e-4,-0.0076 6.93e-4,-0.01515 0.001,-0.02269 v -0.02588 -0.0163 c -5.17e-4,-0.0035 -0.001,-0.0067 -0.001,-0.0096 z m -2.62766,0.08519 0.08311,0.21189 -1.751485,0.04258 c 0.188398,0.230192 0.479818,0.169831 0.750463,0.169831 v 0.04258 l -0.417134,0.04224 v 0.0426 l 0.95981,0.339658 v 0.04206 l -0.542676,0.01362 -0.917387,0.156098 c -0.05316,-0.181801 -0.153086,-0.23389 -0.333848,-0.254479 l 0.166936,0.211889 -0.58406,-0.211889 0.125024,0.169831 -0.333327,0.04206 c -0.04935,0.215584 -0.746655,0.412338 -0.95981,0.424482 l 0.04189,0.297066 c 0.303373,0.3606 0.406574,0.442963 0.876002,0.552251 l -0.0419,0.12725 h 0.166936 v 0.04206 h -0.291944 v 0.04258 l 1.54335,0.380837 0.876002,0.351801 1.46006,0.328569 v 0.04258 l -0.125024,0.04224 v 0.04258 h 1.209329 v 0.04258 l -0.333847,0.127248 v 0.04207 c 0.659555,0.0056 1.313917,0.07074 1.970355,0.120189 -0.01055,-0.02201 -0.01939,-0.04734 -0.0258,-0.07708 -0.0035,-0.014 -0.0013,-0.02922 -0.0043,-0.04312 -0.0025,-0.01823 -0.0073,-0.03643 -0.0117,-0.05421 -0.0094,-0.03202 -0.01861,-0.06389 -0.02927,-0.09537 -0.01132,-0.03132 -0.0232,-0.06264 -0.03499,-0.09379 -0.01094,-0.02779 -0.0218,-0.05508 -0.03238,-0.08306 -0.01055,-0.02764 -0.01803,-0.05631 -0.02736,-0.0843 -0.0085,-0.02605 -0.01727,-0.05209 -0.02649,-0.07797 -0.0059,-0.01823 -0.01227,-0.03642 -0.0188,-0.05438 -0.0067,-0.01823 -0.01246,-0.0373 -0.01803,-0.05632 -0.0049,-0.0197 -0.01036,-0.03942 -0.01535,-0.05931 -0.0073,-0.02551 -0.01305,-0.05139 -0.02043,-0.07709 -0.0081,-0.02779 -0.014,-0.05648 -0.02149,-0.08465 -0.0069,-0.0264 -0.01266,-0.05278 -0.01841,-0.07955 -0.0051,-0.02779 -0.01112,-0.05544 -0.01649,-0.08325 -0.0056,-0.02659 -0.01074,-0.05298 -0.01649,-0.07957 -0.0056,-0.02675 -0.01132,-0.05386 -0.01707,-0.08059 -0.0059,-0.03449 -0.01477,-0.06828 -0.02233,-0.102425 -0.0078,-0.03432 -0.01535,-0.06863 -0.02304,-0.102951 -0.0058,-0.03044 -0.01342,-0.06056 -0.02043,-0.09079 -0.0027,-0.01074 -0.0058,-0.02147 -0.0085,-0.03238 -0.0018,-0.0042 -0.0027,-0.0098 -0.004,-0.0142 -0.0027,-0.009 -0.0042,-0.01803 -0.0069,-0.02676 -0.0081,-0.02868 -0.01631,-0.05683 -0.02494,-0.08536 -0.0067,-0.01918 -0.01323,-0.03838 -0.01993,-0.05772 -0.04901,-0.0188 -0.09195,-0.06634 -0.08917,-0.169832 6.93e-4,-0.02605 -0.0021,-0.05192 -0.0043,-0.07761 -8.66e-4,-0.0085 -0.0015,-0.01687 -0.0027,-0.02534 -0.004,-0.01055 -0.0081,-0.02095 -0.01208,-0.0315 -0.01496,-0.04011 -0.03083,-0.08009 -0.0464,-0.12019 0,-1.77e-4 -1.73e-4,-7.06e-4 -5.19e-4,-0.0011 -0.247268,-0.0069 -0.486918,-0.04716 -0.663192,-0.252369 0.198783,0.08694 0.400684,0.135325 0.609512,0.101371 -0.0073,-0.02269 -0.01382,-0.04559 -0.02043,-0.06846 -0.0066,-0.02286 -0.01285,-0.04558 -0.01956,-0.06846 l -0.361207,-0.0922 v -0.04206 c 0.08971,0.0115 0.218006,0.0336 0.339909,0.05262 -0.0058,-0.02499 -0.01132,-0.04982 -0.01611,-0.07496 -0.0061,-0.03765 -0.0115,-0.07567 -0.01535,-0.113689 -0.0038,-0.02815 -0.0069,-0.05615 -0.0089,-0.08465 -0.0025,-0.02429 -0.0013,-0.04875 -0.0033,-0.07304 -0.0023,-0.02552 -0.0036,-0.05138 -0.0043,-0.07709 -0.002,-0.03116 -0.0036,-0.06195 -0.0049,-0.09327 -3.47e-4,-0.0054 -3.47e-4,-0.01132 -5.21e-4,-0.01669 -8.66e-4,-0.02112 6.93e-4,-0.04013 0.0035,-0.05772 -0.01056,-0.02746 -0.01727,-0.06056 -0.01746,-0.100493 0,-0.01573 1.75e-4,-0.03098 0,-0.04663 0,-0.0285 0,-0.05719 -10e-4,-0.08569 -6.93e-4,-0.03414 -0.0023,-0.06828 -0.0043,-0.102424 -0.0018,-0.02622 -0.0031,-0.05278 -0.0043,-0.07901 -1.75e-4,-0.0033 -5.19e-4,-0.0063 -5.19e-4,-0.0092 -0.0031,-0.01247 -0.0087,-0.0206 -0.0094,-0.03608 -0.0021,-0.04084 -0.0038,-0.08166 -0.0043,-0.122664 -0.0013,-0.05033 -0.0023,-0.100834 -0.0031,-0.150996 -1.75e-4,-0.0056 0,-0.01132 0,-0.01669 l -0.912539,-0.154678 -0.08311,0.08465 0.0412,0.169832 -1.20933,-0.08465 c -0.06667,-0.201682 -0.254712,-0.144664 -0.291941,0.04206 h -0.125196 v -0.04206 z m -2.794582,0.891379 v 0.08465 h 0.08311 v -0.08465 z m -1.08483,0.04207 c 0.11948,0.174224 0.386487,0.19605 0.58406,0.212417 v -0.04258 l -0.125196,-0.04258 v -0.04206 l 0.375233,0.127248 -0.03376,-0.175469 z m 0.800335,0.03696 0.117561,0.0056 -0.125196,-0.04258 z m 6.550878,0.02852 c -0.0029,0.02852 -0.0056,0.05703 -0.0081,0.08569 l 0.0058,5.28e-4 c 3.47e-4,-0.02886 0.0015,-0.05754 0.0021,-0.08623 z m 9.996362,0.11808 c -0.01132,0.04047 -0.02218,0.08077 -0.03342,0.121245 0.0018,-0.0038 0.0036,-0.0071 0.0054,-0.01074 0.0074,-0.02677 0.01496,-0.05333 0.0225,-0.08009 6.92e-4,-0.0029 0.0018,-0.0058 0.0027,-0.0087 0,-5.27e-4 -1.75e-4,-0.0011 0,-0.0015 10e-4,-0.0067 0.002,-0.01342 0.0031,-0.02024 z m -17.222568,0.240907 v 0.0426 h 0.125024 z m 1.835294,1.612928 v 0.04258 l 0.459039,0.12725 z"
     fill="#ffffff"
     id="path3"
     style="stroke-width:0.174567" />
  <path
     d="M 48.950855,87.678282 40.500266,86.937197 C 39.075531,86.81225 37.687502,86.410291 36.411681,85.752976 l -4.953332,-2.551471 c -1.889145,-0.973212 -3.546257,-2.35454 -4.855675,-4.047722 l -2.168963,-2.804715 c -1.123617,-1.452954 -2.025594,-3.069579 -2.675972,-4.795844 l -0.726914,-1.929706 c -0.724922,-1.924076 -1.1094,-3.963597 -1.135703,-6.024061 l -0.02476,-1.938684 c -0.03804,-2.981582 0.364357,-5.952081 1.193711,-8.811883 0.65765,-2.237685 1.542135,-4.399519 2.639606,-6.450833 L 24.50799,44.88157 c 1.094699,-2.063985 2.33866,-4.042263 3.721665,-5.918468 l 1.392011,-1.888704 c 1.586294,-2.152154 3.029386,-4.410252 4.319059,-6.75881 l 1.701095,-3.097033 c 0.662845,-1.207276 1.28777,-2.435671 1.873561,-3.683425 l 2.111477,-4.498793 c 0.606571,-1.292261 1.13695,-2.620177 1.588198,-3.976674 l 1.625425,-4.886476 c 0.25281,-0.7599507 0.500424,-1.5216434 0.74319,-2.2850082 L 44.56063,4.8156744 44.376911,15.939321 c -0.04001,2.421434 -0.267873,4.835864 -0.681548,7.220779 l -0.05904,0.340362 c -0.519817,2.997775 -1.380236,5.923926 -2.563763,8.719667 l -1.632179,3.855187 6.902906,-1.34173 c 2.620389,-0.509309 5.294453,-0.670514 7.95553,-0.479919 l 4.647194,0.332968 -7.317967,2.266373 c -2.594413,0.803385 -5.120776,1.817952 -7.55502,3.033854 l -1.424909,0.711694 c -1.078424,0.538698 -2.093298,1.200237 -3.025228,1.971768 l -0.808817,0.669632 c -0.806394,0.667698 -1.55824,1.400687 -2.248274,2.191754 l -0.937125,1.074403 c -0.723796,0.829958 -1.410537,1.692651 -2.058145,2.58526 l -2.211908,3.049343 c -0.548216,0.755864 -1.016954,1.568226 -1.398073,2.423704 -0.754444,1.935865 -1.20067,3.981899 -1.321881,6.060667 l -0.04398,0.414098 c -0.200343,1.891516 -0.1354,3.802568 0.192725,5.675607 l 0.09991,0.570376 c 0.264236,1.507864 0.605357,3.000767 1.021971,4.472555 l 0.397224,1.403677 c 0.350817,1.238956 0.883967,2.416665 1.581617,3.49283 l 1.079981,1.666254 c 1.23288,1.901899 2.893629,3.477341 4.844417,4.595568 l 2.628526,1.506807 c 0.720508,0.413044 1.475818,0.760268 2.256757,1.037273 z"
     fill="#ffffff"
     id="path4"
     style="stroke-width:0.174567" />
  <path
     d="m 48.431729,87.725094 -0.961194,-0.642002 c -1.169329,-0.780858 -2.07979,-1.656046 -2.694844,-2.589663 -1.074096,-1.989011 -1.456425,-4.060036 -1.129159,-6.117511 0.117063,-1.121391 0.401898,-2.236451 0.851587,-3.335495 l 0.700939,-1.984968 c 0.470123,-1.330993 1.348376,-2.615002 2.60186,-3.80415 l 0.348565,-0.330859 c 0.551852,-0.523387 1.183182,-1.023543 1.88828,-1.495895 l 5.181207,-3.469775 c 0.732281,-0.490477 1.321362,-1.033225 1.748367,-1.611345 1.98767,-3.022767 3.255527,-6.158516 3.775516,-9.338617 -0.05472,-1.34613 -0.576092,-2.67642 -1.539883,-3.928223 -0.434106,-0.729292 -1.063706,-1.424092 -1.870617,-2.063986 l -5.269346,-4.804289 6.167512,4.044025 c 1.779708,1.166797 3.202714,2.466644 4.220185,3.854484 l 0.362417,0.494524 c 1.796854,2.451332 3.128258,4.98644 3.975516,7.569763 0.479643,1.801411 0.66475,3.620422 0.55341,5.437847 -0.04001,1.56682 -0.311856,3.129768 -0.81332,4.675293 -0.609512,2.03565 -1.642395,4.031881 -3.080812,5.954018 -0.77834,0.990283 -1.667676,1.956456 -2.664021,2.893591 -1.014355,0.993628 -2.254852,1.921789 -3.695174,2.764769 l -1.958408,1.146033 2.00845,-0.856709 c 2.126716,-0.907394 3.917854,-2.004855 5.287181,-3.239584 0.782324,-0.777163 1.435645,-1.587058 1.953211,-2.420711 1.146821,-1.683501 2.11702,-3.397445 2.906444,-5.134444 0.865613,-1.917211 1.281016,-3.880883 1.237555,-5.848955 -0.08934,-2.035474 -0.3993,-4.066727 -0.928124,-6.084601 l -0.200515,-0.946287 1.65365,2.118893 c 0.577478,0.740028 1.047773,1.500999 1.407246,2.276754 0.351338,0.768714 0.657654,1.542884 0.918255,2.321102 0.698862,2.149516 0.865265,4.335812 0.495055,6.506799 l -0.09799,0.632321 c -0.308046,1.984967 -0.946303,3.952687 -1.908192,5.881513 -0.899032,1.801762 -2.208099,3.54246 -3.900193,5.186184 -1.674774,1.627887 -3.793871,3.123959 -6.292528,4.442812 -1.554086,0.820104 -3.565134,1.37165 -5.754879,1.577907 l -1.610532,0.151705 c -0.61419,0.05772 -1.236689,0.09011 -1.861095,0.09662 z"
     fill="#ffffff"
     id="path5"
     style="stroke-width:0.174567" />
  <path
     d="m 45.519053,83.893314 c 11.408631,0 20.657126,-9.369593 20.657126,-20.927413 0,-11.557823 -9.248495,-20.927238 -20.657126,-20.927238 -11.40863,0 -20.657126,9.369415 -20.657126,20.927238 0,11.55782 9.248496,20.927413 20.657126,20.927413 z"
     fill="#0172d1"
     fill-opacity="0.32579"
     id="path6"
     style="stroke-width:0.174567" />
  <path
     d="m 51.395834,28.07104 c 2.491211,0 4.510569,-2.055009 4.510569,-4.589762 0,-2.534823 -2.019358,-4.589709 -4.510569,-4.589709 -2.491212,0 -4.510744,2.054886 -4.510744,4.589709 0,2.534753 2.019532,4.589762 4.510744,4.589762 z"
     fill="url(#paint0_radial_140_570)"
     id="path7"
     style="fill:url(#paint0_radial_140_570);stroke-width:0.174567" />
  <path
     d="m 45.389877,42.196699 v 0.04258 l 0.583541,0.127248 -0.04139,0.12725 0.500422,0.127249 -0.167088,-0.04206 c 0.02112,0.303755 0.282073,0.385412 0.507867,0.536585 0.516876,0.345993 1.16154,0.623702 1.786465,0.651507 l -0.208305,-0.721551 c 0.18788,-0.0456 0.406226,-0.01535 0.417133,-0.254478 l 0.417135,-0.04258 c -0.24623,-0.225269 -0.68397,-0.256594 -1.001194,-0.315019 -0.916868,-0.168413 -1.864036,-0.236706 -2.794582,-0.236706 z m -1.585598,0.09944 c -0.29731,-0.02007 -0.607956,0.01477 -0.833753,0.04611 -0.160681,0.02218 -0.38995,-0.02007 -0.50077,0.108931 l -0.208308,-0.04206 v 0.04206 h 0.166398 v 0.04258 l -0.166398,0.04258 v 0.0426 h 0.166398 c -0.203112,0.200625 -0.371941,0.160663 -0.625443,0.127249 v -0.04258 l 0.375232,-0.169831 v -0.04258 l -1.042406,0.382421 v 0.04207 h -0.125542 l 0.125542,-0.04207 -0.250732,-0.04258 v 0.04258 l -0.750463,0.169833 v -0.08519 l 0.750463,-0.127248 0.208828,-0.127422 v -0.04258 c -0.503022,0.06618 -1.134874,0.184083 -1.585081,0.424483 v 0.04258 l 0.166916,-0.04258 v 0.04258 l -0.459038,0.08465 v -0.04206 h 0.08328 v -0.04258 c -0.469948,0.07059 -0.933316,0.296892 -1.376424,0.464962 -1.066476,0.404595 -2.109227,0.891026 -3.086527,1.487622 -0.470468,0.287389 -1.103185,0.595897 -1.376426,1.103445 l -0.125541,-0.04258 c -0.06943,0.381892 -0.5967,0.531835 -0.500253,0.933968 -0.269085,0.143265 -0.418346,0.418851 -0.626481,0.63637 -0.717737,0.750061 -1.096951,1.367074 -1.334001,2.377069 0.428562,0.148003 0.207613,0.496284 0.221813,0.848789 0.0096,0.234942 0.171423,0.370982 -0.09662,0.509131 l 0.276532,0.321354 0.0218,0.345816 0.243806,0.351448 c 0.146661,-0.08325 0.196879,-0.254126 0,-0.297067 l -0.04192,-1.103444 v -0.04258 l -0.125024,0.04258 c -0.03585,-0.260461 0.03031,-0.517754 0.333848,-0.466895 l -0.125197,0.509483 0.417135,0.424485 -0.08363,0.211889 c 0.222162,0.180036 0.513758,0.465134 0.559991,0.764138 0.0348,0.224561 -0.208308,0.467072 -0.0058,0.644994 0.397568,0.352856 1.505599,0.656084 2.032172,0.615606 0.230991,-0.01785 0.430988,-0.219808 0.667692,-0.181091 0.292464,0.04768 0.475144,0.334377 0.750463,0.420786 0.429084,0.134979 0.900245,0.09821 1.335043,0.112634 l -0.0838,0.127248 0.472028,0.355493 0.09714,0.287037 0.223718,-0.0056 h 0.04189 0.04139 l 0.333849,0.211891 -0.04189,0.127422 h 0.208827 v 0.08519 c 0.280343,-0.05278 0.540423,0.0063 0.750984,0.21189 l 0.250212,-0.08465 -0.125196,-0.212417 0.792369,-0.08483 0.209345,0.551722 0.0826,0.636901 v 0.04206 c -0.230124,0.201857 -0.577824,0.395969 -0.62579,0.721548 L 39.4664,57.179694 c -0.0031,0.212772 -0.13939,0.374326 -0.291943,0.509132 v 0.339657 l 0.208655,0.211889 0.208307,-0.169832 -0.515142,0.552779 0.01477,0.508604 c 0.879638,0.294252 1.315994,1.572273 1.784557,2.286256 0.439301,0.66946 1.559108,0.48696 2.017108,1.159584 0.300079,0.4405 0.0528,0.980429 0.02891,1.435005 -0.03965,0.755339 -0.238265,1.466858 -0.291077,2.20724 -0.01458,0.204147 0.101815,0.386996 0.07134,0.594134 -0.07273,0.49435 -0.381811,0.912497 -0.440513,1.40051 l -0.166934,0.04258 c 0.04157,0.198162 0.163616,0.430818 0.152913,0.632851 -0.01649,0.315021 -0.186845,0.440323 -0.02789,0.76766 -0.178347,0.0389 -0.136628,0.304457 -0.166935,0.46707 0.283805,-0.02305 0.255579,-0.27542 0.208828,-0.509659 l 0.208309,-0.08465 0.125023,0.21242 -0.291946,1.060854 0.0419,-0.297244 -0.125196,0.04258 0.08328,-0.12725 -0.25021,0.04258 c 0.05091,0.337545 -0.119998,0.491184 -0.291944,0.763611 l 0.04174,0.04258 0.417134,-0.04258 v 0.382247 l -0.125024,0.04224 -0.04189,-0.127422 c -0.284149,0.151168 -0.139045,0.444017 -0.04189,0.679491 l 0.208829,0.04206 0.166916,-0.211888 v 0.04206 c -0.150995,0.122493 -0.246055,0.368697 -0.166916,0.552251 l -0.125024,0.127248 0.208308,-0.169831 0.166915,0.04258 -0.08329,0.211891 0.208309,-0.04258 -0.166936,0.08519 c 0.05973,0.157498 0.130051,0.182492 0.292117,0.169832 v 0.04206 l -0.08328,0.04258 0.166916,0.170004 -0.125024,-0.04258 -0.04189,0.127248 0.250212,0.04258 v 0.08465 l 0.166914,-0.04206 -0.04189,-0.08519 v -0.04206 h -0.166423 l 0.166399,-0.04258 v 0.04258 l 0.166934,0.04206 -0.08311,0.169831 h 0.208135 v 0.04258 l -0.125024,0.08465 0.542156,0.04258 c 0.06736,0.193412 0.323804,0.19517 0.500771,0.254654 l -0.291901,-0.212112 v -0.04258 l 0.542156,0.12725 v -0.12725 h 0.500769 l -0.04174,-0.127248 c -0.347007,0.02114 -0.595661,-0.26187 -0.876176,-0.424306 l 0.04189,-0.127422 -0.333847,-0.169831 0.291944,0.04258 c -0.06251,-0.134998 -0.202075,-0.267854 -0.20225,-0.424308 -1.72e-4,-0.137972 0.391162,-0.599766 0.500253,-0.707998 0.125196,-0.12372 0.352201,-0.19429 0.381293,-0.393862 0.03827,-0.262572 -0.494537,-0.170004 -0.487438,-0.47059 0.0059,-0.250783 0.325015,-0.340185 0.517392,-0.33772 0.09731,-0.2536 0.134538,-0.491008 0.375233,-0.636901 l -0.16659,-0.127248 0.417136,0.04258 c -0.05542,-0.342281 -0.518092,-0.09396 -0.458871,-0.636885 0.489342,0.162102 1.121712,0.114742 0.834097,-0.594133 0.426486,0.10331 1.838408,0.02286 1.810359,-0.670337 -0.01458,-0.361302 -0.430816,-0.519341 -0.517222,-0.815353 0.367614,0.227378 1.076865,0.426772 1.456077,0.142364 0.273938,-0.205025 0.461467,-0.589559 0.754447,-0.736156 v -0.04258 H 49.14365 l 0.500771,-0.467073 -0.333846,0.381895 v 0.04258 c 0.335578,-0.116143 0.440684,-0.43469 0.671329,-0.677376 0.107359,-0.11317 0.264412,-0.19781 0.329346,-0.345817 0.09195,-0.209777 0.01343,-0.455984 0.100607,-0.672451 0.135573,-0.336134 0.729165,-0.644818 1.067861,-0.553655 0.215233,-0.380135 0.620593,-0.18673 0.955306,-0.268735 0.166762,-0.04084 0.292636,-0.189184 0.463024,-0.240928 l 0.44103,-0.810248 0.281033,-0.929917 0.0703,-0.976028 c 0.271856,0.105957 0.353586,-0.203618 0.509254,-0.38031 0.326747,-0.371334 0.752196,-0.579704 0.693148,-1.147441 -0.0651,-0.624756 -0.368305,-0.496463 -0.785441,-0.762555 -0.28415,-0.181436 -0.507003,-0.436979 -0.834096,-0.548732 -0.203635,-0.06951 -0.41783,-0.02659 -0.625965,-0.07144 -0.332114,-0.07162 -0.591331,-0.190778 -0.917385,-0.01823 0.126404,-0.316782 -0.179211,-0.383832 -0.417136,-0.474995 -0.503368,-0.193235 -0.753753,-0.199746 -1.126214,0.220515 l -0.166935,-0.08465 v -0.04258 c 0.248656,-0.03063 0.387701,-0.114378 0.417136,-0.381893 L 49.810816,57.13707 v -0.04258 h 0.0838 v -0.04258 l -0.125023,-0.04206 c 0.278262,-0.173534 -0.229954,-0.694978 -0.33402,-0.976558 l -0.125024,0.04258 C 48.94484,55.48613 48.15334,55.667574 47.600275,55.564619 c -0.225104,-0.0417 -0.3922,-0.194465 -0.62579,-0.210305 -0.06736,-0.434515 -0.609512,-0.509132 -0.959289,-0.42448 l 0.125024,-0.12725 -0.667174,-0.424481 h 0.208826 v -0.04258 l -1.043099,0.153278 -0.912365,-0.0938 -0.672713,-0.229313 0.04189,-0.127249 h -0.167088 l 0.04189,0.169832 -0.458866,0.127249 c 0.03169,0.228256 0.155482,0.371335 -0.0838,0.509661 l -0.04139,-0.679489 0.250212,-0.08465 v -0.08519 c -0.249867,-0.06125 -0.444148,0.123547 -0.667175,0.221567 -0.362938,0.159455 -0.847777,0.05931 -0.876174,0.58516 -0.219564,0.03378 -0.380772,0.152587 -0.416962,0.381894 h -0.04189 c -0.359461,-0.620182 -1.237542,-0.241278 -1.752165,-0.127422 -0.122088,-0.215761 -0.42389,-0.328392 -0.460425,-0.594134 -0.03827,-0.279116 0.317053,-0.714335 0.167454,-0.956317 -0.266491,-0.431522 -1.307163,-0.07989 -1.708714,-0.06247 0.18251,-0.224738 0.278264,-0.425186 0.291422,-0.72155 l 0.125715,0.08519 c 0.09731,-0.195876 0.150479,-0.480799 0.37523,-0.551548 v -0.297243 c -0.302158,0.0732 -0.622153,0.06405 -0.917041,0.180573 -0.293154,0.115798 -0.326573,0.526556 -0.626308,0.672272 -0.79912,0.388757 -1.907326,-0.02094 -1.482917,-1.065253 0.103539,-0.255006 0.206401,-0.516524 0.312375,-0.764139 0.172478,-0.402485 0.662325,-0.360775 0.836695,-0.72155 h 1.626984 l -0.125023,-0.08465 c 0.06841,-0.115971 0.111519,-0.07901 0,-0.169831 0.490552,-0.102951 0.858859,-0.05192 1.334521,-0.01937 0.14267,0.0096 0.274974,-0.102063 0.412459,-0.02886 0.238957,0.127057 0.314801,1.198827 0.781979,0.99785 0.522935,-0.224912 -0.149614,-0.96459 -0.02753,-1.288936 0.179384,-0.476047 1.136431,-0.854068 1.586294,-0.976556 l -0.04189,-0.127248 0.291943,-0.12725 h -0.166915 v -0.04258 l 0.125197,-0.04206 -0.04139,-0.6369 h 0.04139 l 0.08363,0.212418 -0.08363,0.211888 c 0.180611,-0.08924 0.320859,-0.215409 0.250559,-0.424306 0.233068,0.0094 0.370381,-0.109123 0.417134,-0.339658 l 0.458521,-0.04224 v -0.04258 h -0.208308 v -0.04258 l 0.750981,-0.08465 c -0.198263,-0.574249 1.081023,-0.791243 1.501447,-0.848789 v 0.04206 l -0.375233,0.297245 c 0.256101,0.08148 1.248118,-0.188302 1.334349,-0.466545 h 0.0419 c 0.08538,0.09593 0.145624,0.05754 0.208827,-0.04258 l -0.125522,-0.127258 -0.292117,0.25448 h -0.291425 l 0.166399,-0.12725 v -0.04258 l -0.542154,-0.08465 0.333847,0.25448 c -0.233702,-0.08568 -0.454306,-0.133214 -0.458808,-0.42429 h -0.292116 v -0.04258 l 0.417136,-0.08483 v -0.08519 c -0.427006,-0.145893 -0.964311,0.01823 -1.334522,0.255182 v 0.04207 l -0.166917,0.04258 0.166917,-0.08465 c 0.789079,-0.869022 2.235805,-0.328389 3.21172,-0.84896 -0.0717,-0.275948 -0.255407,-0.304107 -0.500945,-0.382246 l 0.04189,-0.08465 -0.917388,-0.297241 c 0.01246,-0.21805 -0.393585,-0.637606 -0.62579,-0.580056 -0.170196,0.04224 -0.272029,0.21787 -0.45904,0.241454 -0.258349,0.03256 -0.400857,-0.145893 -0.333327,-0.382773 -0.415229,0.02815 -0.895741,-0.34036 -1.322573,-0.138508 -0.18579,0.08799 -0.237053,0.393509 -0.429603,0.520219 v 0.08519 c 0.492631,0.345637 -0.287616,0.595716 -0.584058,0.63637 l 0.08328,0.467071 c -0.360686,0.186539 -0.547524,0.129704 -0.612459,-0.08483 h 0.15393 l -0.171769,-0.06986 c -0.01553,-0.09679 -0.01362,-0.215937 0.0049,-0.354967 l -1.66837,-0.169295 0.08329,-0.255183 -0.20831,0.04258 c 0.474798,-0.669634 1.653305,-0.878177 2.377448,-1.145856 v 0.04258 l -0.375748,0.16984 v 0.04206 l 1.043097,-0.08465 v -0.04258 L 41.88565,43.088143 h -0.04139 l 0.166397,-0.04258 h 0.0419 0.04189 l 0.542123,-0.339305 h 0.166915 V 42.57901 l 0.584061,-0.0426 -0.20883,0.212066 v 0.04258 l 0.58406,-0.08483 v 0.08483 l -1.001195,0.381718 0.625965,-0.05631 1.167598,0.311325 -0.291596,-0.169831 v -0.04258 c 0.217484,0.02975 0.458172,0.158573 0.583539,-0.08465 l -0.417161,-0.169821 v -0.08519 l 0.04189,-0.04206 c 0.325364,0.112633 0.509947,0.220689 0.792887,-0.04258 L 44.429901,42.62107 v -0.04206 h 0.125196 c -0.170555,-0.187786 -0.45384,-0.262928 -0.750975,-0.282814 z m -0.333329,0.282814 0.04174,0.08465 h -0.08363 z m -1.501445,0.212063 v 0.04258 l -0.167088,0.04206 z m 8.217171,0.297068 c 0.226318,0.274013 1.039289,0.49875 1.376428,0.424483 v -0.08483 C 51.143544,43.18734 50.651085,43.158653 50.186676,43.08808 Z m -8.885037,0.0142 0.014,0.014 c -0.02062,0.0071 -0.04553,-0.014 -0.014,-0.014 z m 1.335042,0.15556 v 0.08465 l 0.08329,-0.08465 z m -0.667176,0.169832 -0.33402,0.04224 v 0.04258 z m 12.38818,1.230683 0.667695,0.551721 h -0.166916 l 0.125023,0.08519 v 0.04206 h -0.125023 v 0.04258 c 0.277743,0.164556 0.53644,0.572665 0.876002,0.424482 v -0.08483 l -0.375579,-0.339659 1.059897,0.864454 0.07774,0.01012 c -0.0052,-0.0069 -0.01036,-0.01382 -0.01535,-0.02078 -0.0058,-0.0081 -0.01208,-0.01631 -0.01746,-0.0243 -0.0033,-0.0043 -0.0058,-0.0092 -0.0085,-0.01362 l -5.21e-4,-5.25e-4 c -0.0081,-0.0059 -0.01535,-0.01247 -0.02286,-0.0188 -0.0085,-0.0067 -0.01668,-0.01362 -0.02442,-0.02129 -0.0073,-0.0067 -0.0142,-0.01344 -0.02095,-0.02078 -0.0035,-0.0035 -0.0058,-0.0071 -0.009,-0.01055 h -5.21e-4 c -0.01074,-1.74e-4 -0.02405,-0.0049 -0.03792,-0.01573 -0.0036,-0.0029 -0.0073,-0.0063 -0.01094,-0.0096 -0.0038,-0.0036 -0.0076,-0.0069 -0.0115,-0.01012 -0.0035,-0.0029 -0.0067,-0.0052 -0.01012,-0.0081 -0.0031,-0.0027 -0.0058,-0.0054 -0.009,-0.0081 -0.0025,-0.0023 -0.0049,-0.0043 -0.0074,-0.0067 -0.004,-0.0035 -0.0081,-0.0067 -0.01208,-0.01055 -0.0042,-0.0043 -0.0083,-0.0096 -0.01246,-0.0142 -0.0058,-0.0066 -0.0117,-0.01285 -0.01727,-0.01918 -0.0056,-0.0061 -0.01056,-0.01266 -0.01611,-0.01879 -0.0059,-0.0071 -0.01246,-0.01382 -0.0188,-0.02078 -0.0058,-0.0061 -0.01246,-0.01227 -0.01841,-0.01823 -0.0058,-0.0058 -0.0117,-0.01208 -0.01746,-0.01785 -0.0052,-0.0049 -0.01012,-0.0096 -0.01535,-0.014 -0.0049,-0.0042 -0.0098,-0.0085 -0.01458,-0.01266 -0.0031,-0.0027 -0.0056,-0.0054 -0.0085,-0.0081 -0.0081,-0.0027 -0.01707,-0.0074 -0.0258,-0.01631 -0.004,-0.0042 -0.0074,-0.0085 -0.0115,-0.01246 -0.0058,-0.0058 -0.0115,-0.01208 -0.01707,-0.01785 -0.0073,-0.0076 -0.0142,-0.01553 -0.02095,-0.02342 -0.0066,-0.0076 -0.01266,-0.01553 -0.01939,-0.02323 -0.0046,-0.0056 -0.0094,-0.01132 -0.014,-0.01687 -0.0029,-0.0035 -0.0056,-0.0069 -0.0085,-0.01012 -0.004,-0.0043 -0.0085,-0.0087 -0.01285,-0.01266 -0.0073,-0.0067 -0.01477,-0.01323 -0.02233,-0.01989 -0.0066,-0.0056 -0.01324,-0.01132 -0.01993,-0.01669 -0.0063,-0.0051 -0.01285,-0.01002 -0.01956,-0.01458 -0.0071,-0.0052 -0.01439,-0.01012 -0.0218,-0.01477 -0.0085,-0.0051 -0.01727,-0.01074 -0.02545,-0.01611 -0.0061,-0.0043 -0.01208,-0.0087 -0.01803,-0.01304 -0.0035,-0.0027 -0.0066,-0.0058 -0.01002,-0.0087 -0.0036,-0.0033 -0.0021,-0.0059 -0.0043,-0.0092 -0.0035,-1.76e-4 -0.0076,-0.0029 -0.01343,-0.0087 -0.0023,-0.0021 -0.0042,-0.0042 -0.0063,-0.0066 -0.0029,-0.0031 -0.0054,-0.0061 -0.0081,-0.0092 -0.0018,-0.0025 -0.0027,-0.0035 -0.0043,-0.0051 -0.0038,-0.0038 -0.0076,-0.0071 -0.0115,-0.01074 -0.0046,-0.0042 -0.0092,-0.0083 -0.01344,-0.01266 -0.0051,-0.0046 -0.01036,-0.01002 -0.01535,-0.01458 -0.0054,-0.0051 -0.01036,-0.01036 -0.01591,-0.01515 -0.0038,-0.0035 -0.0076,-0.0066 -0.0115,-0.0098 -0.004,-0.0033 -0.0078,-0.0066 -0.01227,-0.0098 -0.0038,-0.0033 -0.0074,-0.0066 -0.0115,-0.0098 -0.0042,-0.0035 -0.0087,-0.0066 -0.01285,-0.01012 -0.0035,-0.0031 -0.0071,-0.0059 -0.01036,-0.0092 -0.0035,-0.0029 -0.0063,-0.0056 -0.0096,-0.0087 -0.0035,-0.0033 -0.0067,-0.0063 -0.01002,-0.0098 -0.0051,-0.0049 -0.0096,-0.0098 -0.01458,-0.01458 -0.004,-0.0043 -0.0083,-0.0089 -0.01246,-0.01304 -0.0035,-0.0038 -0.0063,-0.0076 -0.01002,-0.01132 -0.0029,-0.0027 -0.0058,-0.0049 -0.0085,-0.0074 -0.0021,-0.0018 -0.0043,-0.0038 -0.0066,-0.0056 -0.0033,-0.0025 -0.0066,-0.0046 -0.01002,-0.0071 -0.0036,-0.0033 -0.0073,-0.0066 -0.01094,-0.0098 -0.0058,-0.0046 -0.01094,-0.0098 -0.01649,-0.01458 -0.0058,-0.0051 -0.0117,-0.01036 -0.01707,-0.01591 -0.0054,-0.0049 -0.01074,-0.01012 -0.01591,-0.01515 -0.0038,-0.0038 -0.0076,-0.0071 -0.0115,-0.01056 -0.0025,-0.0025 -0.0046,-0.0049 -0.0071,-0.0067 -0.002,-0.0015 -0.0023,-0.0021 -0.004,-0.0036 -1.72e-4,-5.27e-4 -5.19e-4,-0.0011 -0.001,-0.0015 -1.74e-4,-1.75e-4 -6.94e-4,3.52e-4 -8.64e-4,-5.25e-4 l -5.21e-4,-5.3e-4 c -0.0036,-0.0027 -0.0069,-0.0052 -0.01012,-0.0087 -0.0027,-0.0029 -0.0052,-0.0054 -0.0081,-0.0081 -0.0042,-0.0043 -0.009,-0.0083 -0.01343,-0.01266 -0.0081,-0.0073 -0.01669,-0.01439 -0.02494,-0.02183 v -10e-4 c -0.0078,-0.0069 -0.01285,-0.01382 -0.01649,-0.02078 -0.02666,-0.01803 -0.05419,-0.03466 -0.08016,-0.05367 -0.01477,-0.01132 -0.02944,-0.02269 -0.04381,-0.03449 -0.02634,-0.01649 -0.05593,-0.03081 -0.08174,-0.04768 -0.287267,-0.187248 -0.574534,-0.440674 -0.917905,-0.511069 z m -8.425653,0.04258 v 0.04258 l -0.166935,0.04206 z m 0.917387,0.424483 c -0.371941,0.03434 -0.623364,0.429763 -0.750461,0.76414 h 1.001193 v 0.04206 l -0.166934,0.04258 v 0.04258 l 0.458865,-0.127249 -0.04174,0.127249 c 0.171768,0.06071 0.275318,0.06669 0.333328,-0.127249 h -0.250197 l 0.125196,-0.212595 -0.16657,0.04258 -0.04174,-0.04258 0.04174,-0.127248 -0.750981,-0.08465 z m -1.96031,0.297066 c 0.128495,0.172651 0.385447,0.16824 0.584058,0.169832 z m -5.047011,0.467074 0.04138,0.169293 0.166916,-0.04206 0.04189,0.297068 -0.834271,-0.04258 0.08329,-0.0426 v -0.04206 l -0.917386,0.211891 c 0.30995,-0.316076 0.989765,-0.508782 1.418157,-0.508958 z m 5.088914,0.438561 0.01382,0.01362 c -0.02062,0.0069 -0.04571,-0.01362 -0.01382,-0.01362 z m -4.338451,0.02779 v 0.04258 h -0.08329 v 0.04258 l 0.167089,0.04258 c 0.124334,-0.175451 0.263719,-0.108413 0.416963,0 -0.105804,0.184621 -0.2303,0.110695 -0.375232,0 l 0.04139,0.169487 -0.375231,0.339657 -0.0419,-0.212418 -0.291945,0.08519 v -0.04258 c 0.197919,-0.167549 0.182683,-0.264333 -0.04139,-0.381894 z m -0.667175,0.04258 c -0.09385,0.18232 -0.268739,0.206787 -0.402763,0.349336 -0.238265,0.2536 -0.160356,0.52462 -0.556529,0.626869 -0.03031,-0.341065 0.185445,-0.517579 0.375233,-0.763787 l -0.08329,0.04224 c 0.164155,-0.189358 0.428911,-0.221921 0.667348,-0.254655 z m 16.935285,0.212418 0.165535,0.116143 c -0.0027,-0.0033 -0.0056,-0.0059 -0.0085,-0.0092 -0.0052,-0.0054 -0.01012,-0.01094 -0.01535,-0.01669 -3.46e-4,-5.3e-4 -5.2e-4,-0.0011 -10e-4,-0.0015 -0.0061,-0.0043 -0.01227,-0.0089 -0.01861,-0.01304 -0.01631,-0.0115 -0.03187,-0.02428 -0.04728,-0.03697 -0.0085,-0.0069 -0.0046,-0.004 -0.0115,-0.0092 -0.0056,-0.0042 -0.01012,-0.0089 -0.01496,-0.01304 z m -15.108479,0.08483 c 0.0819,-0.0029 0.157403,-0.002 0.217313,0 -0.162255,0.248669 -0.610206,0.17827 -0.876174,0.212416 0.110293,-0.160662 0.413153,-0.204144 0.658861,-0.212416 z m -8.667899,0.04258 -0.0412,0.211888 h -0.04189 z m 8.134229,0.254478 v 0.04258 c -0.332287,0.09222 -0.838772,0.408643 -1.168117,0.21189 z m -0.95929,0.0989 c 0.0322,0 0.0066,0.02112 -0.014,0.0142 z m 17.018576,0.495405 c 0.191679,0.420786 0.651763,1.08039 1.014527,1.372001 0.20121,0.161737 0.477049,0.241984 0.695746,0.410755 h 0.04189 l 0.368132,-0.04206 -0.002,-0.0021 c -10e-4,0.0012 -0.0035,7.04e-4 -0.0043,-0.0021 -0.0013,-0.0029 -0.0027,-0.0052 -0.004,-0.0081 l -0.0015,-0.0015 c -10e-4,-0.0012 -0.0023,-0.0023 -0.0031,-0.0036 -0.0013,-0.0018 -3.44e-4,-0.0021 8.68e-4,-0.0031 -0.0089,-0.01208 -0.01746,-0.02394 -0.02631,-0.03608 -0.01631,-0.02234 -0.03238,-0.04472 -0.04832,-0.06741 -0.0052,-0.0073 -0.0046,-0.01304 -0.0056,-0.01918 -0.0046,0 -0.0067,0.004 -0.0035,0.01458 0,3.52e-4 5.18e-4,0.0011 0,0.0011 -3.48e-4,0 1.71e-4,-7.03e-4 -5.2e-4,-0.0011 -0.0011,-0.0027 -0.0027,-0.0054 -0.004,-0.0081 -0.0018,-0.0033 -0.004,-0.0056 -0.0058,-0.0087 -0.004,-0.0054 -0.0078,-0.01132 -0.0117,-0.01669 -0.0029,-0.0042 -0.0058,-0.0083 -0.0089,-0.01228 -0.0033,-0.0038 -0.0061,-0.0073 -0.009,-0.01112 -0.0023,-0.0033 -0.0046,-0.0066 -0.0071,-0.0098 -0.0018,-0.0027 -0.0036,-0.0051 -0.0054,-0.0074 -0.0021,-0.0029 -0.004,-0.0052 -0.0059,-0.0081 -0.0011,-0.0021 -0.0031,-0.0043 -0.0043,-0.0061 -0.0025,-0.0033 -0.0042,-0.0069 -0.0069,-0.01012 -0.0023,-0.0031 -0.0052,-0.0059 -0.0074,-0.0092 -0.0023,-0.0027 -0.004,-0.0056 -0.0059,-0.0087 -0.0025,-0.0031 -0.0049,-0.0063 -0.0074,-0.0096 -0.0033,-0.0043 -0.0061,-0.0085 -0.0094,-0.01266 -0.0031,-0.0042 -0.0059,-0.0087 -0.009,-0.01266 -0.0031,-0.0038 -0.0054,-0.0073 -0.0081,-0.01132 -0.0029,-0.0038 -0.0054,-0.0073 -0.0081,-0.01112 -0.004,-0.0051 -0.0078,-0.01055 -0.0115,-0.01573 -0.0029,-0.004 -0.0054,-0.0073 -0.0081,-0.01132 -0.0015,-0.002 -0.0031,-0.0046 -0.0043,-0.0071 -0.0025,-0.0036 -8.65e-4,-0.0058 -0.0021,-0.0092 L 59.149,48.981662 c -0.0021,-0.0029 -0.004,-0.0056 -0.0058,-0.0087 -0.0049,-0.0076 -0.0092,-0.01573 -0.01285,-0.02374 -0.0038,-0.0083 -0.0071,-0.01669 -0.01055,-0.02482 -0.0023,-0.0056 -0.0038,-0.01112 -0.0058,-0.01668 -0.002,-0.0042 -0.0035,-0.0085 -0.0051,-0.01266 -0.0011,-0.0036 -0.0029,-0.0071 -0.004,-0.01074 -0.0015,-0.0042 -0.0036,-0.0081 -0.0056,-0.01227 -0.0023,-0.0049 -0.0042,-0.0094 -0.0069,-0.0142 -0.0027,-0.0052 -0.0052,-0.01094 -0.0081,-0.01611 -0.0011,-0.0023 -0.0023,-0.0043 -0.0035,-0.0071 -1.75e-4,-3.54e-4 1.72e-4,-8.79e-4 -5.21e-4,-0.0011 -0.0023,-0.0033 -0.0046,-0.0061 -0.0069,-0.0092 -0.02164,-0.01246 -0.04329,-0.03272 -0.06285,-0.06284 -0.0071,-0.01112 -0.01382,-0.02287 -0.02094,-0.03397 -0.0087,-0.01458 -0.01746,-0.02868 -0.02633,-0.04312 -0.0074,-0.01112 -0.01382,-0.02253 -0.02043,-0.03397 -0.0054,-0.0098 -0.0117,-0.01861 -0.01746,-0.02799 -0.0074,-0.01036 -0.01382,-0.02183 -0.02094,-0.03238 -0.01055,-0.01573 -0.02112,-0.03169 -0.03134,-0.04768 -0.0098,-0.01458 -0.01765,-0.02975 -0.02701,-0.04452 -0.0094,-0.01535 -0.01939,-0.03081 -0.02891,-0.04629 -0.0094,-0.01439 -0.01687,-0.02975 -0.02633,-0.044 -0.0092,-0.014 -0.01803,-0.02833 -0.02736,-0.04206 -0.01012,-0.01631 -0.02132,-0.03169 -0.03291,-0.04666 -0.01515,-0.01972 -0.03031,-0.03978 -0.04589,-0.05897 -0.01956,-0.02374 -0.03861,-0.04768 -0.05886,-0.07091 -0.02095,-0.02446 -0.04242,-0.04839 -0.0632,-0.07304 -0.01669,-0.01935 -0.03272,-0.03907 -0.04935,-0.05823 -0.01727,-0.01971 -0.0343,-0.03996 -0.05125,-0.05982 -0.01707,-0.01989 -0.0348,-0.03908 -0.05246,-0.05843 -0.01535,-0.01611 -0.03046,-0.03272 -0.04571,-0.0491 -0.01246,-0.01342 -0.02597,-0.0264 -0.03895,-0.03959 -0.0163,-0.01687 -0.03324,-0.03343 -0.05039,-0.04962 -0.0018,-0.0015 -0.0033,-0.0036 -0.0049,-0.0051 z m 1.752177,1.824819 0.08311,0.382421 c -0.473411,0.27014 0.07065,0.592199 -0.02736,0.933438 -0.05074,0.176871 -0.245363,0.205555 -0.324841,0.352329 -0.136954,0.252717 -0.286922,1.019322 -0.237745,1.30266 0.05818,0.336137 0.42735,0.607862 0.492806,0.976556 0.08363,0.471295 -0.03618,0.920769 0.258177,1.345253 0.209693,0.302522 0.579037,0.535178 0.820765,0.822917 0.02112,0.02517 0.04207,0.05508 0.0632,0.08325 5.2e-4,-0.0031 0.001,-0.0058 0.0015,-0.0087 0.0029,-0.01989 0.0073,-0.03959 0.01208,-0.05897 0.0031,-0.01208 0.0061,-0.02374 0.01036,-0.03537 0.0029,-0.0071 0.0058,-0.01382 0.0085,-0.02078 0.0029,-0.0066 0.0059,-0.01285 0.009,-0.01935 0.0027,-0.0063 0.0058,-0.01246 0.009,-0.01823 0.0011,-0.0018 0.0027,-0.0042 0.0031,-0.0054 v -5.3e-4 c 10e-4,-0.0043 0.0029,-0.009 0.004,-0.01304 0.0027,-0.0096 0.0056,-0.01861 0.0085,-0.02799 0.0021,-0.0073 0.004,-0.01439 0.0066,-0.02183 0.0025,-0.0087 0.0049,-0.01727 0.0078,-0.0257 0.0027,-0.0081 0.0052,-0.01591 0.0078,-0.02394 0.0025,-0.0066 0.0042,-0.01304 0.0059,-0.01971 0.0027,-0.0076 0.0046,-0.01573 0.0069,-0.02342 0.0027,-0.0083 0.0043,-0.0163 0.0066,-0.02482 0.0029,-0.01012 0.0056,-0.02024 0.0081,-0.03044 0.0023,-0.01012 0.0051,-0.01989 0.0081,-0.02993 8.64e-4,-0.0052 0.0036,-0.01036 0.0049,-0.01573 0.0021,-0.0056 0.0031,-0.0115 0.0043,-0.01727 0.0023,-0.0096 0.0043,-0.01899 0.0069,-0.02833 0.0027,-0.0098 0.0052,-0.01937 0.0076,-0.02904 0.0013,-0.0073 0.0033,-0.01382 0.0043,-0.0213 8.67e-4,-0.0067 0.0031,-0.01344 0.0042,-0.02024 0.0015,-0.0066 0.0038,-0.01323 0.0059,-0.01971 10e-4,-0.0038 0.0029,-0.0069 0.0035,-0.01074 0.0021,-0.0063 0.004,-0.01285 0.0059,-0.01918 0.0029,-0.0071 0.0052,-0.0142 0.0074,-0.02129 0.0027,-0.0067 0.0052,-0.01323 0.0069,-0.02024 0.0021,-0.0073 0.004,-0.01458 0.0063,-0.02183 0.0013,-0.0049 0.0046,-0.01002 0.0059,-0.01477 0.0011,-0.0042 0.0029,-0.0089 0.004,-0.01304 0.0021,-0.0056 0.0035,-0.01094 0.0051,-0.01668 10e-4,-0.0049 0.0027,-0.01012 0.004,-0.01515 6.93e-4,-0.0061 0.0018,-0.01227 0.0025,-0.01823 1.72e-4,-5.25e-4 0,-0.0011 0,-0.0015 0.0013,-0.0094 0.0029,-0.01861 0.0043,-0.02779 0.0013,-0.0073 0.0035,-0.01458 0.0056,-0.02183 0.0011,-0.0056 0.0027,-0.01112 0.004,-0.01669 0.0015,-0.0074 0.0036,-0.01553 0.0058,-0.02286 8.65e-4,-0.0021 0.001,-0.0042 0.0015,-0.0059 0.0051,-0.02094 0.014,-0.03309 0.02442,-0.04118 0.0013,-0.0042 0.0025,-0.0085 0.0035,-0.01266 -0.0058,-0.01591 -0.0081,-0.03677 -0.0049,-0.06176 0.0035,-0.02607 0.0069,-0.05192 0.01094,-0.07761 0.0035,-0.02058 0.0066,-0.041 0.01055,-0.06145 0.0025,-0.01304 0.0054,-0.02659 0.0089,-0.03959 0.0027,-0.0094 0.0056,-0.01841 0.0085,-0.02779 0.0035,-0.0098 0.0059,-0.0197 0.009,-0.02939 0.0046,-0.01496 0.0098,-0.02993 0.01496,-0.04472 0.004,-0.01132 0.0074,-0.02253 0.0115,-0.03397 0.0036,-0.01151 0.0081,-0.02289 0.01208,-0.03449 0.0036,-0.01112 0.0073,-0.02183 0.01094,-0.03291 0.0027,-0.0081 0.0052,-0.01611 0.0074,-0.02429 0.0031,-0.01094 0.0061,-0.02166 0.0096,-0.03256 0.0033,-0.01132 0.0073,-0.02253 0.01036,-0.03397 0.0035,-0.01012 0.0058,-0.02058 0.0085,-0.03081 0.0035,-0.01208 0.0069,-0.02374 0.01012,-0.03555 0.0036,-0.01304 0.0069,-0.02622 0.01012,-0.03959 0.0023,-0.009 0.004,-0.01823 0.0058,-0.02727 5.2e-4,-0.01002 0.0011,-0.01953 0.0021,-0.02939 0.0011,-0.01208 0.0027,-0.02411 0.004,-0.03608 0.0011,-0.0083 0.0027,-0.01669 0.0043,-0.02482 0.0011,-0.0074 0.0027,-0.01477 0.004,-0.02235 0.0025,-0.01458 0.0042,-0.02956 0.0074,-0.044 0.0054,-0.02551 0.01208,-0.05085 0.01785,-0.07621 0.0038,-0.01631 0.0076,-0.03273 0.0117,-0.04908 0.002,-0.01515 0.004,-0.03009 0.0058,-0.04523 0.0035,-0.02886 0.0073,-0.0579 0.0115,-0.08658 0.0025,-0.01515 0.004,-0.03009 0.0066,-0.04523 0.0023,-0.01535 0.004,-0.03096 0.0058,-0.04665 0.0027,-0.02058 0.0058,-0.04135 0.009,-0.06176 0.0023,-0.01631 0.0058,-0.0322 0.009,-0.04822 0.0021,-0.01208 0.0049,-0.02374 0.0096,-0.03501 0.004,-0.0096 0.0098,-0.01803 0.01477,-0.02676 0.0035,-0.0054 0.0059,-0.01112 0.009,-0.01669 0.004,-0.0087 0.0085,-0.01727 0.01246,-0.02588 0.0042,-0.01002 0.0094,-0.01803 0.01535,-0.02445 0.0021,-0.01112 0.0038,-0.02235 0.0058,-0.03343 0.0031,-0.01496 0.0059,-0.02939 0.0081,-0.04452 0.001,-0.0071 0.0025,-0.01382 0.0036,-0.02094 v -3.51e-4 c -0.01573,-0.01707 -0.02649,-0.04559 -0.02442,-0.08536 10e-4,-0.01707 0.0018,-0.03397 0.0025,-0.05121 0.0015,-0.0257 0.0031,-0.05192 0.004,-0.07797 3.47e-4,-0.01937 0.0015,-0.03853 0.0027,-0.0579 3.47e-4,-0.01439 0.0018,-0.02868 0.0031,-0.04312 8.68e-4,-0.0083 0.002,-0.01649 0.0033,-0.02482 8.67e-4,-0.0033 0.0011,-0.0058 0.0013,-0.0092 3.47e-4,-0.01055 5.19e-4,-0.0213 10e-4,-0.03185 5.2e-4,-0.01055 0.0029,-0.02095 0.0033,-0.0315 1.72e-4,-0.014 0.0027,-0.02833 0.0031,-0.04258 1.72e-4,-0.02939 5.18e-4,-0.05879 5.18e-4,-0.08816 0,-0.01477 0,-0.02975 0,-0.04472 -8.67e-4,-0.0042 -0.0021,-0.0085 -0.0027,-0.01266 -0.0011,-0.0092 -0.0021,-0.01841 -0.0031,-0.02779 -8.65e-4,-0.0076 -0.002,-0.01573 -0.0033,-0.02342 -0.0018,-0.0089 -0.0033,-0.01785 -0.0042,-0.02676 -0.0013,-0.0073 -0.0027,-0.01458 -0.004,-0.02183 -0.0013,-0.0058 -0.002,-0.0117 -0.0033,-0.01727 -0.0011,-0.0067 -0.0029,-0.01362 -0.004,-0.02024 -0.0015,-0.01002 -0.002,-0.01971 -0.004,-0.02956 -0.0018,-0.0098 -0.0033,-0.01953 -0.0043,-0.02939 -6.9e-4,-0.0083 -0.0018,-0.01649 -0.0031,-0.02482 -10e-4,-0.0085 -0.0027,-0.01649 -0.0043,-0.02534 -0.0018,-0.0083 -0.0035,-0.01631 -0.0043,-0.02483 -10e-4,-0.0074 -0.0035,-0.01496 -0.0049,-0.02234 -0.0021,-0.0096 -0.0038,-0.01918 -0.0056,-0.02887 -0.0015,-0.0076 -0.0031,-0.01553 -0.0056,-0.02288 0,-1.77e-4 1.73e-4,-7.05e-4 0,-0.0011 -0.0081,-0.0043 -0.01227,-0.01477 -0.01707,-0.03449 -0.0035,-0.01631 -0.0066,-0.03272 -0.01002,-0.04911 -0.0035,-0.01823 -0.0067,-0.03642 -0.01055,-0.05474 -0.0023,-0.01132 -0.0043,-0.02269 -0.0063,-0.03397 -6.92e-4,-0.0031 -0.0021,-0.0058 -0.0031,-0.0087 -0.0015,-0.0052 -0.0025,-0.01074 -0.0043,-0.01573 -0.0021,-0.0071 -0.0042,-0.014 -0.0056,-0.0213 -0.0021,-0.01002 -0.004,-0.01953 -0.0058,-0.02939 -0.0021,-0.01112 -0.0043,-0.02234 -0.0056,-0.0336 -0.001,-0.01132 -0.0023,-0.02269 -0.0031,-0.03397 -3.47e-4,-0.01074 -0.0021,-0.02112 -0.0033,-0.03184 -0.0011,-0.01112 -0.0033,-0.022 -0.0042,-0.03291 -0.0021,-0.01458 -0.004,-0.02922 -0.0066,-0.04364 -0.0033,-0.01765 -0.0059,-0.03519 -0.0096,-0.0528 -0.0023,-0.01266 -0.0046,-0.02588 -0.0074,-0.03853 -1.72e-4,-0.0018 -10e-4,-0.0035 -0.0015,-0.0051 -0.004,0.0058 -0.0058,0.01591 -0.0043,0.03309 -6.93e-4,-0.0038 -0.002,-0.0071 -0.0031,-0.01074 -0.0021,-0.0096 -0.0042,-0.01937 -0.0063,-0.02886 -0.0043,-0.02024 -0.0089,-0.04047 -0.01285,-0.06088 -0.0033,-0.01323 -0.0056,-0.02676 -0.0085,-0.03995 -1.73e-4,-3.53e-4 1.73e-4,-8.8e-4 0,-0.0011 -6.93e-4,-0.0015 -0.0021,-0.0036 -0.0031,-0.0051 -0.0042,-0.0089 -0.0085,-0.01746 -0.01208,-0.0264 -0.0035,-0.0083 -0.0067,-0.01687 -0.0096,-0.02534 -0.0031,-0.01002 -0.0056,-0.01937 -0.0074,-0.02939 -0.0035,-0.01669 -0.0076,-0.0336 -0.0115,-0.05016 -0.0051,-0.02095 -0.01055,-0.0417 -0.01591,-0.06247 -0.0042,-0.01591 -0.0081,-0.03255 -0.01246,-0.04857 h -5.17e-4 c -0.0027,-0.0087 -3.47e-4,-0.01515 0.0025,-0.01937 -0.0023,-0.0069 -0.0046,-0.01362 -0.0074,-0.02078 -0.0049,-0.01227 -0.01012,-0.02394 -0.01535,-0.03589 -0.0059,-0.01382 -0.01246,-0.02799 -0.0188,-0.04172 -0.0058,-0.01247 -0.01189,-0.02463 -0.01803,-0.03696 -0.0038,-0.0074 -0.0074,-0.01535 -0.0115,-0.02286 -0.0029,-0.0054 1.74e-4,-0.0096 0.0031,-0.0096 3.45e-4,0 0.0029,-1.77e-4 0.0033,0 -0.001,-1.77e-4 -0.0027,1.73e-4 -0.0033,-0.0015 l -10e-4,-0.0027 c -0.0027,-0.0071 -0.0051,-0.014 -0.0074,-0.0213 -0.0029,-0.0083 -0.0049,-0.01649 -0.0074,-0.02482 -0.0031,-0.009 -0.0066,-0.01803 -0.0096,-0.0269 -0.002,-0.0058 -0.0036,-0.0119 -0.0054,-0.01785 -0.0035,-0.0061 -0.0071,-0.01246 -0.01055,-0.01861 -0.0081,-0.01535 -0.01553,-0.03081 -0.02338,-0.04629 -0.0076,-0.01591 -0.01553,-0.03133 -0.02336,-0.04716 -0.0056,-0.0115 -0.01112,-0.02305 -0.01707,-0.03432 -0.0059,-0.01132 -0.0096,-0.02342 -0.01344,-0.03554 -0.0036,-0.01094 -0.0073,-0.02217 -0.01094,-0.03291 -0.0029,-0.0081 -0.0052,-0.01611 -0.0085,-0.02394 -0.004,-0.0089 -0.0083,-0.01765 -0.01246,-0.0264 -0.0058,-0.0119 -0.01132,-0.02342 -0.01707,-0.03537 -0.0074,-0.01631 -0.01496,-0.03309 -0.02286,-0.04928 -0.009,-0.01803 -0.01727,-0.03626 -0.02649,-0.05421 -0.0058,-0.0115 -0.01094,-0.02305 -0.01591,-0.03503 -0.0051,-0.0117 -0.0096,-0.02342 -0.01323,-0.03555 -0.0021,-0.0063 -0.0036,-0.01305 -0.0056,-0.01971 -5.21e-4,-1.76e-4 -0.0021,-5.27e-4 -0.0031,-0.0021 -0.0035,-0.0059 -0.0066,-0.01246 -0.0096,-0.01861 -0.0033,-0.0074 -0.0036,-0.01515 -0.0074,-0.02234 -0.0035,-0.0073 -0.0073,-0.01515 -0.01094,-0.02235 -0.0035,-0.0066 -0.0067,-0.01323 -0.01055,-0.0197 -0.0027,-0.0043 -0.0049,-0.0092 -0.0074,-0.01362 -0.0027,-0.0052 -0.004,-0.01036 -0.0063,-0.01573 -0.0021,-0.0058 -0.0051,-0.01132 -0.0076,-0.01669 -0.0035,-0.0085 -0.0071,-0.01687 -0.01036,-0.02552 -0.0035,-0.0098 -0.0069,-0.01899 -0.01036,-0.02886 -5.18e-4,-0.0015 -0.002,-0.0031 -0.0027,-0.0043 -0.0018,-0.0038 -0.004,-0.0073 -0.0059,-0.01112 -0.0061,-0.01247 -0.01246,-0.02499 -0.01841,-0.0375 -0.0061,-0.01285 -0.01246,-0.02551 -0.01879,-0.03801 -0.0054,-0.01132 -0.0117,-0.022 -0.01707,-0.03309 -0.0042,-0.0087 -0.0081,-0.01746 -0.01208,-0.0264 -3.45e-4,-1.75e-4 -8.64e-4,-7.04e-4 -10e-4,-0.0011 -0.0025,-0.0036 -0.0049,-0.0073 -0.0074,-0.01055 -0.0054,-0.0074 -0.01074,-0.01535 -0.01553,-0.02323 -0.0051,-0.0078 -0.01012,-0.01573 -0.01535,-0.02342 -0.0085,-0.0117 -0.01765,-0.02286 -0.02545,-0.03501 -0.01055,-0.01591 -0.02043,-0.03256 -0.03031,-0.0491 -0.01112,-0.01918 -0.02217,-0.03838 -0.03238,-0.0579 -0.0081,-0.01515 -0.01649,-0.03044 -0.02442,-0.04559 -0.0066,-0.01228 -0.01285,-0.02411 -0.02009,-0.03608 -0.0054,-0.01002 -0.01036,-0.01972 -0.01631,-0.02939 -0.0059,-0.01012 -0.0117,-0.02058 -0.01803,-0.03027 -0.0092,-0.01515 -0.01765,-0.03027 -0.02683,-0.04523 -0.01012,-0.01649 -0.02009,-0.03343 -0.02996,-0.05016 -0.0083,-0.01477 -0.01649,-0.02956 -0.02442,-0.04472 -0.0073,-0.0142 -0.01362,-0.0285 -0.02043,-0.04312 -0.0058,-0.01227 -0.01227,-0.02463 -0.0188,-0.03642 -0.0029,-0.0049 -0.0059,-0.0096 -0.0096,-0.01362 -0.0042,-0.0056 -0.0078,-0.0119 -0.01208,-0.01785 -0.0096,-0.01285 -0.0188,-0.02605 -0.02703,-0.03995 -0.0013,-0.0029 -0.0035,-0.0056 -0.0049,-0.0081 l -0.0528,0.01266 z m -18.603828,1.14603 v 0.0426 h 0.166398 z m 0.458345,0 -0.04121,0.169831 h 0.04121 z m 17.060652,0.169831 v 0.127249 l 0.08363,-0.127249 z m 0.500771,0.04258 v 0.127248 l 0.08313,-0.127248 z m -0.292116,0.08465 v 0.08519 h 0.0833 v -0.08519 z m -17.602634,0.08519 -0.04189,0.169294 0.208828,0.127767 -0.08363,-0.297067 z m -1.251232,0.552247 c -0.300774,0.009 -0.721028,0.05913 -0.83462,0.381191 l 0.83462,-0.297067 -0.04189,0.127249 1.042577,0.08519 c 0.11083,0.200978 0.245191,0.211185 0.458867,0.211889 l -0.166916,0.212583 1.126214,-0.127422 c -0.206054,-0.166674 -0.54094,-0.201337 -0.792364,-0.276836 -0.561376,-0.16824 -1.03392,-0.334553 -1.626464,-0.316778 z m -0.250732,0.296542 -0.166935,0.04258 v 0.04206 l 0.166935,0.04258 z m 2.836485,0.04258 v 0.04206 h 0.20883 z m 0.511854,0.280347 c -0.136092,-0.0043 -0.277226,0 -0.428045,0.01631 v 0.04258 l 0.208135,0.04258 0.0838,0.211891 -0.667695,0.04258 v 0.04258 c 0.527089,0.203266 1.469757,0.06423 2.002216,-0.08519 v -0.08465 C 43.165662,52.222688 42.805496,52.125539 42.397539,52.11181 Z m 1.615556,0.271375 -0.0414,0.04206 v 0.08519 c 0.198267,0.05967 0.391164,0.07162 0.542157,-0.08519 z m -3.310937,0.154161 c -0.122953,-0.01112 -0.254543,0.0043 -0.359821,0.01573 0.186481,0.196051 0.421811,0.132351 0.667349,0.127249 -0.07065,-0.09434 -0.184582,-0.131814 -0.307528,-0.142901 z m 5.229863,0.354967 -0.166935,0.08519 0.0419,0.04206 z m -0.04189,0.212418 v 0.08467 h 0.08329 v -0.08467 z m -0.917386,1.145855 v 0.04206 h 0.125196 z m 1.126214,0.04206 -0.208828,0.04258 -0.04174,0.170005 c 0.161218,-0.01285 0.223374,-0.04645 0.250559,-0.212592 z m 3.670757,2.801548 -0.04189,0.127249 h 0.250039 v 0.04258 l -0.500251,0.254653 -0.04189,-0.170004 v -0.04206 z m -0.45904,0.509662 v 0.04206 h -0.166938 z m -13.681836,0.04206 -0.08329,0.169832 h 0.166916 l -0.08363,0.169832 0.166916,-0.04258 z m 14.265897,0.04258 v 0.04258 h -0.125025 z m -13.932051,0.08465 -0.04189,0.08519 h 0.0838 z m 28.913086,7.045493 c -0.01132,0.02993 -0.02201,0.0602 -0.03289,0.09029 5.19e-4,0.04541 -3.48e-4,0.09063 0.0027,0.136399 0.0074,-0.07584 0.01922,-0.15136 0.03031,-0.226673 z m 0.398609,0.274365 c -0.0021,0.02007 -0.0051,0.04013 -0.0069,0.0602 -0.0052,0.04982 -0.01036,0.09944 -0.01553,0.14923 0.01012,-0.05526 0.01991,-0.110695 0.02996,-0.165956 -0.0033,-0.01382 -0.0056,-0.02815 -0.0074,-0.04347 z m -0.05921,1.81373 c 1.73e-4,0.05563 6.93e-4,0.111213 8.67e-4,0.166839 0.01112,-0.05278 0.02078,-0.10611 0.03201,-0.158744 -0.01132,-0.0015 -0.02217,-0.0043 -0.03291,-0.0081 z m -23.037518,3.811895 0.0419,0.170005 h -0.0419 z m 0.0838,0.127422 h 0.08329 l -0.04189,0.12725 h -0.04138 z m 0.08329,0.678783 h 0.08311 v 0.08519 h -0.08311 z m -0.292118,0.212594 h 0.208829 v 0.169832 c -0.09992,-0.03501 -0.256792,-0.04206 -0.208829,-0.169832 z m 0,0.169832 v 0.08465 h -0.08311 z m -0.04189,0.33913 v 0.212593 L 42.13646,72.2465 Z m 0.166935,0.509659 0.125196,0.21189 -0.04138,-0.21189 z m 0.709251,0.04206 v 0.04258 l -0.166916,0.04258 z m 0.834098,0.169832 -0.20831,0.297243 h 0.292119 v 0.04258 l -0.208828,0.08465 0.125023,0.169832 -0.20831,-0.04258 v -0.169294 h -0.04174 l -0.04189,0.254478 h -0.04138 l -0.125023,-0.127248 v -0.04258 h 0.125023 c 10e-4,-0.282459 0.05818,-0.389284 0.333328,-0.46707 z m -0.58406,0.0426 v 0.04258 l -0.291435,0.04205 z m -0.709078,0.170005 v 0.04206 l 0.249174,0.04258 z m 1.084828,0.395973 c 0.03238,0 0.0067,0.02112 -0.01382,0.014 z m 1.668371,0.07092 v 0.04206 H 45.3063 Z m -1.418156,0.05631 c 0.0322,0 0.0066,0.02112 -0.014,0.0142 z m -0.333849,0.07091 v 0.04207 h 0.166916 z m 2.586277,2.41913 v 0.03765 c 0.0056,-0.0078 0.01112,-0.01573 0.01707,-0.02342 0.0027,-0.0035 0.0054,-0.0067 0.0081,-0.01012 z m -2.377448,2.291889 v 0.01074 c 1.73e-4,-0.0035 5.2e-4,-0.0069 8.65e-4,-0.01012 z m -0.250212,0.127422 -0.250733,0.04258 v 0.04258 l 0.250733,0.04206 z m 0.208308,0.254478 -0.500425,0.127249 v 0.04258 c 0.18978,-0.0015 0.385274,0.0012 0.500425,-0.169831 z m -0.208295,0.297062 c 0.03152,0.09784 0.09072,0.13657 0.162426,0.164382 0.0015,-0.01228 0.0035,-0.02445 0.0051,-0.03662 6.92e-4,-0.0092 0.0015,-0.01841 10e-4,-0.02779 v -0.04559 -0.04472 c -0.01535,0.01002 -0.03186,0.01823 -0.04347,0.03291 z m -3.462276,0.38242 -0.125197,0.127249 h -0.04174 c -0.112729,-0.158898 -0.577653,-0.06581 -0.667347,0.08465 h 1.001194 l -0.04189,-0.169831 -0.125025,0.08519 z m 3.503659,0.04206 -0.04139,0.127249 0.154966,0.05278 c -1.73e-4,-0.02358 -3.45e-4,-0.04716 5.19e-4,-0.07059 0,-0.0023 5.21e-4,-0.0046 5.21e-4,-0.0071 0,-3.55e-4 0,-5.28e-4 0,-0.0011 -1.73e-4,-0.0018 -1.73e-4,-0.0036 0,-0.0056 0,-1.78e-4 0,-7.06e-4 0,-0.0011 0,-8.79e-4 5.17e-4,-0.002 5.17e-4,-0.0031 1.75e-4,-0.0058 0,-0.0115 5.19e-4,-0.01727 1.76e-4,-0.0076 6.93e-4,-0.01515 0.001,-0.02269 v -0.02588 -0.0163 c -5.17e-4,-0.0035 -0.001,-0.0067 -0.001,-0.0096 z m -2.62766,0.08519 0.08311,0.21189 -1.751485,0.04258 c 0.188398,0.230192 0.479818,0.169831 0.750463,0.169831 v 0.04258 l -0.417134,0.04224 v 0.0426 l 0.95981,0.339658 v 0.04206 l -0.542676,0.01362 -0.917387,0.156098 c -0.05316,-0.181801 -0.153086,-0.23389 -0.333848,-0.254479 l 0.166936,0.211889 -0.58406,-0.211889 0.125024,0.169831 -0.333327,0.04206 c -0.04935,0.215584 -0.746655,0.412338 -0.95981,0.424482 l 0.04189,0.297066 c 0.303373,0.3606 0.406574,0.442963 0.876002,0.552251 l -0.0419,0.12725 h 0.166936 v 0.04206 h -0.291944 v 0.04258 l 1.54335,0.380837 0.876002,0.351801 1.46006,0.328569 v 0.04258 l -0.125024,0.04224 v 0.04258 h 1.209329 v 0.04258 l -0.333847,0.127248 v 0.04207 c 0.659555,0.0056 1.313917,0.07074 1.970355,0.120189 -0.01055,-0.02201 -0.01939,-0.04734 -0.0258,-0.07708 -0.0035,-0.014 -0.0013,-0.02922 -0.0043,-0.04312 -0.0025,-0.01823 -0.0073,-0.03643 -0.0117,-0.05421 -0.0094,-0.03202 -0.01861,-0.06389 -0.02927,-0.09537 -0.01132,-0.03132 -0.0232,-0.06264 -0.03499,-0.09379 -0.01094,-0.02779 -0.0218,-0.05508 -0.03238,-0.08306 -0.01055,-0.02764 -0.01803,-0.05631 -0.02736,-0.0843 -0.0085,-0.02605 -0.01727,-0.05209 -0.02649,-0.07797 -0.0059,-0.01823 -0.01227,-0.03642 -0.0188,-0.05438 -0.0067,-0.01823 -0.01246,-0.0373 -0.01803,-0.05632 -0.0049,-0.0197 -0.01036,-0.03942 -0.01535,-0.05931 -0.0073,-0.02551 -0.01305,-0.05139 -0.02043,-0.07709 -0.0081,-0.02779 -0.014,-0.05648 -0.02149,-0.08465 -0.0069,-0.0264 -0.01266,-0.05278 -0.01841,-0.07955 -0.0051,-0.02779 -0.01112,-0.05544 -0.01649,-0.08325 -0.0056,-0.02659 -0.01074,-0.05298 -0.01649,-0.07957 -0.0056,-0.02675 -0.01132,-0.05386 -0.01707,-0.08059 -0.0059,-0.03449 -0.01477,-0.06828 -0.02233,-0.102425 -0.0078,-0.03432 -0.01535,-0.06863 -0.02304,-0.102951 -0.0058,-0.03044 -0.01342,-0.06056 -0.02043,-0.09079 -0.0027,-0.01074 -0.0058,-0.02147 -0.0085,-0.03238 -0.0018,-0.0042 -0.0027,-0.0098 -0.004,-0.0142 -0.0027,-0.009 -0.0042,-0.01803 -0.0069,-0.02676 -0.0081,-0.02868 -0.01631,-0.05683 -0.02494,-0.08536 -0.0067,-0.01918 -0.01323,-0.03838 -0.01993,-0.05772 -0.04901,-0.0188 -0.09195,-0.06634 -0.08917,-0.169832 6.93e-4,-0.02605 -0.0021,-0.05192 -0.0043,-0.07761 -8.66e-4,-0.0085 -0.0015,-0.01687 -0.0027,-0.02534 -0.004,-0.01055 -0.0081,-0.02095 -0.01208,-0.0315 -0.01496,-0.04011 -0.03083,-0.08009 -0.0464,-0.12019 0,-1.77e-4 -1.73e-4,-7.06e-4 -5.19e-4,-0.0011 -0.247268,-0.0069 -0.486918,-0.04716 -0.663192,-0.252369 0.198783,0.08694 0.400684,0.135325 0.609512,0.101371 -0.0073,-0.02269 -0.01382,-0.04559 -0.02043,-0.06846 -0.0066,-0.02286 -0.01285,-0.04558 -0.01956,-0.06846 l -0.361207,-0.0922 v -0.04206 c 0.08971,0.0115 0.218006,0.0336 0.339909,0.05262 -0.0058,-0.02499 -0.01132,-0.04982 -0.01611,-0.07496 -0.0061,-0.03765 -0.0115,-0.07567 -0.01535,-0.113689 -0.0038,-0.02815 -0.0069,-0.05615 -0.0089,-0.08465 -0.0025,-0.02429 -0.0013,-0.04875 -0.0033,-0.07304 -0.0023,-0.02552 -0.0036,-0.05138 -0.0043,-0.07709 -0.002,-0.03116 -0.0036,-0.06195 -0.0049,-0.09327 -3.47e-4,-0.0054 -3.47e-4,-0.01132 -5.21e-4,-0.01669 -8.66e-4,-0.02112 6.93e-4,-0.04013 0.0035,-0.05772 -0.01056,-0.02746 -0.01727,-0.06056 -0.01746,-0.100493 0,-0.01573 1.75e-4,-0.03098 0,-0.04663 0,-0.0285 0,-0.05719 -10e-4,-0.08569 -6.93e-4,-0.03414 -0.0023,-0.06828 -0.0043,-0.102424 -0.0018,-0.02622 -0.0031,-0.05278 -0.0043,-0.07901 -1.75e-4,-0.0033 -5.19e-4,-0.0063 -5.19e-4,-0.0092 -0.0031,-0.01247 -0.0087,-0.0206 -0.0094,-0.03608 -0.0021,-0.04084 -0.0038,-0.08166 -0.0043,-0.122664 -0.0013,-0.05033 -0.0023,-0.100834 -0.0031,-0.150996 -1.75e-4,-0.0056 0,-0.01132 0,-0.01669 l -0.912539,-0.154678 -0.08311,0.08465 0.0412,0.169832 -1.20933,-0.08465 c -0.06667,-0.201682 -0.254712,-0.144664 -0.291941,0.04206 h -0.125196 v -0.04206 z m -2.794582,0.891379 v 0.08465 h 0.08311 v -0.08465 z m -1.08483,0.04207 c 0.11948,0.174224 0.386487,0.19605 0.58406,0.212417 v -0.04258 l -0.125196,-0.04258 v -0.04206 l 0.375233,0.127248 -0.03376,-0.175469 z m 0.800335,0.03696 0.117561,0.0056 -0.125196,-0.04258 z m 6.550878,0.02852 c -0.0029,0.02852 -0.0056,0.05703 -0.0081,0.08569 l 0.0058,5.28e-4 c 3.47e-4,-0.02886 0.0015,-0.05754 0.0021,-0.08623 z m 9.996362,0.11808 c -0.01132,0.04047 -0.02218,0.08077 -0.03342,0.121245 0.0018,-0.0038 0.0036,-0.0071 0.0054,-0.01074 0.0074,-0.02677 0.01496,-0.05333 0.0225,-0.08009 6.92e-4,-0.0029 0.0018,-0.0058 0.0027,-0.0087 0,-5.27e-4 -1.75e-4,-0.0011 0,-0.0015 10e-4,-0.0067 0.002,-0.01342 0.0031,-0.02024 z m -17.222568,0.240907 v 0.0426 h 0.125024 z m 1.835294,1.612928 v 0.04258 l 0.459039,0.12725 z"
     fill="url(#paint1_linear_140_570)"
     id="path8"
     style="fill:url(#paint1_linear_140_570);stroke-width:0.174567" />
  <path
     d="M 48.950855,87.678282 40.500266,86.937197 C 39.075531,86.81225 37.687502,86.410291 36.411681,85.752976 l -4.953332,-2.551471 c -1.889145,-0.973212 -3.546257,-2.35454 -4.855675,-4.047722 l -2.168963,-2.804715 c -1.123617,-1.452954 -2.025594,-3.069579 -2.675972,-4.795844 l -0.726914,-1.929706 c -0.724922,-1.924076 -1.1094,-3.963597 -1.135703,-6.024061 l -0.02476,-1.938684 c -0.03804,-2.981582 0.364357,-5.952081 1.193711,-8.811883 0.65765,-2.237685 1.542135,-4.399519 2.639606,-6.450833 L 24.50799,44.88157 c 1.094699,-2.063985 2.33866,-4.042263 3.721665,-5.918468 l 1.392011,-1.888704 c 1.586294,-2.152154 3.029386,-4.410252 4.319059,-6.75881 l 1.701095,-3.097033 c 0.662845,-1.207276 1.28777,-2.435671 1.873561,-3.683425 l 2.111477,-4.498793 c 0.606571,-1.292261 1.13695,-2.620177 1.588198,-3.976674 l 1.625425,-4.886476 c 0.25281,-0.7599507 0.500424,-1.5216434 0.74319,-2.2850082 L 44.56063,4.8156744 44.376911,15.939321 c -0.04001,2.421434 -0.267873,4.835864 -0.681548,7.220779 l -0.05904,0.340362 c -0.519817,2.997775 -1.380236,5.923926 -2.563763,8.719667 l -1.632179,3.855187 6.902906,-1.34173 c 2.620389,-0.509309 5.294453,-0.670514 7.95553,-0.479919 l 4.647194,0.332968 -7.317967,2.266373 c -2.594413,0.803385 -5.120776,1.817952 -7.55502,3.033854 l -1.424909,0.711694 c -1.078424,0.538698 -2.093298,1.200237 -3.025228,1.971768 l -0.808817,0.669632 c -0.806394,0.667698 -1.55824,1.400687 -2.248274,2.191754 l -0.937125,1.074403 c -0.723796,0.829958 -1.410537,1.692651 -2.058145,2.58526 l -2.211908,3.049343 c -0.548216,0.755864 -1.016954,1.568226 -1.398073,2.423704 -0.754444,1.935865 -1.20067,3.981899 -1.321881,6.060667 l -0.04398,0.414098 c -0.200343,1.891516 -0.1354,3.802568 0.192725,5.675607 l 0.09991,0.570376 c 0.264236,1.507864 0.605357,3.000767 1.021971,4.472555 l 0.397224,1.403677 c 0.350817,1.238956 0.883967,2.416665 1.581617,3.49283 l 1.079981,1.666254 c 1.23288,1.901899 2.893629,3.477341 4.844417,4.595568 l 2.628526,1.506807 c 0.720508,0.413044 1.475818,0.760268 2.256757,1.037273 z"
     fill="url(#paint2_linear_140_570)"
     id="path9"
     style="fill:url(#paint2_linear_140_570);stroke-width:0.174567" />
  <path
     d="m 48.431729,87.725094 -0.961194,-0.642002 c -1.169329,-0.780858 -2.07979,-1.656046 -2.694844,-2.589663 -1.074096,-1.989011 -1.456425,-4.060036 -1.129159,-6.117511 0.117063,-1.121391 0.401898,-2.236451 0.851587,-3.335495 l 0.700939,-1.984968 c 0.470123,-1.330993 1.348376,-2.615002 2.60186,-3.80415 l 0.348565,-0.330859 c 0.551852,-0.523387 1.183182,-1.023543 1.88828,-1.495895 l 5.181207,-3.469775 c 0.732281,-0.490477 1.321362,-1.033225 1.748367,-1.611345 1.98767,-3.022767 3.255527,-6.158516 3.775516,-9.338617 -0.05472,-1.34613 -0.576092,-2.67642 -1.539883,-3.928223 -0.434106,-0.729292 -1.063706,-1.424092 -1.870617,-2.063986 l -5.269346,-4.804289 6.167512,4.044025 c 1.779708,1.166797 3.202714,2.466644 4.220185,3.854484 l 0.362417,0.494524 c 1.796854,2.451332 3.128258,4.98644 3.975516,7.569763 0.479643,1.801411 0.66475,3.620422 0.55341,5.437847 -0.04001,1.56682 -0.311856,3.129768 -0.81332,4.675293 -0.609512,2.03565 -1.642395,4.031881 -3.080812,5.954018 -0.77834,0.990283 -1.667676,1.956456 -2.664021,2.893591 -1.014355,0.993628 -2.254852,1.921789 -3.695174,2.764769 l -1.958408,1.146033 2.00845,-0.856709 c 2.126716,-0.907394 3.917854,-2.004855 5.287181,-3.239584 0.782324,-0.777163 1.435645,-1.587058 1.953211,-2.420711 1.146821,-1.683501 2.11702,-3.397445 2.906444,-5.134444 0.865613,-1.917211 1.281016,-3.880883 1.237555,-5.848955 -0.08934,-2.035474 -0.3993,-4.066727 -0.928124,-6.084601 l -0.200515,-0.946287 1.65365,2.118893 c 0.577478,0.740028 1.047773,1.500999 1.407246,2.276754 0.351338,0.768714 0.657654,1.542884 0.918255,2.321102 0.698862,2.149516 0.865265,4.335812 0.495055,6.506799 l -0.09799,0.632321 c -0.308046,1.984967 -0.946303,3.952687 -1.908192,5.881513 -0.899032,1.801762 -2.208099,3.54246 -3.900193,5.186184 -1.674774,1.627887 -3.793871,3.123959 -6.292528,4.442812 -1.554086,0.820104 -3.565134,1.37165 -5.754879,1.577907 l -1.610532,0.151705 c -0.61419,0.05772 -1.236689,0.09011 -1.861095,0.09662 z"
     fill="url(#paint3_linear_140_570)"
     id="path10"
     style="fill:url(#paint3_linear_140_570);stroke-width:0.174567" />
  <defs
     id="defs17">
    <radialGradient
       id="paint0_radial_140_570"
       cx="0"
       cy="0"
       r="1"
       gradientUnits="userSpaceOnUse"
       gradientTransform="matrix(4.5106566,0,0,4.589709,53.809471,21.11301)">
      <stop
         stop-color="#015396"
         stop-opacity="0"
         id="stop10" />
      <stop
         offset="1"
         stop-color="#015396"
         id="stop11" />
    </radialGradient>
    <linearGradient
       id="paint1_linear_140_570"
       x1="254.89"
       y1="277.63101"
       x2="287.53601"
       y2="213.08"
       gradientUnits="userSpaceOnUse"
       gradientTransform="matrix(0.17315714,0,0,0.17598781,3.4179768,4.7644482)">
      <stop
         stop-color="#065798"
         id="stop12" />
      <stop
         offset="1"
         stop-color="#065798"
         stop-opacity="0"
         id="stop13" />
    </linearGradient>
    <linearGradient
       id="paint2_linear_140_570"
       x1="225.43201"
       y1="119.085"
       x2="305.758"
       y2="97.202499"
       gradientUnits="userSpaceOnUse"
       gradientTransform="matrix(0.17315714,0,0,0.17598781,3.4179768,4.7644482)">
      <stop
         stop-color="#015396"
         id="stop14" />
      <stop
         offset="1"
         stop-color="#015396"
         stop-opacity="0"
         id="stop15" />
    </linearGradient>
    <linearGradient
       id="paint3_linear_140_570"
       x1="364.327"
       y1="397.439"
       x2="381.064"
       y2="245.86301"
       gradientUnits="userSpaceOnUse"
       gradientTransform="matrix(0.17315714,0,0,0.17598781,3.4179768,4.7644482)">
      <stop
         stop-color="#2E5617"
         id="stop16" />
      <stop
         offset="1"
         stop-color="#2E5617"
         stop-opacity="0.220564"
         id="stop17" />
    </linearGradient>
  </defs>
</svg>
