<?xml version="1.0" encoding="UTF-8" standalone="no"?>
<!-- Created with Inkscape (http://www.inkscape.org/) -->

<svg
   version="1.1"
   id="svg1"
   width="379.92682"
   height="593.13086"
   viewBox="0 0 379.92681 593.13086"
   sodipodi:docname="layer3.svg"
   xml:space="preserve"
   inkscape:version="1.4 (e7c3feb100, 2024-10-09)"
   inkscape:export-filename="layer3.png"
   inkscape:export-xdpi="96"
   inkscape:export-ydpi="96"
   xmlns:inkscape="http://www.inkscape.org/namespaces/inkscape"
   xmlns:sodipodi="http://sodipodi.sourceforge.net/DTD/sodipodi-0.dtd"
   xmlns:xlink="http://www.w3.org/1999/xlink"
   xmlns="http://www.w3.org/2000/svg"
   xmlns:svg="http://www.w3.org/2000/svg"><defs
     id="defs1"><linearGradient
       id="linearGradient15"
       inkscape:collect="always"><stop
         style="stop-color:#065798;stop-opacity:1;"
         offset="0"
         id="stop16" /><stop
         style="stop-color:#065798;stop-opacity:0;"
         offset="1"
         id="stop17" /></linearGradient><inkscape:path-effect
       effect="fillet_chamfer"
       id="path-effect14"
       is_visible="true"
       lpeversion="1"
       nodesatellites_param="F,0,0,1,0,0,0,1 @ F,0,0,1,0,8.7833483,0,1 @ F,0,0,1,0,24.131433,0,1 @ F,0,0,1,0,13.532071,0,1 @ F,0,0,1,0,12.046096,0,1 @ F,0,0,1,0,5.2776176,0,1 @ F,0,0,1,0,5.5013256,0,1 @ F,0,0,1,0,36.949831,0,1 @ F,0,0,1,0,21.322166,0,1 @ F,0,0,1,0,9.758054,0,1 @ F,0,0,1,0,0,0,1 @ F,0,0,1,0,13.201451,0,1 @ F,0,0,1,0,23.236086,0,1 @ F,0,0,1,0,22.055155,0,1 @ F,0,0,1,0,16.182254,0,1 @ F,0,0,1,0,18.298521,0,1 @ F,0,0,1,0,12.193428,0,1 @ F,0,0,1,0,9.9666654,0,1 @ F,0,0,1,0,0,0,1 @ F,0,0,1,0,12.681912,0,1 @ F,0,0,1,0,11.481048,0,1 @ F,0,0,1,0,19.541262,0,1 @ F,0,0,1,0,19.541262,0,1 @ F,0,0,1,0,26.247774,0,1 @ F,0,0,1,0,0,0,1 @ F,0,0,1,0,7.0657548,0,1 @ F,0,0,1,0,7.6773942,0,1 @ F,0,0,1,0,20.557014,0,1 @ F,0,0,1,0,17.652007,0,1 @ F,0,0,1,0,16.537167,0,1 @ F,0,0,1,0,16.38091,0,1 @ F,0,0,1,0,10.38683,0,1 @ F,0,0,1,0,2.8481612,0,1"
       radius="0"
       unit="px"
       method="auto"
       mode="F"
       chamfer_steps="1"
       flexible="false"
       use_knot_distance="true"
       apply_no_radius="true"
       apply_with_radius="true"
       only_selected="false"
       hide_knots="false" /><inkscape:path-effect
       effect="fillet_chamfer"
       id="path-effect12"
       is_visible="true"
       lpeversion="1"
       nodesatellites_param="F,0,0,1,0,0,0,1 @ F,0,0,1,0,8.4856642,0,1 @ F,0,0,1,0,12.598501,0,1 @ F,0,0,1,0,10.742349,0,1 @ F,0,0,1,0,12.000194,0,1 @ F,0,0,1,0,17.326575,0,1 @ F,0,0,1,0,13.998717,0,1 @ F,0,0,1,0,13.569925,0,1 @ F,0,0,1,0,15.561997,0,1 @ F,0,0,1,0,7.9920912,0,1 @ F,0,0,1,0,8.2817613,0,1 @ F,0,0,1,0,4.6357225,0,1 @ F,0,0,1,0,0,0,1 @ F,0,0,1,0,14.014587,0,1 @ F,0,0,1,0,17.647912,0,1 @ F,0,0,1,0,0,0,1 @ F,0,0,1,0,15.749726,0,1 @ F,0,0,1,0,0,0,1 @ F,0,0,1,0,15.96863,0,1 @ F,0,0,1,0,7.0857156,0,1 @ F,0,0,1,0,6.1216241,0,1 @ F,0,0,1,0,6.4144209,0,1 @ F,0,0,1,0,5.442677,0,1 @ F,0,0,1,0,15.722527,0,1 @ F,0,0,1,0,11.048617,0,1 @ F,0,0,1,0,8.8555511,0,1 @ F,0,0,1,0,7.492357,0,1 @ F,0,0,1,0,13.353606,0,1 @ F,0,0,1,0,4.8722672,0,1"
       radius="0"
       unit="px"
       method="auto"
       mode="F"
       chamfer_steps="1"
       flexible="false"
       use_knot_distance="true"
       apply_no_radius="true"
       apply_with_radius="true"
       only_selected="false"
       hide_knots="false" /><inkscape:path-effect
       effect="fillet_chamfer"
       id="path-effect8"
       is_visible="true"
       lpeversion="1"
       nodesatellites_param="F,0,0,1,0,0,0,1 @ F,0,0,1,0,8.7833483,0,1 @ F,0,0,1,0,24.131433,0,1 @ F,0,0,1,0,13.532071,0,1 @ F,0,0,1,0,12.046096,0,1 @ F,0,0,1,0,5.2776176,0,1 @ F,0,0,1,0,5.5013256,0,1 @ F,0,0,1,0,36.949831,0,1 @ F,0,0,1,0,21.322166,0,1 @ F,0,0,1,0,9.758054,0,1 @ F,0,0,1,0,0,0,1 @ F,0,0,1,0,13.201451,0,1 @ F,0,0,1,0,23.236086,0,1 @ F,0,0,1,0,22.055155,0,1 @ F,0,0,1,0,16.182254,0,1 @ F,0,0,1,0,18.298521,0,1 @ F,0,0,1,0,12.193428,0,1 @ F,0,0,1,0,9.9666654,0,1 @ F,0,0,1,0,0,0,1 @ F,0,0,1,0,12.681912,0,1 @ F,0,0,1,0,11.481048,0,1 @ F,0,0,1,0,19.541262,0,1 @ F,0,0,1,0,19.541262,0,1 @ F,0,0,1,0,26.247774,0,1 @ F,0,0,1,0,0,0,1 @ F,0,0,1,0,7.0657548,0,1 @ F,0,0,1,0,7.6773942,0,1 @ F,0,0,1,0,20.557014,0,1 @ F,0,0,1,0,17.652007,0,1 @ F,0,0,1,0,16.537167,0,1 @ F,0,0,1,0,16.38091,0,1 @ F,0,0,1,0,10.38683,0,1 @ F,0,0,1,0,2.8481612,0,1"
       radius="0"
       unit="px"
       method="auto"
       mode="F"
       chamfer_steps="1"
       flexible="false"
       use_knot_distance="true"
       apply_no_radius="true"
       apply_with_radius="true"
       only_selected="false"
       hide_knots="false" /><inkscape:path-effect
       effect="fillet_chamfer"
       id="path-effect6"
       is_visible="true"
       lpeversion="1"
       nodesatellites_param="F,0,0,1,0,0,0,1 @ F,0,0,1,0,8.4856642,0,1 @ F,0,0,1,0,12.598501,0,1 @ F,0,0,1,0,10.742349,0,1 @ F,0,0,1,0,12.000194,0,1 @ F,0,0,1,0,17.326575,0,1 @ F,0,0,1,0,13.998717,0,1 @ F,0,0,1,0,13.569925,0,1 @ F,0,0,1,0,15.561997,0,1 @ F,0,0,1,0,7.9920912,0,1 @ F,0,0,1,0,8.2817613,0,1 @ F,0,0,1,0,4.6357225,0,1 @ F,0,0,1,0,0,0,1 @ F,0,0,1,0,14.014587,0,1 @ F,0,0,1,0,17.647912,0,1 @ F,0,0,1,0,0,0,1 @ F,0,0,1,0,15.749726,0,1 @ F,0,0,1,0,0,0,1 @ F,0,0,1,0,15.96863,0,1 @ F,0,0,1,0,7.0857156,0,1 @ F,0,0,1,0,6.1216241,0,1 @ F,0,0,1,0,6.4144209,0,1 @ F,0,0,1,0,5.442677,0,1 @ F,0,0,1,0,15.722527,0,1 @ F,0,0,1,0,11.048617,0,1 @ F,0,0,1,0,8.8555511,0,1 @ F,0,0,1,0,7.492357,0,1 @ F,0,0,1,0,13.353606,0,1 @ F,0,0,1,0,4.8722672,0,1"
       radius="0"
       unit="px"
       method="auto"
       mode="F"
       chamfer_steps="1"
       flexible="false"
       use_knot_distance="true"
       apply_no_radius="true"
       apply_with_radius="true"
       only_selected="false"
       hide_knots="false" /><linearGradient
       id="linearGradient48"
       inkscape:collect="always"><stop
         style="stop-color:#015396;stop-opacity:1;"
         offset="0"
         id="stop48" /><stop
         style="stop-color:#015396;stop-opacity:0;"
         offset="1"
         id="stop49" /></linearGradient><linearGradient
       id="linearGradient22"
       inkscape:collect="always"><stop
         style="stop-color:#2e5617;stop-opacity:1;"
         offset="0"
         id="stop22" /><stop
         style="stop-color:#2e5617;stop-opacity:0.22056377;"
         offset="1"
         id="stop23" /></linearGradient><linearGradient
       id="linearGradient14"
       inkscape:collect="always"><stop
         style="stop-color:#015396;stop-opacity:0;"
         offset="0"
         id="stop15" /><stop
         style="stop-color:#015396;stop-opacity:1;"
         offset="1"
         id="stop14" /></linearGradient><radialGradient
       inkscape:collect="always"
       xlink:href="#linearGradient14"
       id="radialGradient8"
       gradientUnits="userSpaceOnUse"
       gradientTransform="translate(-211.68769,-39.801258)"
       cx="100.99243"
       cy="644.0304"
       fx="100.99243"
       fy="644.0304"
       r="17.679127" /><linearGradient
       inkscape:collect="always"
       xlink:href="#linearGradient48"
       id="linearGradient8"
       gradientUnits="userSpaceOnUse"
       x1="257.88239"
       y1="275.47757"
       x2="312.38864"
       y2="260.61148" /><linearGradient
       inkscape:collect="always"
       xlink:href="#linearGradient22"
       id="linearGradient9"
       gradientUnits="userSpaceOnUse"
       x1="117.09448"
       y1="815.71155"
       x2="150.25453"
       y2="663.672" /><linearGradient
       inkscape:collect="always"
       xlink:href="#linearGradient15"
       id="linearGradient17"
       x1="-135.21292"
       y1="729.45923"
       x2="-113.09834"
       y2="685.67981"
       gradientUnits="userSpaceOnUse" /></defs><sodipodi:namedview
     id="namedview1"
     pagecolor="#ffffff"
     bordercolor="#000000"
     borderopacity="0.25"
     inkscape:showpageshadow="2"
     inkscape:pageopacity="0.0"
     inkscape:pagecheckerboard="0"
     inkscape:deskcolor="#d1d1d1"
     inkscape:zoom="0.739939"
     inkscape:cx="129.74042"
     inkscape:cy="389.89701"
     inkscape:window-width="1904"
     inkscape:window-height="996"
     inkscape:window-x="8"
     inkscape:window-y="39"
     inkscape:window-maximized="0"
     inkscape:current-layer="g5"><inkscape:page
       x="0"
       y="0"
       width="379.92682"
       height="593.13086"
       id="page2"
       margin="0"
       bleed="0" /></sodipodi:namedview><g
     inkscape:groupmode="layer"
     id="g5"
     inkscape:label="to export with white bg"
     transform="matrix(1.8572486,0,0,1.8572486,452.6605,-1005.6131)"
     inkscape:export-filename="layer2.png"
     inkscape:export-xdpi="96"
     inkscape:export-ydpi="96"><ellipse
       style="fill:#ffffff;fill-opacity:1;stroke-width:0.9251"
       id="ellipse9"
       cx="-143.1891"
       cy="765.44312"
       rx="80.963737"
       ry="80.610184"
       inkscape:label="ellipse9 w" /><circle
       style="fill:#ffffff;fill-opacity:1"
       id="circle9"
       cx="-120.15553"
       cy="613.3515"
       r="17.679127"
       inkscape:export-filename="path3.png"
       inkscape:export-xdpi="89.206543"
       inkscape:export-ydpi="89.206543"
       inkscape:label="circle9 w" /><path
       id="path9"
       style="fill:#ffffff;fill-opacity:1;stroke:none;stroke-width:1.1898"
       inkscape:label="planeta w"
       d="m -143.69523,685.44159 v 0.16407 l 2.28711,0.49023 -0.16211,0.49024 1.96094,0.49023 -0.6543,-0.16211 c 0.0822,1.16988 1.10553,1.48417 1.99024,2.06641 2.02562,1.33309 4.55279,2.40301 7.00195,2.50976 l -0.81641,-2.77929 c 0.73639,-0.17588 1.59229,-0.0587 1.63477,-0.98047 l 1.63477,-0.16407 c -0.96484,-0.86736 -2.6808,-0.9883 -3.92383,-1.21289 -3.59353,-0.64927 -7.30632,-0.91207 -10.95313,-0.91211 z m -6.21484,0.38282 c -1.16487,-0.0772 -2.38286,0.0573 -3.26758,0.17773 -0.63018,0.0858 -1.52869,-0.077 -1.96289,0.41992 l -0.81641,-0.16211 v 0.16211 h 0.65235 v 0.16407 l -0.65235,0.16406 v 0.16406 h 0.65235 c -0.7962,0.77253 -1.458,0.61853 -2.45117,0.49024 v -0.16407 l 1.4707,-0.65429 v -0.16407 l -4.08594,1.47266 v 0.16211 h -0.49219 l 0.49219,-0.16211 -0.98242,-0.16406 v 0.16406 l -2.94141,0.6543 v -0.32813 l 2.94141,-0.49023 0.81836,-0.49024 v -0.16406 c -1.97192,0.25466 -4.44815,0.70858 -6.21289,1.63477 v 0.16406 l 0.65429,-0.16406 v 0.16406 l -1.79882,0.32617 v -0.16211 h 0.32617 v -0.16406 c -1.8417,0.27199 -3.65794,1.14358 -5.39453,1.79101 -4.18046,1.55853 -8.26736,3.43233 -12.09766,5.73047 -1.84427,1.10654 -4.32367,2.29497 -5.39453,4.25 l -0.49219,-0.16406 c -0.27244,1.47134 -2.33853,2.04864 -1.96094,3.59766 -1.05452,0.5516 -1.63967,1.61363 -2.45507,2.45117 -2.81312,2.88948 -4.29972,5.26591 -5.22852,9.15625 1.67931,0.56985 0.81326,1.91163 0.86914,3.26953 0.0372,0.90525 0.67199,1.42887 -0.3789,1.96094 l 1.08398,1.23828 0.0859,1.33203 0.95508,1.35352 c 0.57536,-0.32062 0.77202,-0.97876 0,-1.14454 l -0.16407,-4.25 v -0.16406 l -0.49023,0.16406 c -0.14029,-1.00314 0.11896,-1.99414 1.30859,-1.79882 l -0.49023,1.96289 1.63476,1.63476 -0.32812,0.81641 c 0.87078,0.69321 2.01398,1.79188 2.19531,2.94336 0.13624,0.86516 -0.81678,1.79878 -0.0234,2.48437 1.55799,1.35894 5.90116,2.52714 7.96485,2.3711 0.90543,-0.0684 1.68961,-0.84614 2.61719,-0.69727 1.14638,0.18399 1.86232,1.2879 2.9414,1.6211 1.68189,0.51931 3.52846,0.37774 5.23242,0.43359 l -0.32812,0.49023 1.84961,1.36914 0.38086,1.10547 0.87695,-0.0215 h 0.16406 0.16211 l 1.3086,0.8164 -0.16407,0.49024 h 0.81836 v 0.32812 c 1.09898,-0.20319 2.11833,0.0248 2.94336,0.81641 l 0.98047,-0.32617 -0.49023,-0.81836 3.10546,-0.32617 0.82032,2.125 0.32422,2.45312 v 0.16211 c -0.90224,0.77725 -2.26536,1.52509 -2.45313,2.7793 l -1.63476,0.49219 c -0.0119,0.81927 -0.5466,1.4418 -1.14454,1.96093 v 1.3086 l 0.81836,0.8164 0.81641,-0.65429 -2.01953,2.1289 0.0586,1.95899 c 3.4476,1.13359 5.1577,6.05676 6.99414,8.80664 1.72235,2.57903 6.1108,1.87572 7.90625,4.46679 1.17566,1.69661 0.20674,3.77662 0.11328,5.52735 -0.15528,2.90956 -0.93398,5.65036 -1.14062,8.50195 -0.057,0.78685 0.39876,1.49108 0.2793,2.28906 -0.28495,1.90367 -1.49622,3.5143 -1.72657,5.39454 l -0.65429,0.16406 c 0.16326,0.76289 0.64126,1.65924 0.59961,2.4375 -0.065,1.2135 -0.73289,1.69585 -0.10938,2.95703 -0.69953,0.14991 -0.53593,1.17278 -0.6543,1.79883 1.11245,-0.0888 1.00176,-1.06085 0.81836,-1.96289 l 0.81641,-0.32618 0.49023,0.81836 -1.14453,4.08594 0.16407,-1.14453 -0.49024,0.16406 0.32617,-0.49023 -0.98047,0.16406 c 0.19932,1.30001 -0.47011,1.89175 -1.14453,2.94141 l 0.16407,0.16406 1.63476,-0.16406 v 1.47265 l -0.49023,0.16211 -0.16407,-0.49023 c -1.11412,0.582 -0.54504,1.71027 -0.16406,2.61719 l 0.81836,0.1621 0.6543,-0.8164 v 0.16211 c -0.59197,0.47137 -0.96438,1.42018 -0.6543,2.12695 l -0.49023,0.49024 0.8164,-0.6543 0.6543,0.16406 -0.32617,0.81641 0.8164,-0.16407 -0.65429,0.32813 c 0.23399,0.60632 0.50969,0.70277 1.14453,0.6543 v 0.16211 l -0.32617,0.16406 0.65429,0.6543 -0.49023,-0.16407 -0.16406,0.49024 0.98047,0.16406 v 0.32617 l 0.65429,-0.16211 -0.16406,-0.32812 v -0.16211 h -0.65234 l 0.65234,-0.16406 v 0.16406 l 0.6543,0.16211 -0.32617,0.65429 h 0.8164 v 0.16407 l -0.49023,0.32617 2.125,0.16406 c 0.26358,0.74452 1.26927,0.75194 1.96289,0.98047 l -1.14453,-0.81641 v -0.16406 l 2.125,0.49024 v -0.49024 h 1.96289 l -0.16407,-0.49023 c -1.35997,0.0814 -2.33435,-1.00884 -3.43359,-1.63477 l 0.16406,-0.49023 -1.30859,-0.6543 1.14453,0.16406 c -0.24502,-0.51978 -0.79237,-1.03166 -0.79297,-1.63476 -5.1e-4,-0.53111 1.53293,-2.31032 1.96094,-2.72657 0.49053,-0.47706 1.37994,-0.74884 1.49414,-1.51757 0.15018,-1.01113 -1.93815,-0.65439 -1.91016,-1.8125 0.0233,-0.96617 1.27385,-1.31042 2.02735,-1.30079 0.38192,-0.97687 0.52754,-1.89139 1.4707,-2.45312 l -0.65234,-0.49023 1.63476,0.16406 c -0.21697,-1.31896 -2.03083,-0.36196 -1.79883,-2.45313 1.91786,0.62384 4.39651,0.44171 3.26954,-2.28906 1.67138,0.39792 7.2054,0.0886 7.0957,-2.58203 -0.0571,-1.3918 -1.68899,-2.00015 -2.02735,-3.14063 1.44041,0.87617 4.22025,1.64378 5.70704,0.54883 1.07328,-0.79041 1.80859,-2.27107 2.95703,-2.83593 v -0.16407 h -0.49024 l 1.96289,-1.79883 -1.30859,1.47071 v 0.16406 c 1.31544,-0.44724 1.72733,-1.67467 2.63086,-2.60937 0.42117,-0.4357 1.03638,-0.7615 1.29101,-1.33204 0.36046,-0.80756 0.0528,-1.75642 0.39454,-2.58984 0.53108,-1.29522 2.85781,-2.48365 4.18554,-2.13281 0.84364,-1.46403 2.43234,-0.71896 3.74414,-1.03516 0.65366,-0.15756 1.14714,-0.72905 1.81446,-0.92773 l 1.72851,-3.1211 1.10157,-3.58203 0.27539,-3.75976 c 1.06597,0.40783 1.38648,-0.78406 1.99609,-1.46485 1.281,-1.43057 2.9483,-2.23268 2.7168,-4.41992 -0.25471,-2.40648 -1.44343,-1.91255 -3.07813,-2.9375 -1.11419,-0.6986 -1.98733,-1.68322 -3.26953,-2.11328 -0.79816,-0.2677 -1.63721,-0.10232 -2.45312,-0.27539 -1.3017,-0.27604 -2.31762,-0.73464 -3.59571,-0.0703 0.49563,-1.22027 -0.70263,-1.47857 -1.63476,-1.83008 -1.97305,-0.74407 -2.95425,-0.7694 -4.41407,0.84961 l -0.65429,-0.32617 v -0.16407 c 0.97414,-0.11791 1.51966,-0.44072 1.63476,-1.4707 l -2.45312,-0.6543 v -0.16406 h 0.32812 v -0.16406 l -0.49023,-0.16211 c 1.09076,-0.66831 -0.90121,-2.67713 -1.3086,-3.76172 l -0.49023,0.16406 c -1.43312,-2.27164 -4.5356,-1.57267 -6.70313,-1.96875 -0.88215,-0.16121 -1.53715,-0.74967 -2.45312,-0.81054 -0.2639,-1.67377 -2.38846,-1.96124 -3.75977,-1.63477 l 0.49024,-0.49023 -2.61524,-1.63477 h 0.81836 v -0.16406 l -4.08789,0.58984 -3.57617,-0.36133 -2.63672,-0.88281 0.16407,-0.49023 h -0.6543 l 0.16406,0.65429 -1.79883,0.49024 c 0.12454,0.87875 0.60997,1.42983 -0.32812,1.96289 l -0.16211,-2.61719 0.98047,-0.32617 v -0.32813 c -0.979,-0.23588 -1.74096,0.47602 -2.61524,0.85352 -1.42192,0.61395 -3.32264,0.22859 -3.43359,2.25391 -0.86077,0.13047 -1.49245,0.58805 -1.63477,1.4707 h -0.16406 c -1.40862,-2.38885 -4.8501,-0.92885 -6.86719,-0.49024 -0.47887,-0.8312 -1.66165,-1.2649 -1.80468,-2.28906 -0.15009,-1.07482 1.24238,-2.75131 0.65625,-3.68359 -1.04474,-1.6617 -5.12362,-0.3078 -6.69727,-0.24024 0.71544,-0.86619 1.09044,-1.63821 1.14258,-2.77929 l 0.49219,0.32812 c 0.38157,-0.7548 0.59007,-1.85254 1.4707,-2.125 v -1.14453 c -1.18411,0.2819 -2.43804,0.24647 -3.59375,0.69531 -1.14925,0.44633 -1.28008,2.02817 -2.45508,2.58985 -3.13188,1.49716 -7.47528,-0.0813 -5.8125,-4.10352 0.40606,-0.98227 0.80897,-1.98959 1.22461,-2.94336 0.67569,-1.55051 2.59584,-1.38986 3.2793,-2.7793 h 6.37694 l -0.49023,-0.32617 c 0.26821,-0.44701 0.43711,-0.30459 0,-0.65429 1.92284,-0.39666 3.36643,-0.1997 5.23046,-0.0742 0.55969,0.0365 1.07779,-0.39339 1.61719,-0.11133 0.93645,0.48963 1.23362,4.61785 3.06446,3.84375 2.05004,-0.86679 -0.58599,-3.71574 -0.10743,-4.96484 0.70271,-1.83425 4.45406,-3.28971 6.2168,-3.76172 l -0.16406,-0.49024 1.14453,-0.49023 h -0.6543 v -0.16406 l 0.49024,-0.16211 -0.16211,-2.45313 h 0.16211 l 0.32812,0.81836 -0.32812,0.81641 c 0.70835,-0.34383 1.2575,-0.82976 0.98242,-1.63477 0.9131,0.0362 1.45172,-0.42022 1.63476,-1.30859 l 1.79688,-0.16211 v -0.16406 h -0.81641 v -0.16407 l 2.94336,-0.32617 c -0.77696,-2.21177 4.23693,-3.04764 5.88477,-3.26953 v 0.16211 l -1.47071,1.14453 c 1.00419,0.3139 4.8922,-0.7251 5.23047,-1.79687 h 0.16407 c 0.33458,0.3696 0.57079,0.22177 0.81835,-0.16407 l -0.49218,-0.49023 -1.14453,0.98047 h -1.14258 l 0.65234,-0.49024 v -0.16406 l -2.125,-0.32617 1.3086,0.98047 c -0.91657,-0.32991 -1.78055,-0.51333 -1.79883,-1.63477 h -1.14453 v -0.16406 l 1.63476,-0.32617 v -0.32813 c -1.67369,-0.56197 -3.7796,0.0699 -5.23047,0.98242 v 0.16211 l -0.65429,0.16407 0.65429,-0.32618 c 3.0925,-3.34744 8.76306,-1.26464 12.58789,-3.26953 -0.28091,-1.0634 -1.00061,-1.17164 -1.96289,-1.47265 l 0.16407,-0.32617 -3.59571,-1.14454 c 0.0497,-0.84013 -1.54287,-2.45648 -2.45312,-2.23437 -0.66676,0.16269 -1.066,0.83889 -1.79883,0.92969 -1.01246,0.12546 -1.57138,-0.56191 -1.30664,-1.47461 -1.62734,0.10899 -3.51086,-1.31092 -5.18359,-0.53321 -0.7285,0.3387 -0.92883,1.5161 -1.6836,2.00391 v 0.32813 c 1.93098,1.33143 -1.12717,2.29458 -2.28906,2.45117 l 0.32617,1.79883 c -1.41381,0.71874 -2.14575,0.4999 -2.40039,-0.32618 h 0.60352 l -0.67383,-0.26953 c -0.0605,-0.37282 -0.053,-0.83145 0.0195,-1.36719 l -6.53906,-0.65234 0.32617,-0.98242 -0.81641,0.16406 c 1.86086,-2.5799 6.48014,-3.38274 9.31836,-4.41406 v 0.16406 l -1.47266,0.6543 v 0.16211 l 4.0879,-0.32617 v -0.16407 l -1.79883,-0.49023 h -0.16211 l 0.65234,-0.16406 h 0.16406 0.16407 l 2.125,-1.30664 h 0.65429 v -0.49024 l 2.28907,-0.16406 -0.81836,0.8164 v 0.16407 l 2.28906,-0.32617 v 0.32617 l -3.92383,1.4707 2.45313,-0.2168 4.57617,1.19922 -1.14258,-0.65429 v -0.16407 c 0.85199,0.1147 1.79556,0.61059 2.28711,-0.32617 l -1.63477,-0.6543 v -0.32812 l 0.16407,-0.16211 c 1.27485,0.43395 1.99831,0.8501 3.10742,-0.16406 l -3.27149,-0.6543 v -0.16211 h 0.49024 c -0.66839,-0.72336 -1.7785,-1.01266 -2.94336,-1.08984 z m -1.30664,1.08984 0.16406,0.32617 h -0.32812 z m -5.88477,0.81641 v 0.16406 l -0.65429,0.16211 z m 32.20703,1.14453 c 0.8868,1.05578 4.07323,1.9212 5.39454,1.63476 v -0.32617 c -1.64473,-0.92603 -3.57464,-1.03646 -5.39454,-1.30859 z m -34.82422,0.0547 0.0547,0.0547 c -0.0807,0.0269 -0.17815,-0.0547 -0.0547,-0.0547 z m 5.23243,0.59961 v 0.32617 l 0.32617,-0.32617 z m -2.61524,0.65429 -1.30859,0.16211 v 0.16406 z m 1.47071,0 -0.6543,0.49024 z m 9.37304,0.10742 0.0547,0.10938 z m -2.17968,0.70899 0.16406,0.16406 z m -8.82813,2.7793 -0.81836,0.49023 z m 48.71875,1.14453 2.61719,2.125 h -0.6543 l 0.49023,0.32812 v 0.16211 h -0.49023 v 0.16406 c 1.08816,0.63399 2.10239,2.2062 3.43359,1.63477 v -0.32617 l -1.47265,-1.3086 4.15429,3.33008 0.30469,0.0391 c -0.02,-0.0268 -0.0403,-0.0534 -0.0605,-0.0801 -0.0228,-0.0308 -0.0464,-0.0627 -0.0684,-0.0937 -0.0118,-0.0176 -0.0222,-0.0349 -0.0332,-0.0527 l -0.002,-0.002 c -0.0309,-0.0228 -0.0603,-0.0478 -0.0898,-0.0723 -0.033,-0.0261 -0.0648,-0.0534 -0.0957,-0.082 -0.028,-0.026 -0.0556,-0.0526 -0.082,-0.0801 -0.0126,-0.0128 -0.0232,-0.0275 -0.0351,-0.041 h -0.002 c -0.0424,-4.4e-4 -0.0946,-0.0186 -0.14844,-0.0606 -0.0146,-0.0113 -0.0289,-0.0247 -0.043,-0.0371 -0.0146,-0.0133 -0.0299,-0.0263 -0.0449,-0.0391 -0.013,-0.0107 -0.0265,-0.0202 -0.0391,-0.0312 -0.0118,-0.0101 -0.0232,-0.0211 -0.0351,-0.0312 -0.01,-0.009 -0.0191,-0.0174 -0.0293,-0.0254 -0.016,-0.0132 -0.0323,-0.0261 -0.0469,-0.041 -0.0173,-0.017 -0.0325,-0.0367 -0.0488,-0.0547 -0.0223,-0.0253 -0.0456,-0.0493 -0.0684,-0.0742 -0.0214,-0.0238 -0.0412,-0.0484 -0.0625,-0.0723 -0.0243,-0.0271 -0.0489,-0.0539 -0.0742,-0.0801 -0.0232,-0.024 -0.0488,-0.0466 -0.0723,-0.0703 -0.0224,-0.0228 -0.0453,-0.0464 -0.0684,-0.0684 -0.0201,-0.0189 -0.0397,-0.0366 -0.0605,-0.0547 -0.019,-0.0163 -0.0376,-0.0326 -0.0566,-0.0488 -0.0114,-0.01 -0.0222,-0.0211 -0.0332,-0.0312 -0.0318,-0.01 -0.0669,-0.029 -0.10156,-0.0625 -0.0161,-0.0156 -0.0291,-0.0329 -0.0449,-0.0488 -0.0221,-0.022 -0.0447,-0.0459 -0.0664,-0.0684 -0.028,-0.0292 -0.0555,-0.0593 -0.082,-0.0899 -0.026,-0.0299 -0.0503,-0.0598 -0.0762,-0.0898 -0.0181,-0.0216 -0.0363,-0.0432 -0.0547,-0.0645 -0.0106,-0.0134 -0.0217,-0.0266 -0.0332,-0.0391 -0.0162,-0.0175 -0.0333,-0.0327 -0.0508,-0.0488 -0.0286,-0.0256 -0.0588,-0.0513 -0.0879,-0.0762 -0.0255,-0.0217 -0.0519,-0.0436 -0.0781,-0.0645 -0.0249,-0.0199 -0.0504,-0.0378 -0.0762,-0.0566 -0.0283,-0.02 -0.0565,-0.0383 -0.0859,-0.0566 -0.0332,-0.0196 -0.0675,-0.0412 -0.0996,-0.0625 -0.0244,-0.0166 -0.0466,-0.0331 -0.0703,-0.0508 -0.0134,-0.0102 -0.0262,-0.0224 -0.0391,-0.0332 -0.0143,-0.012 -0.008,-0.0231 -0.0176,-0.0352 -0.0129,-10e-4 -0.03,-0.0111 -0.0527,-0.0332 -0.009,-0.008 -0.0174,-0.0164 -0.0254,-0.0254 -0.0108,-0.0116 -0.0208,-0.0236 -0.0312,-0.0352 -0.007,-0.009 -0.01,-0.0125 -0.0176,-0.0195 -0.0149,-0.0139 -0.03,-0.0271 -0.0449,-0.041 -0.0178,-0.0161 -0.0356,-0.0319 -0.0527,-0.0488 -0.0196,-0.0186 -0.0406,-0.0385 -0.0606,-0.0566 -0.0211,-0.0197 -0.0404,-0.04 -0.0625,-0.0586 -0.0146,-0.0127 -0.0296,-0.0251 -0.0449,-0.0371 -0.0159,-0.0123 -0.0308,-0.025 -0.0469,-0.0371 -0.0151,-0.0121 -0.0297,-0.0251 -0.0449,-0.0371 -0.0172,-0.0133 -0.0342,-0.0251 -0.0508,-0.0391 -0.0133,-0.0115 -0.0283,-0.023 -0.041,-0.0352 -0.0126,-0.0109 -0.025,-0.0216 -0.0371,-0.0332 -0.0129,-0.0121 -0.0268,-0.0244 -0.0391,-0.0371 -0.0195,-0.0191 -0.0372,-0.0374 -0.0566,-0.0566 -0.0159,-0.017 -0.033,-0.0338 -0.0488,-0.0508 -0.0129,-0.0142 -0.0254,-0.0295 -0.0391,-0.043 -0.0106,-0.0105 -0.0221,-0.0193 -0.0332,-0.0293 -0.008,-0.007 -0.0174,-0.0145 -0.0254,-0.0215 -0.0126,-0.01 -0.0261,-0.0183 -0.0391,-0.0273 -0.0145,-0.0119 -0.0287,-0.0249 -0.043,-0.0371 -0.0221,-0.0186 -0.0427,-0.0375 -0.0644,-0.0566 -0.022,-0.0198 -0.0453,-0.0399 -0.0664,-0.0605 -0.0209,-0.0195 -0.0419,-0.0387 -0.0625,-0.0586 -0.0149,-0.0143 -0.0296,-0.0272 -0.0449,-0.041 -0.009,-0.009 -0.0183,-0.0184 -0.0273,-0.0254 -0.008,-0.006 -0.009,-0.008 -0.0156,-0.0137 -0.001,-0.002 -0.002,-0.004 -0.004,-0.006 -10e-4,-8.4e-4 -0.003,10e-4 -0.004,-0.002 l -0.002,-0.002 c -0.0139,-0.0103 -0.0272,-0.0206 -0.0391,-0.0332 -0.0101,-0.0107 -0.0205,-0.0213 -0.0312,-0.0312 -0.0173,-0.0171 -0.0352,-0.032 -0.0527,-0.0488 -0.0323,-0.0279 -0.0654,-0.056 -0.0977,-0.084 v -0.002 c -0.0305,-0.0264 -0.0514,-0.054 -0.0644,-0.0801 -0.10484,-0.0691 -0.21252,-0.13396 -0.31446,-0.20703 -0.0587,-0.043 -0.11535,-0.0874 -0.17187,-0.13281 -0.10343,-0.0633 -0.21915,-0.11879 -0.32031,-0.18359 -1.12582,-0.72114 -2.25164,-1.69773 -3.59766,-1.96875 z m -33.02344,0.16406 v 0.16406 l -0.65429,0.16211 z m 3.59571,1.63477 c -1.45816,0.1324 -2.44326,1.65534 -2.94141,2.94335 h 3.92383 v 0.16211 l -0.6543,0.16407 v 0.16406 l 1.79883,-0.49024 -0.16406,0.49024 c 0.67325,0.23403 1.07952,0.25691 1.30664,-0.49024 h -0.98047 l 0.49023,-0.81835 -0.65234,0.16406 -0.16406,-0.16406 0.16406,-0.49024 -2.94336,-0.32617 z m -7.6836,1.14453 c 0.50383,0.66485 1.51105,0.64785 2.28906,0.65429 z m -19.78125,1.79882 0.16211,0.65235 0.6543,-0.16211 0.16406,1.14453 -3.26953,-0.16406 0.32617,-0.16406 v -0.16211 l -3.5957,0.8164 c 1.21494,-1.21743 3.87946,-1.95982 5.55859,-1.96094 z m 19.94531,1.68946 0.0547,0.0527 c -0.0807,0.0269 -0.17931,-0.0527 -0.0547,-0.0527 z m -17.0039,0.10742 v 0.16406 h -0.32617 v 0.16406 l 0.65429,0.16407 c 0.48743,-0.676 1.03367,-0.41805 1.63477,0 -0.41472,0.71077 -0.9029,0.42643 -1.4707,0 l 0.1621,0.65234 -1.4707,1.30859 -0.16406,-0.81835 -1.14453,0.32812 v -0.16406 c 0.77595,-0.64526 0.71572,-1.01782 -0.16211,-1.47071 z m -2.61524,0.16406 c -0.36742,0.70241 -1.05306,0.7966 -1.57812,1.34571 -0.93402,0.97676 -0.62841,2.02037 -2.18164,2.41406 -0.11862,-1.31347 0.72696,-1.99349 1.4707,-2.94141 l -0.32617,0.16211 c 0.64295,-0.72917 1.68105,-0.85467 2.61523,-0.98047 z m 1.96289,0 0.16211,0.16406 z m 64.41407,0.81836 0.64843,0.44727 c -0.0103,-0.0124 -0.0218,-0.0234 -0.0332,-0.0352 -0.0206,-0.0215 -0.0403,-0.0423 -0.0606,-0.0645 -10e-4,-0.002 -0.002,-0.004 -0.004,-0.006 -0.0239,-0.0172 -0.0482,-0.0339 -0.0723,-0.0508 -0.064,-0.0443 -0.12484,-0.094 -0.18554,-0.14258 -0.0332,-0.0267 -0.0184,-0.0148 -0.0449,-0.0352 -0.0216,-0.0166 -0.04,-0.0338 -0.0586,-0.0508 z m -59.2168,0.32617 c 0.32091,-0.0108 0.6168,-0.007 0.85156,0 -0.63553,0.95808 -2.39166,0.68668 -3.43359,0.81836 0.4318,-0.61885 1.61931,-0.78594 2.58203,-0.81836 z m -33.97266,0.16407 -0.16211,0.8164 h -0.16406 z m 31.88086,0.98046 v 0.16407 c -1.30181,0.35533 -3.28751,1.57437 -4.57812,0.8164 z m -3.75976,0.38086 c 0.12644,0 0.026,0.0816 -0.0547,0.0547 z m 66.70312,1.90821 c 0.75135,1.62075 2.55461,4.16146 3.97657,5.28515 0.78827,0.62296 1.86969,0.93162 2.72656,1.58203 h 0.16406 l 1.44336,-0.1621 -0.008,-0.008 c -0.004,0.005 -0.0125,0.003 -0.0176,-0.008 -0.005,-0.0111 -0.0102,-0.0206 -0.0156,-0.0312 l -0.006,-0.006 c -0.004,-0.005 -0.009,-0.009 -0.0117,-0.0137 -0.005,-0.007 -0.001,-0.008 0.004,-0.0117 -0.0351,-0.0458 -0.0691,-0.0924 -0.10351,-0.13867 -0.0638,-0.0862 -0.12706,-0.17247 -0.18946,-0.25977 -0.0202,-0.0283 -0.0184,-0.0507 -0.0215,-0.0742 -0.0182,2.9e-4 -0.0265,0.0151 -0.0137,0.0566 1.1e-4,0.001 0.002,0.004 0,0.004 -10e-4,0 0.001,-0.003 -0.002,-0.004 -0.005,-0.0103 -0.01,-0.0211 -0.0156,-0.0312 -0.007,-0.0123 -0.0154,-0.0217 -0.0234,-0.0332 -0.0153,-0.021 -0.03,-0.0433 -0.0449,-0.0644 -0.0112,-0.0162 -0.0228,-0.0317 -0.0352,-0.0469 -0.0118,-0.0141 -0.024,-0.0283 -0.0351,-0.043 -0.009,-0.0121 -0.0182,-0.025 -0.0274,-0.0371 -0.007,-0.01 -0.0145,-0.0193 -0.0215,-0.0293 -0.008,-0.0105 -0.0164,-0.0204 -0.0234,-0.0312 -0.005,-0.008 -0.0116,-0.0164 -0.0176,-0.0234 -0.01,-0.0125 -0.0173,-0.0265 -0.0273,-0.0391 -0.009,-0.0119 -0.0203,-0.0231 -0.0293,-0.0352 -0.009,-0.0108 -0.0154,-0.0221 -0.0234,-0.0332 -0.01,-0.0121 -0.0193,-0.025 -0.0293,-0.0371 -0.0123,-0.0167 -0.0249,-0.0321 -0.0371,-0.0488 -0.0116,-0.0158 -0.0235,-0.0331 -0.0352,-0.0488 -0.0111,-0.0142 -0.0209,-0.0281 -0.0312,-0.043 -0.0107,-0.0143 -0.0208,-0.0285 -0.0312,-0.043 -0.0152,-0.0195 -0.0305,-0.0405 -0.0449,-0.0605 -0.0105,-0.0146 -0.0205,-0.0285 -0.0312,-0.043 -0.006,-0.008 -0.0116,-0.0183 -0.0176,-0.0273 -0.009,-0.0137 -0.003,-0.0226 -0.008,-0.0352 l -0.002,-0.002 c -0.008,-0.0106 -0.0162,-0.0219 -0.0234,-0.0332 -0.0185,-0.0296 -0.0354,-0.0606 -0.0508,-0.0918 -0.0145,-0.0314 -0.0274,-0.0639 -0.041,-0.0957 -0.009,-0.0217 -0.0154,-0.0426 -0.0234,-0.0644 -0.007,-0.016 -0.0135,-0.0324 -0.0195,-0.0488 -0.005,-0.0134 -0.0106,-0.0276 -0.0156,-0.041 -0.006,-0.0158 -0.0145,-0.0314 -0.0215,-0.0469 -0.009,-0.0189 -0.0173,-0.0362 -0.0273,-0.0547 -0.0104,-0.0203 -0.0207,-0.0422 -0.0312,-0.0625 -0.005,-0.009 -0.009,-0.0179 -0.0137,-0.0273 -6.2e-4,-10e-4 0.001,-0.003 -0.002,-0.004 -0.009,-0.0118 -0.0181,-0.0234 -0.0274,-0.0351 -0.0844,-0.0477 -0.16938,-0.12622 -0.24609,-0.24219 -0.0279,-0.0423 -0.0546,-0.0879 -0.082,-0.13086 -0.0343,-0.0558 -0.0685,-0.11061 -0.10352,-0.16601 -0.0291,-0.0424 -0.0543,-0.0865 -0.0801,-0.13086 -0.0207,-0.0373 -0.045,-0.0719 -0.0684,-0.10743 -0.0291,-0.04 -0.0542,-0.0842 -0.082,-0.125 -0.0416,-0.0606 -0.0828,-0.12209 -0.12304,-0.18359 -0.0376,-0.0564 -0.0688,-0.11487 -0.10547,-0.17187 -0.0372,-0.059 -0.0762,-0.11864 -0.11328,-0.17774 -0.0369,-0.0557 -0.0663,-0.11452 -0.10352,-0.16992 -0.0359,-0.054 -0.0705,-0.10881 -0.10742,-0.16211 -0.0391,-0.0627 -0.0834,-0.12159 -0.12891,-0.17969 -0.0594,-0.0754 -0.11849,-0.15256 -0.17969,-0.22656 -0.0764,-0.092 -0.15146,-0.18364 -0.23046,-0.27344 -0.0824,-0.0942 -0.16655,-0.18625 -0.24805,-0.28125 -0.065,-0.0743 -0.12816,-0.15051 -0.19336,-0.22461 -0.068,-0.0756 -0.13417,-0.15397 -0.20117,-0.23047 -0.0668,-0.0765 -0.13598,-0.15019 -0.20508,-0.22461 -0.0607,-0.0624 -0.11959,-0.12655 -0.17969,-0.18945 -0.049,-0.0523 -0.10144,-0.10194 -0.15234,-0.15234 -0.064,-0.0654 -0.13017,-0.12921 -0.19727,-0.19141 -0.007,-0.006 -0.0128,-0.0132 -0.0195,-0.0195 z m -9.31836,2.77929 0.16211,0.16407 z m 16.18555,4.25 0.32617,1.47266 c -1.85537,1.04096 0.27675,2.28112 -0.10742,3.5957 -0.19904,0.68121 -0.96172,0.79179 -1.27344,1.35743 -0.53655,0.97332 -1.12405,3.92623 -0.93164,5.01757 0.22826,1.29488 1.67525,2.34119 1.93164,3.76172 0.32759,1.81498 -0.1422,3.54636 1.01172,5.18164 0.82235,1.16541 2.26964,2.06184 3.2168,3.16992 0.083,0.0971 0.16545,0.21202 0.24805,0.32032 0.002,-0.0111 0.004,-0.022 0.006,-0.0332 0.0112,-0.0761 0.0282,-0.15196 0.0469,-0.22656 0.0114,-0.0465 0.0245,-0.0918 0.041,-0.13672 0.0108,-0.027 0.0221,-0.0533 0.0332,-0.0801 0.0107,-0.0251 0.0237,-0.0494 0.0351,-0.0742 0.01,-0.0243 0.0225,-0.0473 0.0352,-0.0703 0.005,-0.007 0.01,-0.0168 0.0117,-0.0215 v -0.002 c 0.004,-0.0168 0.0108,-0.0342 0.0156,-0.0508 0.01,-0.0363 0.0215,-0.0717 0.0332,-0.10742 0.008,-0.0282 0.0164,-0.056 0.0254,-0.084 0.01,-0.0333 0.0195,-0.0669 0.0312,-0.0996 0.0104,-0.0311 0.0208,-0.0607 0.0312,-0.0918 0.009,-0.0252 0.0164,-0.0506 0.0234,-0.0762 0.01,-0.0294 0.0183,-0.0602 0.0273,-0.0898 0.01,-0.0319 0.0174,-0.0635 0.0254,-0.0957 0.0108,-0.0386 0.0223,-0.0783 0.0312,-0.11718 0.009,-0.0389 0.0198,-0.0769 0.0312,-0.11524 0.004,-0.0207 0.0145,-0.0399 0.0195,-0.0605 0.008,-0.0217 0.0116,-0.0442 0.0176,-0.0664 0.009,-0.0365 0.0173,-0.0731 0.0273,-0.10938 0.0102,-0.0368 0.0203,-0.0742 0.0293,-0.11133 0.006,-0.0278 0.0126,-0.0539 0.0176,-0.082 0.004,-0.0262 0.0116,-0.0523 0.0176,-0.0781 0.006,-0.0254 0.0144,-0.0517 0.0234,-0.0762 0.004,-0.0144 0.0107,-0.0263 0.0137,-0.041 0.008,-0.0244 0.0154,-0.0498 0.0234,-0.0742 0.0108,-0.0268 0.0203,-0.0546 0.0293,-0.082 0.01,-0.0259 0.0203,-0.0513 0.0273,-0.0781 0.008,-0.0285 0.0154,-0.0561 0.0254,-0.084 0.005,-0.019 0.018,-0.0378 0.0234,-0.0566 0.005,-0.0166 0.0106,-0.034 0.0156,-0.0508 0.008,-0.0217 0.0135,-0.0421 0.0195,-0.0645 0.004,-0.0194 0.0107,-0.0393 0.0156,-0.0586 0.003,-0.0234 0.007,-0.0468 0.01,-0.0703 2.4e-4,-0.002 -2.3e-4,-0.004 0,-0.006 0.005,-0.036 0.0106,-0.0719 0.0176,-0.10742 0.005,-0.0283 0.0135,-0.0564 0.0215,-0.084 0.005,-0.0215 0.01,-0.0429 0.0156,-0.0645 0.006,-0.0292 0.0144,-0.0593 0.0234,-0.0879 0.003,-0.008 0.004,-0.0154 0.006,-0.0234 0.0192,-0.0801 0.055,-0.12724 0.0957,-0.1582 0.005,-0.016 0.009,-0.0325 0.0137,-0.0488 -0.0235,-0.0618 -0.0321,-0.14145 -0.0195,-0.23828 0.013,-0.0998 0.0272,-0.19943 0.043,-0.29883 0.0127,-0.0793 0.0254,-0.15752 0.041,-0.23633 0.01,-0.051 0.0212,-0.10234 0.0352,-0.15234 0.01,-0.0364 0.0213,-0.0716 0.0332,-0.10742 0.013,-0.0371 0.0238,-0.0756 0.0352,-0.11328 0.0179,-0.0575 0.038,-0.11528 0.0586,-0.17188 0.0158,-0.0437 0.0294,-0.0871 0.0449,-0.13086 0.0147,-0.0442 0.0322,-0.0886 0.0469,-0.13281 0.0143,-0.0428 0.0285,-0.0842 0.043,-0.12695 0.01,-0.031 0.0203,-0.0625 0.0293,-0.0937 0.0111,-0.0421 0.0244,-0.0834 0.0371,-0.125 0.0125,-0.0436 0.0282,-0.0874 0.041,-0.13086 0.0126,-0.0392 0.0224,-0.0794 0.0332,-0.11914 0.0128,-0.0456 0.0268,-0.091 0.0391,-0.13672 0.0146,-0.0506 0.0272,-0.10104 0.0391,-0.15234 0.009,-0.0349 0.0162,-0.0703 0.0234,-0.10547 0.002,-0.0378 0.005,-0.0753 0.008,-0.11328 0.005,-0.0461 0.01,-0.0929 0.0156,-0.13868 0.005,-0.0318 0.0106,-0.0643 0.0176,-0.0957 0.005,-0.0293 0.0106,-0.0566 0.0156,-0.0859 0.01,-0.0565 0.0169,-0.11392 0.0293,-0.16992 0.0212,-0.0983 0.0467,-0.19527 0.0703,-0.29297 0.0146,-0.0631 0.0297,-0.1263 0.0449,-0.18945 0.008,-0.058 0.016,-0.116 0.0234,-0.17383 0.0138,-0.11117 0.0283,-0.2232 0.0449,-0.33398 0.009,-0.0584 0.0164,-0.11543 0.0254,-0.17383 0.009,-0.0595 0.0164,-0.11979 0.0234,-0.17969 0.01,-0.0795 0.0224,-0.15928 0.0352,-0.23828 0.009,-0.0626 0.0222,-0.12365 0.0352,-0.18555 0.008,-0.0463 0.0193,-0.0915 0.0371,-0.13476 0.0162,-0.0366 0.0383,-0.069 0.0586,-0.10352 0.0129,-0.0208 0.0241,-0.0426 0.0352,-0.0644 0.0166,-0.0328 0.0335,-0.0662 0.0488,-0.0996 0.0171,-0.0385 0.037,-0.0693 0.0606,-0.0937 0.008,-0.0431 0.0147,-0.0865 0.0234,-0.12891 0.011,-0.0576 0.0233,-0.11367 0.0312,-0.17187 0.004,-0.0268 0.009,-0.0534 0.0137,-0.0801 v -0.002 c -0.0618,-0.0653 -0.10347,-0.17538 -0.0957,-0.32813 0.004,-0.0664 0.007,-0.13086 0.01,-0.19726 0.006,-0.0996 0.0116,-0.20048 0.0156,-0.30079 10e-4,-0.0744 0.006,-0.14835 0.01,-0.22265 0.001,-0.0558 0.007,-0.11052 0.0117,-0.16602 0.003,-0.0318 0.007,-0.0642 0.0117,-0.0957 0.004,-0.0121 0.005,-0.0229 0.006,-0.0352 10e-4,-0.0409 0.002,-0.0822 0.004,-0.12304 0.002,-0.0403 0.0107,-0.0807 0.0117,-0.1211 0.001,-0.0547 0.0107,-0.10941 0.0117,-0.16406 10e-4,-0.11339 0.002,-0.22643 0.002,-0.33984 1.9e-4,-0.057 6e-5,-0.11449 0,-0.17188 -0.003,-0.0162 -0.008,-0.0324 -0.01,-0.0488 -0.005,-0.0356 -0.008,-0.0717 -0.0117,-0.10742 -0.003,-0.0297 -0.007,-0.0604 -0.0117,-0.0898 -0.007,-0.0344 -0.0126,-0.0688 -0.0176,-0.10352 -0.005,-0.0284 -0.01,-0.0558 -0.0156,-0.084 -0.005,-0.0221 -0.007,-0.0444 -0.0117,-0.0664 -0.005,-0.0257 -0.0109,-0.0526 -0.0156,-0.0781 -0.006,-0.0378 -0.008,-0.0757 -0.0156,-0.11328 -0.007,-0.0377 -0.0126,-0.0754 -0.0176,-0.11329 -0.003,-0.0319 -0.007,-0.064 -0.0117,-0.0957 -0.004,-0.0326 -0.01,-0.0639 -0.0176,-0.0977 -0.007,-0.032 -0.0136,-0.0631 -0.0176,-0.0957 -0.004,-0.0289 -0.0135,-0.0573 -0.0195,-0.0859 -0.008,-0.0369 -0.0145,-0.0743 -0.0215,-0.11132 -0.006,-0.0296 -0.0115,-0.0594 -0.0215,-0.0879 -3.3e-4,-10e-4 3.5e-4,-0.003 0,-0.004 -0.0316,-0.0177 -0.0483,-0.0573 -0.0664,-0.13281 -0.0137,-0.0632 -0.0258,-0.12616 -0.0391,-0.18946 -0.0135,-0.0705 -0.0266,-0.14063 -0.041,-0.21093 -0.009,-0.0433 -0.0177,-0.0871 -0.0254,-0.13086 -0.003,-0.0111 -0.008,-0.0225 -0.0117,-0.0332 -0.006,-0.0203 -0.009,-0.0409 -0.0176,-0.0605 -0.008,-0.0271 -0.0165,-0.0539 -0.0215,-0.082 -0.008,-0.0379 -0.0154,-0.0753 -0.0234,-0.11329 -0.008,-0.0426 -0.0175,-0.0856 -0.0215,-0.1289 -0.004,-0.0433 -0.009,-0.0875 -0.0117,-0.13086 -0.001,-0.0414 -0.008,-0.0819 -0.0117,-0.12305 -0.005,-0.0425 -0.0126,-0.0845 -0.0176,-0.12695 -0.008,-0.0562 -0.0154,-0.11197 -0.0254,-0.16797 -0.0126,-0.0676 -0.0237,-0.13568 -0.0371,-0.20312 -0.009,-0.0492 -0.0187,-0.0995 -0.0293,-0.14844 -0.001,-0.007 -0.004,-0.0131 -0.006,-0.0195 -0.0156,0.022 -0.0229,0.0616 -0.0176,0.12695 -0.003,-0.0137 -0.008,-0.0272 -0.0117,-0.041 -0.008,-0.0368 -0.0174,-0.0745 -0.0254,-0.11132 -0.0176,-0.078 -0.0344,-0.15618 -0.0508,-0.23438 -0.012,-0.0514 -0.0218,-0.10283 -0.0332,-0.1543 -5.2e-4,-10e-4 5.3e-4,-0.003 0,-0.004 -0.003,-0.006 -0.008,-0.0134 -0.0117,-0.0195 -0.0171,-0.0335 -0.0328,-0.0668 -0.0469,-0.10157 -0.013,-0.0321 -0.0261,-0.0648 -0.0371,-0.0976 -0.0115,-0.0378 -0.0215,-0.0746 -0.0293,-0.11328 -0.0134,-0.0643 -0.0296,-0.12946 -0.0449,-0.19336 -0.0196,-0.0805 -0.041,-0.16014 -0.0625,-0.24024 -0.017,-0.062 -0.0309,-0.1257 -0.0488,-0.1875 h -0.002 c -0.01,-0.0328 -10e-4,-0.0584 0.01,-0.0742 -0.009,-0.0267 -0.019,-0.0532 -0.0293,-0.0801 -0.0189,-0.0469 -0.04,-0.0924 -0.0605,-0.13868 -0.0239,-0.0535 -0.049,-0.10715 -0.0742,-0.16015 -0.023,-0.0477 -0.0463,-0.0954 -0.0703,-0.14258 -0.0149,-0.0293 -0.0297,-0.0588 -0.0449,-0.0879 -0.0112,-0.0214 3.5e-4,-0.0369 0.0117,-0.0371 0.001,-2e-5 0.0107,-2.7e-4 0.0117,0 -0.004,-5.6e-4 -0.01,10e-4 -0.0117,-0.006 l -0.004,-0.01 c -0.0104,-0.0271 -0.0203,-0.0543 -0.0293,-0.082 -0.0108,-0.032 -0.0189,-0.0638 -0.0293,-0.0957 -0.0115,-0.0344 -0.0256,-0.0691 -0.0371,-0.10352 -0.008,-0.0226 -0.0145,-0.0456 -0.0215,-0.0684 -0.0135,-0.0242 -0.0278,-0.0479 -0.041,-0.0723 -0.0316,-0.059 -0.0611,-0.11823 -0.0918,-0.17773 -0.03,-0.061 -0.0611,-0.12095 -0.0918,-0.18165 -0.0216,-0.0442 -0.0432,-0.0893 -0.0664,-0.13281 -0.024,-0.0433 -0.0374,-0.0899 -0.0527,-0.13672 -0.0143,-0.042 -0.0287,-0.0851 -0.043,-0.12695 -0.0106,-0.0307 -0.0203,-0.062 -0.0332,-0.0918 -0.0154,-0.0341 -0.0325,-0.0679 -0.0488,-0.10156 -0.0228,-0.0459 -0.0442,-0.0906 -0.0664,-0.13672 -0.0296,-0.063 -0.0593,-0.12695 -0.0898,-0.18945 -0.0353,-0.0694 -0.0678,-0.13989 -0.10352,-0.20899 -0.023,-0.0443 -0.0433,-0.0889 -0.0625,-0.13476 -0.0197,-0.0449 -0.0375,-0.0901 -0.0527,-0.13672 -0.008,-0.025 -0.0142,-0.0507 -0.0215,-0.0762 -0.002,-10e-4 -0.008,-0.002 -0.0117,-0.008 -0.0137,-0.0235 -0.0258,-0.0475 -0.0371,-0.0723 -0.012,-0.0291 -0.0143,-0.0582 -0.0293,-0.0859 -0.0136,-0.0286 -0.0282,-0.0579 -0.043,-0.0859 -0.0133,-0.0252 -0.0262,-0.0518 -0.041,-0.0762 -0.0102,-0.0175 -0.0193,-0.0349 -0.0293,-0.0527 -0.01,-0.0201 -0.0162,-0.0403 -0.0254,-0.0606 -0.008,-0.0222 -0.0193,-0.043 -0.0293,-0.0644 -0.0133,-0.0323 -0.0284,-0.065 -0.041,-0.0977 -0.0136,-0.0377 -0.0271,-0.0738 -0.041,-0.11133 -0.002,-0.006 -0.007,-0.0117 -0.01,-0.0176 -0.007,-0.0143 -0.0161,-0.0286 -0.0234,-0.043 -0.0244,-0.0478 -0.049,-0.0963 -0.0723,-0.14453 -0.0241,-0.0489 -0.0493,-0.098 -0.0742,-0.14649 -0.0206,-0.0431 -0.0449,-0.0843 -0.0664,-0.12695 -0.0166,-0.0337 -0.0315,-0.0673 -0.0469,-0.10156 -8e-4,-10e-4 -0.003,-0.003 -0.004,-0.004 -0.009,-0.0138 -0.019,-0.0281 -0.0293,-0.041 -0.0209,-0.0295 -0.0418,-0.0589 -0.0606,-0.0898 -0.0201,-0.0301 -0.0401,-0.0599 -0.0606,-0.0898 -0.033,-0.0449 -0.0689,-0.0881 -0.0996,-0.13477 -0.0416,-0.0621 -0.0805,-0.12545 -0.11914,-0.18945 -0.043,-0.0735 -0.0865,-0.14766 -0.12695,-0.22266 -0.0312,-0.0585 -0.0643,-0.11738 -0.0957,-0.17578 -0.0254,-0.0469 -0.0503,-0.0931 -0.0781,-0.13867 -0.0214,-0.0384 -0.041,-0.0761 -0.0644,-0.11328 -0.0234,-0.0392 -0.0449,-0.0793 -0.0703,-0.11719 -0.0359,-0.0577 -0.0694,-0.11633 -0.10546,-0.17383 -0.0394,-0.0638 -0.0787,-0.12906 -0.11719,-0.19336 -0.0326,-0.0569 -0.0646,-0.11407 -0.0957,-0.17187 -0.0284,-0.0553 -0.0533,-0.10992 -0.0801,-0.16602 -0.023,-0.0471 -0.0478,-0.0953 -0.0742,-0.14062 -0.0106,-0.0187 -0.0232,-0.0363 -0.0371,-0.0527 -0.0169,-0.0221 -0.0308,-0.0458 -0.0469,-0.0684 -0.0372,-0.0499 -0.0739,-0.10049 -0.10546,-0.15429 -0.006,-0.0104 -0.0135,-0.0215 -0.0195,-0.0312 l -0.20703,0.0488 z m -72.91602,4.41407 v 0.16406 h 0.65235 z m 1.79688,0 -0.16211,0.65429 h 0.16211 z m 65.56055,0.32812 0.16211,0.16211 z m 3.37695,0.2168 0.10937,0.0547 z m -2.07031,0.10937 v 0.49024 l 0.32812,-0.49024 z m 1.96289,0.16407 v 0.49023 l 0.32617,-0.49023 z m -1.14453,0.32617 v 0.32812 h 0.32617 v -0.32812 z m -68.99219,0.32812 -0.16406,0.65235 0.81836,0.49218 -0.32813,-1.14453 z m -4.9043,2.12696 c -1.17868,0.0345 -2.82564,0.22822 -3.27148,1.46875 l 3.27148,-1.14454 -0.16406,0.49024 4.08594,0.32812 c 0.43436,0.77418 0.96142,0.81345 1.79882,0.81641 l -0.65429,0.81836 4.41406,-0.49023 c -0.80774,-0.64234 -2.11999,-0.77598 -3.10547,-1.06641 -2.20016,-0.64842 -4.05239,-1.28881 -6.375,-1.2207 z m -0.98242,1.14257 -0.6543,0.16407 v 0.16211 l 0.6543,0.16406 z m 11.11719,0.16407 v 0.16211 h 0.81836 z m 2.00586,1.08007 c -0.53301,-0.0176 -1.08606,-5e-5 -1.67774,0.0625 v 0.16407 l 0.81641,0.16406 0.32812,0.81641 -2.61718,0.16406 v 0.16406 c 2.0658,0.78299 5.76066,0.24707 7.84765,-0.32812 v -0.32618 c -1.68659,-0.45407 -3.09823,-0.82804 -4.69726,-0.88086 z m -1.35157,0.88086 0.32813,0.32618 z m 7.6836,0.16407 -0.16211,0.16211 v 0.32812 c 0.77703,0.22968 1.53344,0.27594 2.125,-0.32812 z m -12.97656,0.59375 c -0.48168,-0.0427 -0.99769,0.0169 -1.41016,0.0605 0.73096,0.75488 1.65317,0.50945 2.61523,0.49024 -0.27665,-0.36343 -0.7234,-0.50812 -1.20507,-0.55078 z m 19.84375,0.71289 0.16406,0.16406 z m 0.65429,0.65429 -0.65429,0.32813 0.16406,0.16211 z m -0.16406,0.81836 v 0.32618 h 0.32617 v -0.32618 z m 42.94336,0.54492 0.10937,0.0547 z m -42.45313,0.10938 0.32813,0.49023 z m 0.21875,0.92578 0.0547,0.10938 z m 1.74414,0.70899 0.16211,0.16211 z m 42.34376,0.16211 0.49023,0.32812 z m -0.49219,0.16406 0.16406,0.16406 z m -47.90039,1.79883 v 0.16211 h 0.49023 z m 4.41406,0.16211 -0.81836,0.16406 -0.16406,0.65429 c 0.63178,-0.049 0.87587,-0.17902 0.98242,-0.81835 z m -27.95703,4.25195 0.16406,0.16406 z m 42.34375,6.53906 -0.16406,0.49023 h 0.98046 v 0.16407 l -1.96093,0.98047 -0.16407,-0.6543 v -0.16211 z m -0.32813,0.49023 -0.49023,0.32813 z m -1.4707,1.47266 v 0.16211 h -0.6543 z m -53.625,0.16211 -0.32617,0.6543 h 0.6543 l -0.32813,0.65429 0.6543,-0.16406 z m 55.91406,0.16406 v 0.16407 h -0.49023 z m -55.0957,0.16407 0.16406,0.1621 z m 0.49023,0.1621 -0.16406,0.32813 h 0.32813 z m 1.14454,0.16407 0.16406,0.16406 z m 112.17773,26.97461 c -0.044,0.11557 -0.086,0.23163 -0.12891,0.34765 0.002,0.17504 -0.001,0.34943 0.01,0.52539 0.0296,-0.29229 0.0757,-0.58251 0.11914,-0.87304 z m 1.5625,1.05664 c -0.008,0.0777 -0.0198,0.15472 -0.0273,0.23242 -0.0199,0.1914 -0.0403,0.3828 -0.0606,0.57422 0.0394,-0.21278 0.0776,-0.42591 0.11719,-0.63867 -0.0122,-0.0538 -0.0217,-0.10873 -0.0293,-0.16797 z m -58.31836,0.58008 0.16406,0.1621 z m 58.08594,6.40625 c 10e-4,0.21419 0.003,0.42837 0.004,0.64257 0.0432,-0.20334 0.0814,-0.40819 0.125,-0.61132 -0.0436,-0.006 -0.0867,-0.0168 -0.1289,-0.0312 z m -90.29297,12.88476 0.16406,0.16406 z m 0,1.79883 0.16406,0.6543 h -0.16406 z m 0.32812,0.49023 h 0.32618 l -0.16407,0.49024 h -0.16211 z m 0.32618,2.61524 h 0.32617 v 0.32812 h -0.32617 z m -1.14454,0.81836 h 0.81836 v 0.65429 c -0.3918,-0.13483 -1.00664,-0.16214 -0.81836,-0.65429 z m 0,0.65429 v 0.32618 h -0.32617 z m -0.16406,1.30664 v 0.81836 l 0.49219,-0.81836 z m 0.6543,1.9629 0.49023,0.8164 -0.16211,-0.8164 z m 2.7793,0.1621 v 0.16407 l -0.6543,0.16406 z m 3.26953,0.6543 -0.81641,1.14453 h 1.14453 v 0.16407 l -0.81836,0.32617 0.49024,0.65429 -0.81641,-0.16406 v -0.65234 h -0.16406 l -0.16406,0.98047 h -0.16211 l -0.49024,-0.49024 v -0.16406 h 0.49024 c 0.004,-1.08764 0.22819,-1.4997 1.30664,-1.79883 z m -2.28907,0.16406 v 0.16407 l -1.14257,0.16211 z m -2.77929,0.6543 v 0.16211 l 0.97656,0.16406 z m 4.25195,1.52539 c 0.12644,0 0.026,0.0816 -0.0547,0.0547 z m 6.53906,0.27344 v 0.16211 h 0.49024 z m -5.55859,0.2168 c 0.12644,0 0.026,0.0816 -0.0547,0.0547 z m -1.63477,0.10937 0.16407,0.16406 z m 0.32618,0.16406 v 0.16211 h 0.65429 z m 3.8164,0.76172 0.0527,0.10938 z m -0.38281,0.21875 0.16406,0.16407 z m 21.19922,6.10352 0.10937,0.0547 z m -14.4961,2.23437 v 0.14453 c 0.022,-0.0299 0.0438,-0.0604 0.0664,-0.0898 0.0102,-0.0133 0.0211,-0.0259 0.0312,-0.0391 z m -9.31835,8.82813 v 0.041 c 9.9e-4,-0.0131 0.002,-0.026 0.004,-0.0391 z m -0.98047,0.49023 -0.98243,0.16406 v 0.16407 l 0.98243,0.16211 z m 0.8164,0.98047 -1.96093,0.49024 v 0.16406 c 0.74365,-0.006 1.50968,0.005 1.96093,-0.6543 z m -0.8164,1.14453 c 0.12379,0.37695 0.35569,0.52581 0.63671,0.63282 0.006,-0.0469 0.0127,-0.0939 0.0195,-0.14063 0.003,-0.0358 0.006,-0.0714 0.004,-0.10742 v -0.17578 -0.17188 c -0.06,0.0377 -0.12452,0.0695 -0.16992,0.12695 z m -13.57032,1.47266 -0.49023,0.49023 h -0.16406 c -0.44141,-0.61229 -2.26405,-0.25344 -2.61524,0.32617 h 3.92383 l -0.16406,-0.65429 -0.49024,0.32812 z m 13.73243,0.16211 -0.16211,0.49023 0.60742,0.20313 c -7.3e-4,-0.0903 -0.001,-0.18133 0.002,-0.27149 4.1e-4,-0.009 0.002,-0.0182 0.002,-0.0273 -1e-4,-10e-4 7e-5,-0.002 0,-0.004 -3.5e-4,-0.007 -6.3e-4,-0.0135 0,-0.0215 10e-5,-10e-4 -1.1e-4,-0.003 0,-0.004 1.5e-4,-0.004 0.002,-0.008 0.002,-0.0117 8.6e-4,-0.0222 2e-5,-0.0444 0.002,-0.0664 0.001,-0.0296 0.003,-0.0583 0.004,-0.0879 v -0.0996 -0.0625 c -0.002,-0.013 -0.004,-0.0257 -0.004,-0.0371 z m -10.29883,0.32812 0.32617,0.81641 -6.86524,0.16406 c 0.73832,0.88641 1.88041,0.6543 2.94141,0.6543 v 0.16406 l -1.63476,0.16211 v 0.16406 l 3.76171,1.3086 v 0.16211 l -2.12695,0.0527 -3.5957,0.60156 c -0.20809,-0.70079 -0.59984,-0.90126 -1.3086,-0.98047 l 0.6543,0.81641 -2.28906,-0.81641 0.49023,0.6543 -1.30664,0.16211 c -0.19329,0.83041 -2.92632,1.5883 -3.76172,1.63477 l 0.16407,1.14453 c 1.18895,1.38884 1.59334,1.7063 3.43359,2.12695 l -0.16406,0.49024 h 0.65429 v 0.1621 h -1.14453 v 0.16407 l 6.04883,1.46679 3.43359,1.35547 5.72266,1.26563 v 0.16406 l -0.49023,0.16211 v 0.16406 h 4.74023 v 0.16406 l -1.30859,0.49024 v 0.16211 c 2.58515,0.0214 5.14988,0.2722 7.72265,0.46289 -0.0414,-0.0845 -0.0763,-0.18248 -0.10156,-0.29688 -0.0123,-0.0541 -0.005,-0.11221 -0.0176,-0.16601 -0.009,-0.0705 -0.028,-0.14019 -0.0449,-0.20899 -0.0368,-0.12296 -0.0728,-0.24601 -0.11523,-0.36718 -0.0442,-0.12066 -0.0906,-0.24136 -0.13672,-0.36133 -0.0427,-0.1073 -0.0858,-0.21242 -0.12695,-0.32031 -0.0413,-0.10609 -0.0704,-0.21675 -0.10743,-0.32422 -0.0334,-0.10052 -0.068,-0.20098 -0.10351,-0.30078 -0.024,-0.0701 -0.048,-0.13969 -0.0742,-0.20899 -0.0268,-0.0709 -0.0486,-0.1442 -0.0703,-0.2168 -0.0193,-0.0763 -0.0409,-0.15221 -0.0606,-0.22851 -0.0286,-0.0987 -0.0515,-0.19808 -0.0801,-0.29688 -0.0317,-0.1076 -0.0549,-0.2179 -0.084,-0.32617 -0.0272,-0.10159 -0.0504,-0.20379 -0.0723,-0.30664 -0.0196,-0.10715 -0.043,-0.21352 -0.0644,-0.32031 -0.0218,-0.10231 -0.0423,-0.20438 -0.0645,-0.30664 -0.0218,-0.10312 -0.0439,-0.20756 -0.0664,-0.31055 -0.0238,-0.13287 -0.0576,-0.2631 -0.0879,-0.39453 -0.0305,-0.13226 -0.0598,-0.26412 -0.0899,-0.39648 -0.0231,-0.11742 -0.053,-0.2331 -0.0801,-0.34961 -0.01,-0.0418 -0.0222,-0.0832 -0.0332,-0.125 -0.007,-0.016 -0.01,-0.0373 -0.0156,-0.0547 -0.01,-0.0345 -0.0169,-0.0696 -0.0274,-0.10352 -0.0314,-0.11025 -0.0636,-0.2186 -0.0976,-0.32812 -0.0263,-0.074 -0.052,-0.14838 -0.0781,-0.22266 -0.19212,-0.0728 -0.36026,-0.25562 -0.34961,-0.65429 0.003,-0.0999 -0.008,-0.19963 -0.0176,-0.29883 -0.003,-0.0326 -0.006,-0.0651 -0.01,-0.0977 -0.0156,-0.0404 -0.0315,-0.0807 -0.0469,-0.12109 -0.0587,-0.15492 -0.12094,-0.30878 -0.18164,-0.46289 -5.3e-4,-10e-4 -9.5e-4,-0.003 -0.002,-0.004 -0.96972,-0.0265 -1.90902,-0.18178 -2.59961,-0.97266 0.77894,0.33516 1.57049,0.52182 2.38867,0.39063 -0.0283,-0.0871 -0.054,-0.17552 -0.0801,-0.26367 -0.0253,-0.0878 -0.0507,-0.17576 -0.0762,-0.26368 l -1.41601,-0.35546 v -0.16211 c 0.35178,0.0445 0.85465,0.13007 1.33203,0.20312 -0.0226,-0.096 -0.0439,-0.19216 -0.0625,-0.28906 -0.0244,-0.1449 -0.0449,-0.29139 -0.0605,-0.4375 -0.0149,-0.10878 -0.0272,-0.21669 -0.0351,-0.32617 -0.009,-0.0934 -0.005,-0.18775 -0.0117,-0.28125 -0.009,-0.0984 -0.0146,-0.19818 -0.0176,-0.29688 -0.008,-0.12029 -0.0145,-0.23889 -0.0195,-0.35937 -0.001,-0.0212 -9.5e-4,-0.0433 -0.002,-0.0645 -0.003,-0.0814 0.003,-0.15431 0.0137,-0.22265 -0.0413,-0.10553 -0.0679,-0.23272 -0.0684,-0.38672 -1.6e-4,-0.0601 4e-4,-0.11949 0,-0.17969 0,-0.1099 -2.8e-4,-0.22021 -0.004,-0.33008 -0.003,-0.13164 -0.009,-0.26314 -0.0176,-0.39453 -0.007,-0.10104 -0.0116,-0.2036 -0.0176,-0.30469 -7.4e-4,-0.0117 -0.002,-0.024 -0.002,-0.0351 -0.0115,-0.0484 -0.0342,-0.079 -0.0371,-0.13867 -0.008,-0.15773 -0.0146,-0.31475 -0.0176,-0.47266 -0.005,-0.19382 -0.009,-0.38817 -0.0117,-0.58203 -1.9e-4,-0.0215 8e-5,-0.043 0,-0.0644 l -3.57618,-0.59571 -0.32617,0.32617 0.16211,0.6543 -4.74023,-0.32617 c -0.26128,-0.77686 -0.99843,-0.55736 -1.14453,0.16211 h -0.49024 v -0.16211 z m -2.01563,0.2168 0.10742,0.0547 z m -5.01367,1.25391 0.16211,0.16406 z m 49.37305,0.16406 -0.6543,0.8164 z m -53.29688,1.79883 v 0.32617 h 0.32617 v -0.32617 z m -4.25195,0.16211 c 0.46819,0.67099 1.51488,0.75513 2.28906,0.81836 v -0.16407 l -0.49023,-0.16406 v -0.16211 l 1.4707,0.49024 -0.13281,-0.67579 z m 3.13672,0.14257 0.46094,0.0215 -0.49024,-0.16406 z m 25.67578,0.10938 c -0.0107,0.10994 -0.0214,0.22009 -0.0312,0.33008 l 0.0234,0.002 c 0.001,-0.11075 0.006,-0.22136 0.008,-0.33203 z m 39.17969,0.45508 c -0.0437,0.15564 -0.0863,0.3114 -0.13086,0.46679 0.007,-0.0137 0.0143,-0.0273 0.0215,-0.041 0.0292,-0.10292 0.0591,-0.20561 0.0879,-0.30859 0.003,-0.0111 0.007,-0.0221 0.01,-0.0332 2.8e-4,-0.002 -2.9e-4,-0.004 0,-0.006 0.004,-0.026 0.008,-0.0521 0.0117,-0.0781 z m -66.24805,0.65625 0.10937,0.0547 z m -1.25391,0.27148 v 0.16406 h 0.49024 z m 2.7793,3.92383 0.16406,0.16406 z m 4.41406,2.28906 v 0.16407 l 1.79883,0.49023 z m 5.88672,1.47266 0.16406,0.16211 z" /><path
       style="display:inline;fill:#ffffff;fill-opacity:1"
       d="m 283.34967,514.12812 -33.12135,-2.85488 a 43.809226,43.809226 15.888618 0 1 -16.02511,-4.56143 l -19.41414,-9.82842 a 56.944598,56.944598 39.326066 0 1 -19.03099,-15.59115 l -8.50133,-10.80377 a 70.924943,70.924943 60.413912 0 1 -10.48804,-18.47273 l -2.84935,-7.43308 a 67.268684,67.268684 79.141224 0 1 -4.45114,-23.20432 l -0.097,-7.46741 a 114.67186,114.67186 97.848159 0 1 4.67873,-33.94328 129.66613,129.66613 112.6045 0 1 10.34538,-24.84768 l 3.15243,-5.84128 a 182.28354,182.28354 122.61243 0 1 14.58676,-22.79778 l 5.45593,-7.27457 A 232.07895,232.07895 123.03369 0 0 224.51914,293.172 l 6.66676,-11.92999 a 249.60896,249.60896 117.36359 0 0 7.34313,-14.1884 l 8.27637,-17.32864 a 138.76989,138.76989 112.11434 0 0 6.22436,-15.31777 l 6.37062,-18.82228 a 688.90481,688.90481 108.31345 0 0 2.91317,-8.80166 l 3.82898,-11.83505 -0.72012,42.84729 a 177.18034,177.18034 95.485423 0 1 -2.67104,27.81394 l -0.23129,1.31066 a 151.40489,151.40489 106.65644 0 1 -10.04889,33.58744 l -6.39686,14.84986 27.05543,-5.16789 a 120.91804,120.91804 176.60719 0 1 31.18086,-1.84855 l 18.21399,1.28267 -28.68214,8.72935 a 198.05366,198.05366 158.46282 0 0 -29.61129,11.6864 l -5.58464,2.74155 a 62.246087,62.246087 147.35892 0 0 -11.85671,7.59466 l -3.17051,2.57985 a 75.46164,75.46164 136.22686 0 0 -8.81171,8.44221 l -3.67302,4.1386 a 142.40285,142.40285 129.00995 0 0 -8.067,9.95839 l -8.66938,11.74562 a 51.591059,51.591059 120.40862 0 0 -5.47937,9.33613 75.456226,75.456226 102.51394 0 0 -5.18138,23.34486 l -0.1719,1.59481 a 77.33587,77.33587 88.021276 0 0 0.75531,21.86207 l 0.39175,2.19718 a 170.19225,170.19225 76.912148 0 0 4.00517,17.22774 l 1.55728,5.40722 a 49.130788,49.130788 65.262883 0 0 6.19877,13.45414 l 4.23308,6.41788 a 55.205063,55.205063 42.994049 0 0 18.98673,17.70174 l 10.30241,5.80414 a 54.725812,54.725812 24.308257 0 0 8.84564,3.99549 z"
       id="path10"
       transform="translate(-413.08798,346.50495)"
       sodipodi:nodetypes="cccccccccccccccccccccccccccccc"
       inkscape:label="agua w"
       inkscape:original-d="m 283.34967,514.12812 -41.57567,-3.5836 -38.22513,-19.35148 -22.93509,-29.14667 -10.98972,-28.66885 -0.47782,-36.7917 8.60066,-29.14667 16.24568,-30.1023 22.93509,-30.58011 18.15694,-32.49137 15.29005,-32.01355 10.51192,-31.05793 5.25595,-16.24568 -0.95563,56.8599 -5.73377,32.49136 -13.3788,31.05793 42.52547,-8.12284 33.92481,2.38907 -43.95891,13.3788 -26.27978,12.90098 -13.41488,10.91572 -11.99423,13.51463 -15.71075,21.28554 -5.74372,12.66996 -3.04079,28.21179 3.88545,21.79233 6.08159,21.11661 15.71075,23.81953 26.18168,14.75016 z"
       inkscape:path-effect="#path-effect12" /><path
       style="fill:#ffffff;fill-opacity:1;stroke-width:1.03828"
       d="m 62.240471,892.49153 -2.917295,-3.78672 a 52.798406,52.798406 61.834335 0 1 -8.179468,-15.27662 103.31081,103.31081 84.573977 0 1 -3.427655,-36.08587 129.13396,129.13396 97.484365 0 1 2.58477,-19.67476 l 2.127929,-11.70885 a 75.314321,75.314321 109.3875 0 1 7.897155,-22.44082 l 1.058049,-1.95074 a 66.601083,66.601083 123.00544 0 1 5.731666,-8.82415 l 15.726244,-20.46804 a 37.439163,37.439163 119.17697 0 0 5.306903,-9.50456 232.77577,232.77577 101.75172 0 0 11.459724,-55.08643 66.69293,66.69293 78.594991 0 0 -4.674355,-23.17176 48.391576,48.391576 64.999623 0 0 -5.677695,-12.17565 L 73.262539,623.99718 91.98288,647.85205 a 85.986048,85.986048 60.605082 0 1 12.80916,22.73731 l 1.1,2.91624 a 239.3796,239.3796 74.877771 0 1 12.0669,44.65303 191.77906,191.77906 87.00248 0 1 1.67966,32.07632 182.05711,182.05711 95.114159 0 1 -2.46824,27.57905 169.61053,169.61053 104.90972 0 1 -9.3514,35.12117 162.56238,162.56238 115.34763 0 1 -8.085863,17.06904 l 0,0 a 83.527566,83.527566 124.5184 0 1 -11.216075,16.30827 l -5.944148,6.76064 6.095822,-5.05391 a 69.684102,69.684102 130.02419 0 0 16.048154,-19.10905 91.768496,91.768496 112.54838 0 0 5.92896,-14.27965 293.99689,293.99689 106.23919 0 0 8.82175,-30.28733 145.16401,145.16401 96.213459 0 0 3.75621,-34.50104 323.20343,323.20343 85.512308 0 0 -2.81699,-35.89178 l -0.60867,-5.58268 5.01906,12.49928 a 95.418937,95.418937 72.357165 0 1 4.27132,13.43005 231.4575,231.4575 78.492148 0 1 2.78763,13.692 152.06441,152.06441 87.758394 0 1 1.50239,38.38194 l -0.29769,3.72999 a 205.30808,205.30808 99.477318 0 1 -5.79169,34.69414 139.45798,139.45798 111.15419 0 1 -11.83793,30.59253 l 0,0 a 113.87547,113.87547 126.08549 0 1 -19.099843,26.20636 32.590442,32.590442 151.94879 0 1 -17.467644,9.30775 l -4.888226,0.89484 a 35.366477,35.366477 174.23053 0 1 -5.649178,0.57078 z"
       id="path11"
       sodipodi:nodetypes="cccccccccccccccccccccccccccccccccc"
       transform="matrix(1.2912852,0,0,0.65299966,-212.14323,278.01645)"
       inkscape:label="folha w"
       inkscape:original-d="m 62.240471,892.49153 -8.27771,-10.74468 -6.87296,-20.28122 0.79138,-30.48408 6.701508,-36.8748 9.317477,-17.17877 22.293453,-29.0154 8.953791,-23.54907 4.757491,-39.11664 -5.852393,-24.41223 -20.789969,-36.83746 26.870351,34.24023 13.95979,37.00905 5.55726,32.93334 -0.0173,33.64037 -5.2402,34.03796 -8.9887,23.35148 -10.305714,19.6179 -12.525152,14.24561 15.858742,-13.14812 8.279004,-14.50891 8.06456,-22.10339 8.39291,-33.92938 0.0836,-29.33982 -3.45358,-31.67582 7.65197,19.05616 3.09968,13.00322 4.46425,25.45204 -3.33757,41.81789 -8.48709,33.0756 -15.40319,29.09195 -18.685399,19.16684 -17.90688,3.27804 z"
       inkscape:path-effect="#path-effect14" /><ellipse
       style="fill:#0172d1;fill-opacity:0.32579;stroke-width:0.9251"
       id="ellipse1"
       cx="-143.1891"
       cy="765.44312"
       rx="80.963737"
       ry="80.610184" /><circle
       style="fill:url(#radialGradient8);fill-opacity:1"
       id="circle1"
       cx="-120.15553"
       cy="613.3515"
       r="17.679127"
       inkscape:export-filename="path3.png"
       inkscape:export-xdpi="89.206543"
       inkscape:export-ydpi="89.206543" /><path
       id="path2"
       style="fill:url(#linearGradient17);fill-opacity:1;stroke:none;stroke-width:1.1898"
       inkscape:label="planeta"
       d="m -143.69523,685.44159 v 0.16407 l 2.28711,0.49023 -0.16211,0.49024 1.96094,0.49023 -0.6543,-0.16211 c 0.0822,1.16988 1.10553,1.48417 1.99024,2.06641 2.02562,1.33309 4.55279,2.40301 7.00195,2.50976 l -0.81641,-2.77929 c 0.73639,-0.17588 1.59229,-0.0587 1.63477,-0.98047 l 1.63477,-0.16407 c -0.96484,-0.86736 -2.6808,-0.9883 -3.92383,-1.21289 -3.59353,-0.64927 -7.30632,-0.91207 -10.95313,-0.91211 z m -6.21484,0.38282 c -1.16487,-0.0772 -2.38286,0.0573 -3.26758,0.17773 -0.63018,0.0858 -1.52869,-0.077 -1.96289,0.41992 l -0.81641,-0.16211 v 0.16211 h 0.65235 v 0.16407 l -0.65235,0.16406 v 0.16406 h 0.65235 c -0.7962,0.77253 -1.458,0.61853 -2.45117,0.49024 v -0.16407 l 1.4707,-0.65429 v -0.16407 l -4.08594,1.47266 v 0.16211 h -0.49219 l 0.49219,-0.16211 -0.98242,-0.16406 v 0.16406 l -2.94141,0.6543 v -0.32813 l 2.94141,-0.49023 0.81836,-0.49024 v -0.16406 c -1.97192,0.25466 -4.44815,0.70858 -6.21289,1.63477 v 0.16406 l 0.65429,-0.16406 v 0.16406 l -1.79882,0.32617 v -0.16211 h 0.32617 v -0.16406 c -1.8417,0.27199 -3.65794,1.14358 -5.39453,1.79101 -4.18046,1.55853 -8.26736,3.43233 -12.09766,5.73047 -1.84427,1.10654 -4.32367,2.29497 -5.39453,4.25 l -0.49219,-0.16406 c -0.27244,1.47134 -2.33853,2.04864 -1.96094,3.59766 -1.05452,0.5516 -1.63967,1.61363 -2.45507,2.45117 -2.81312,2.88948 -4.29972,5.26591 -5.22852,9.15625 1.67931,0.56985 0.81326,1.91163 0.86914,3.26953 0.0372,0.90525 0.67199,1.42887 -0.3789,1.96094 l 1.08398,1.23828 0.0859,1.33203 0.95508,1.35352 c 0.57536,-0.32062 0.77202,-0.97876 0,-1.14454 l -0.16407,-4.25 v -0.16406 l -0.49023,0.16406 c -0.14029,-1.00314 0.11896,-1.99414 1.30859,-1.79882 l -0.49023,1.96289 1.63476,1.63476 -0.32812,0.81641 c 0.87078,0.69321 2.01398,1.79188 2.19531,2.94336 0.13624,0.86516 -0.81678,1.79878 -0.0234,2.48437 1.55799,1.35894 5.90116,2.52714 7.96485,2.3711 0.90543,-0.0684 1.68961,-0.84614 2.61719,-0.69727 1.14638,0.18399 1.86232,1.2879 2.9414,1.6211 1.68189,0.51931 3.52846,0.37774 5.23242,0.43359 l -0.32812,0.49023 1.84961,1.36914 0.38086,1.10547 0.87695,-0.0215 h 0.16406 0.16211 l 1.3086,0.8164 -0.16407,0.49024 h 0.81836 v 0.32812 c 1.09898,-0.20319 2.11833,0.0248 2.94336,0.81641 l 0.98047,-0.32617 -0.49023,-0.81836 3.10546,-0.32617 0.82032,2.125 0.32422,2.45312 v 0.16211 c -0.90224,0.77725 -2.26536,1.52509 -2.45313,2.7793 l -1.63476,0.49219 c -0.0119,0.81927 -0.5466,1.4418 -1.14454,1.96093 v 1.3086 l 0.81836,0.8164 0.81641,-0.65429 -2.01953,2.1289 0.0586,1.95899 c 3.4476,1.13359 5.1577,6.05676 6.99414,8.80664 1.72235,2.57903 6.1108,1.87572 7.90625,4.46679 1.17566,1.69661 0.20674,3.77662 0.11328,5.52735 -0.15528,2.90956 -0.93398,5.65036 -1.14062,8.50195 -0.057,0.78685 0.39876,1.49108 0.2793,2.28906 -0.28495,1.90367 -1.49622,3.5143 -1.72657,5.39454 l -0.65429,0.16406 c 0.16326,0.76289 0.64126,1.65924 0.59961,2.4375 -0.065,1.2135 -0.73289,1.69585 -0.10938,2.95703 -0.69953,0.14991 -0.53593,1.17278 -0.6543,1.79883 1.11245,-0.0888 1.00176,-1.06085 0.81836,-1.96289 l 0.81641,-0.32618 0.49023,0.81836 -1.14453,4.08594 0.16407,-1.14453 -0.49024,0.16406 0.32617,-0.49023 -0.98047,0.16406 c 0.19932,1.30001 -0.47011,1.89175 -1.14453,2.94141 l 0.16407,0.16406 1.63476,-0.16406 v 1.47265 l -0.49023,0.16211 -0.16407,-0.49023 c -1.11412,0.582 -0.54504,1.71027 -0.16406,2.61719 l 0.81836,0.1621 0.6543,-0.8164 v 0.16211 c -0.59197,0.47137 -0.96438,1.42018 -0.6543,2.12695 l -0.49023,0.49024 0.8164,-0.6543 0.6543,0.16406 -0.32617,0.81641 0.8164,-0.16407 -0.65429,0.32813 c 0.23399,0.60632 0.50969,0.70277 1.14453,0.6543 v 0.16211 l -0.32617,0.16406 0.65429,0.6543 -0.49023,-0.16407 -0.16406,0.49024 0.98047,0.16406 v 0.32617 l 0.65429,-0.16211 -0.16406,-0.32812 v -0.16211 h -0.65234 l 0.65234,-0.16406 v 0.16406 l 0.6543,0.16211 -0.32617,0.65429 h 0.8164 v 0.16407 l -0.49023,0.32617 2.125,0.16406 c 0.26358,0.74452 1.26927,0.75194 1.96289,0.98047 l -1.14453,-0.81641 v -0.16406 l 2.125,0.49024 v -0.49024 h 1.96289 l -0.16407,-0.49023 c -1.35997,0.0814 -2.33435,-1.00884 -3.43359,-1.63477 l 0.16406,-0.49023 -1.30859,-0.6543 1.14453,0.16406 c -0.24502,-0.51978 -0.79237,-1.03166 -0.79297,-1.63476 -5.1e-4,-0.53111 1.53293,-2.31032 1.96094,-2.72657 0.49053,-0.47706 1.37994,-0.74884 1.49414,-1.51757 0.15018,-1.01113 -1.93815,-0.65439 -1.91016,-1.8125 0.0233,-0.96617 1.27385,-1.31042 2.02735,-1.30079 0.38192,-0.97687 0.52754,-1.89139 1.4707,-2.45312 l -0.65234,-0.49023 1.63476,0.16406 c -0.21697,-1.31896 -2.03083,-0.36196 -1.79883,-2.45313 1.91786,0.62384 4.39651,0.44171 3.26954,-2.28906 1.67138,0.39792 7.2054,0.0886 7.0957,-2.58203 -0.0571,-1.3918 -1.68899,-2.00015 -2.02735,-3.14063 1.44041,0.87617 4.22025,1.64378 5.70704,0.54883 1.07328,-0.79041 1.80859,-2.27107 2.95703,-2.83593 v -0.16407 h -0.49024 l 1.96289,-1.79883 -1.30859,1.47071 v 0.16406 c 1.31544,-0.44724 1.72733,-1.67467 2.63086,-2.60937 0.42117,-0.4357 1.03638,-0.7615 1.29101,-1.33204 0.36046,-0.80756 0.0528,-1.75642 0.39454,-2.58984 0.53108,-1.29522 2.85781,-2.48365 4.18554,-2.13281 0.84364,-1.46403 2.43234,-0.71896 3.74414,-1.03516 0.65366,-0.15756 1.14714,-0.72905 1.81446,-0.92773 l 1.72851,-3.1211 1.10157,-3.58203 0.27539,-3.75976 c 1.06597,0.40783 1.38648,-0.78406 1.99609,-1.46485 1.281,-1.43057 2.9483,-2.23268 2.7168,-4.41992 -0.25471,-2.40648 -1.44343,-1.91255 -3.07813,-2.9375 -1.11419,-0.6986 -1.98733,-1.68322 -3.26953,-2.11328 -0.79816,-0.2677 -1.63721,-0.10232 -2.45312,-0.27539 -1.3017,-0.27604 -2.31762,-0.73464 -3.59571,-0.0703 0.49563,-1.22027 -0.70263,-1.47857 -1.63476,-1.83008 -1.97305,-0.74407 -2.95425,-0.7694 -4.41407,0.84961 l -0.65429,-0.32617 v -0.16407 c 0.97414,-0.11791 1.51966,-0.44072 1.63476,-1.4707 l -2.45312,-0.6543 v -0.16406 h 0.32812 v -0.16406 l -0.49023,-0.16211 c 1.09076,-0.66831 -0.90121,-2.67713 -1.3086,-3.76172 l -0.49023,0.16406 c -1.43312,-2.27164 -4.5356,-1.57267 -6.70313,-1.96875 -0.88215,-0.16121 -1.53715,-0.74967 -2.45312,-0.81054 -0.2639,-1.67377 -2.38846,-1.96124 -3.75977,-1.63477 l 0.49024,-0.49023 -2.61524,-1.63477 h 0.81836 v -0.16406 l -4.08789,0.58984 -3.57617,-0.36133 -2.63672,-0.88281 0.16407,-0.49023 h -0.6543 l 0.16406,0.65429 -1.79883,0.49024 c 0.12454,0.87875 0.60997,1.42983 -0.32812,1.96289 l -0.16211,-2.61719 0.98047,-0.32617 v -0.32813 c -0.979,-0.23588 -1.74096,0.47602 -2.61524,0.85352 -1.42192,0.61395 -3.32264,0.22859 -3.43359,2.25391 -0.86077,0.13047 -1.49245,0.58805 -1.63477,1.4707 h -0.16406 c -1.40862,-2.38885 -4.8501,-0.92885 -6.86719,-0.49024 -0.47887,-0.8312 -1.66165,-1.2649 -1.80468,-2.28906 -0.15009,-1.07482 1.24238,-2.75131 0.65625,-3.68359 -1.04474,-1.6617 -5.12362,-0.3078 -6.69727,-0.24024 0.71544,-0.86619 1.09044,-1.63821 1.14258,-2.77929 l 0.49219,0.32812 c 0.38157,-0.7548 0.59007,-1.85254 1.4707,-2.125 v -1.14453 c -1.18411,0.2819 -2.43804,0.24647 -3.59375,0.69531 -1.14925,0.44633 -1.28008,2.02817 -2.45508,2.58985 -3.13188,1.49716 -7.47528,-0.0813 -5.8125,-4.10352 0.40606,-0.98227 0.80897,-1.98959 1.22461,-2.94336 0.67569,-1.55051 2.59584,-1.38986 3.2793,-2.7793 h 6.37694 l -0.49023,-0.32617 c 0.26821,-0.44701 0.43711,-0.30459 0,-0.65429 1.92284,-0.39666 3.36643,-0.1997 5.23046,-0.0742 0.55969,0.0365 1.07779,-0.39339 1.61719,-0.11133 0.93645,0.48963 1.23362,4.61785 3.06446,3.84375 2.05004,-0.86679 -0.58599,-3.71574 -0.10743,-4.96484 0.70271,-1.83425 4.45406,-3.28971 6.2168,-3.76172 l -0.16406,-0.49024 1.14453,-0.49023 h -0.6543 v -0.16406 l 0.49024,-0.16211 -0.16211,-2.45313 h 0.16211 l 0.32812,0.81836 -0.32812,0.81641 c 0.70835,-0.34383 1.2575,-0.82976 0.98242,-1.63477 0.9131,0.0362 1.45172,-0.42022 1.63476,-1.30859 l 1.79688,-0.16211 v -0.16406 h -0.81641 v -0.16407 l 2.94336,-0.32617 c -0.77696,-2.21177 4.23693,-3.04764 5.88477,-3.26953 v 0.16211 l -1.47071,1.14453 c 1.00419,0.3139 4.8922,-0.7251 5.23047,-1.79687 h 0.16407 c 0.33458,0.3696 0.57079,0.22177 0.81835,-0.16407 l -0.49218,-0.49023 -1.14453,0.98047 h -1.14258 l 0.65234,-0.49024 v -0.16406 l -2.125,-0.32617 1.3086,0.98047 c -0.91657,-0.32991 -1.78055,-0.51333 -1.79883,-1.63477 h -1.14453 v -0.16406 l 1.63476,-0.32617 v -0.32813 c -1.67369,-0.56197 -3.7796,0.0699 -5.23047,0.98242 v 0.16211 l -0.65429,0.16407 0.65429,-0.32618 c 3.0925,-3.34744 8.76306,-1.26464 12.58789,-3.26953 -0.28091,-1.0634 -1.00061,-1.17164 -1.96289,-1.47265 l 0.16407,-0.32617 -3.59571,-1.14454 c 0.0497,-0.84013 -1.54287,-2.45648 -2.45312,-2.23437 -0.66676,0.16269 -1.066,0.83889 -1.79883,0.92969 -1.01246,0.12546 -1.57138,-0.56191 -1.30664,-1.47461 -1.62734,0.10899 -3.51086,-1.31092 -5.18359,-0.53321 -0.7285,0.3387 -0.92883,1.5161 -1.6836,2.00391 v 0.32813 c 1.93098,1.33143 -1.12717,2.29458 -2.28906,2.45117 l 0.32617,1.79883 c -1.41381,0.71874 -2.14575,0.4999 -2.40039,-0.32618 h 0.60352 l -0.67383,-0.26953 c -0.0605,-0.37282 -0.053,-0.83145 0.0195,-1.36719 l -6.53906,-0.65234 0.32617,-0.98242 -0.81641,0.16406 c 1.86086,-2.5799 6.48014,-3.38274 9.31836,-4.41406 v 0.16406 l -1.47266,0.6543 v 0.16211 l 4.0879,-0.32617 v -0.16407 l -1.79883,-0.49023 h -0.16211 l 0.65234,-0.16406 h 0.16406 0.16407 l 2.125,-1.30664 h 0.65429 v -0.49024 l 2.28907,-0.16406 -0.81836,0.8164 v 0.16407 l 2.28906,-0.32617 v 0.32617 l -3.92383,1.4707 2.45313,-0.2168 4.57617,1.19922 -1.14258,-0.65429 v -0.16407 c 0.85199,0.1147 1.79556,0.61059 2.28711,-0.32617 l -1.63477,-0.6543 v -0.32812 l 0.16407,-0.16211 c 1.27485,0.43395 1.99831,0.8501 3.10742,-0.16406 l -3.27149,-0.6543 v -0.16211 h 0.49024 c -0.66839,-0.72336 -1.7785,-1.01266 -2.94336,-1.08984 z m -1.30664,1.08984 0.16406,0.32617 h -0.32812 z m -5.88477,0.81641 v 0.16406 l -0.65429,0.16211 z m 32.20703,1.14453 c 0.8868,1.05578 4.07323,1.9212 5.39454,1.63476 v -0.32617 c -1.64473,-0.92603 -3.57464,-1.03646 -5.39454,-1.30859 z m -34.82422,0.0547 0.0547,0.0547 c -0.0807,0.0269 -0.17815,-0.0547 -0.0547,-0.0547 z m 5.23243,0.59961 v 0.32617 l 0.32617,-0.32617 z m -2.61524,0.65429 -1.30859,0.16211 v 0.16406 z m 1.47071,0 -0.6543,0.49024 z m 9.37304,0.10742 0.0547,0.10938 z m -2.17968,0.70899 0.16406,0.16406 z m -8.82813,2.7793 -0.81836,0.49023 z m 48.71875,1.14453 2.61719,2.125 h -0.6543 l 0.49023,0.32812 v 0.16211 h -0.49023 v 0.16406 c 1.08816,0.63399 2.10239,2.2062 3.43359,1.63477 v -0.32617 l -1.47265,-1.3086 4.15429,3.33008 0.30469,0.0391 c -0.02,-0.0268 -0.0403,-0.0534 -0.0605,-0.0801 -0.0228,-0.0308 -0.0464,-0.0627 -0.0684,-0.0937 -0.0118,-0.0176 -0.0222,-0.0349 -0.0332,-0.0527 l -0.002,-0.002 c -0.0309,-0.0228 -0.0603,-0.0478 -0.0898,-0.0723 -0.033,-0.0261 -0.0648,-0.0534 -0.0957,-0.082 -0.028,-0.026 -0.0556,-0.0526 -0.082,-0.0801 -0.0126,-0.0128 -0.0232,-0.0275 -0.0351,-0.041 h -0.002 c -0.0424,-4.4e-4 -0.0946,-0.0186 -0.14844,-0.0606 -0.0146,-0.0113 -0.0289,-0.0247 -0.043,-0.0371 -0.0146,-0.0133 -0.0299,-0.0263 -0.0449,-0.0391 -0.013,-0.0107 -0.0265,-0.0202 -0.0391,-0.0312 -0.0118,-0.0101 -0.0232,-0.0211 -0.0351,-0.0312 -0.01,-0.009 -0.0191,-0.0174 -0.0293,-0.0254 -0.016,-0.0132 -0.0323,-0.0261 -0.0469,-0.041 -0.0173,-0.017 -0.0325,-0.0367 -0.0488,-0.0547 -0.0223,-0.0253 -0.0456,-0.0493 -0.0684,-0.0742 -0.0214,-0.0238 -0.0412,-0.0484 -0.0625,-0.0723 -0.0243,-0.0271 -0.0489,-0.0539 -0.0742,-0.0801 -0.0232,-0.024 -0.0488,-0.0466 -0.0723,-0.0703 -0.0224,-0.0228 -0.0453,-0.0464 -0.0684,-0.0684 -0.0201,-0.0189 -0.0397,-0.0366 -0.0605,-0.0547 -0.019,-0.0163 -0.0376,-0.0326 -0.0566,-0.0488 -0.0114,-0.01 -0.0222,-0.0211 -0.0332,-0.0312 -0.0318,-0.01 -0.0669,-0.029 -0.10156,-0.0625 -0.0161,-0.0156 -0.0291,-0.0329 -0.0449,-0.0488 -0.0221,-0.022 -0.0447,-0.0459 -0.0664,-0.0684 -0.028,-0.0292 -0.0555,-0.0593 -0.082,-0.0899 -0.026,-0.0299 -0.0503,-0.0598 -0.0762,-0.0898 -0.0181,-0.0216 -0.0363,-0.0432 -0.0547,-0.0645 -0.0106,-0.0134 -0.0217,-0.0266 -0.0332,-0.0391 -0.0162,-0.0175 -0.0333,-0.0327 -0.0508,-0.0488 -0.0286,-0.0256 -0.0588,-0.0513 -0.0879,-0.0762 -0.0255,-0.0217 -0.0519,-0.0436 -0.0781,-0.0645 -0.0249,-0.0199 -0.0504,-0.0378 -0.0762,-0.0566 -0.0283,-0.02 -0.0565,-0.0383 -0.0859,-0.0566 -0.0332,-0.0196 -0.0675,-0.0412 -0.0996,-0.0625 -0.0244,-0.0166 -0.0466,-0.0331 -0.0703,-0.0508 -0.0134,-0.0102 -0.0262,-0.0224 -0.0391,-0.0332 -0.0143,-0.012 -0.008,-0.0231 -0.0176,-0.0352 -0.0129,-10e-4 -0.03,-0.0111 -0.0527,-0.0332 -0.009,-0.008 -0.0174,-0.0164 -0.0254,-0.0254 -0.0108,-0.0116 -0.0208,-0.0236 -0.0312,-0.0352 -0.007,-0.009 -0.01,-0.0125 -0.0176,-0.0195 -0.0149,-0.0139 -0.03,-0.0271 -0.0449,-0.041 -0.0178,-0.0161 -0.0356,-0.0319 -0.0527,-0.0488 -0.0196,-0.0186 -0.0406,-0.0385 -0.0606,-0.0566 -0.0211,-0.0197 -0.0404,-0.04 -0.0625,-0.0586 -0.0146,-0.0127 -0.0296,-0.0251 -0.0449,-0.0371 -0.0159,-0.0123 -0.0308,-0.025 -0.0469,-0.0371 -0.0151,-0.0121 -0.0297,-0.0251 -0.0449,-0.0371 -0.0172,-0.0133 -0.0342,-0.0251 -0.0508,-0.0391 -0.0133,-0.0115 -0.0283,-0.023 -0.041,-0.0352 -0.0126,-0.0109 -0.025,-0.0216 -0.0371,-0.0332 -0.0129,-0.0121 -0.0268,-0.0244 -0.0391,-0.0371 -0.0195,-0.0191 -0.0372,-0.0374 -0.0566,-0.0566 -0.0159,-0.017 -0.033,-0.0338 -0.0488,-0.0508 -0.0129,-0.0142 -0.0254,-0.0295 -0.0391,-0.043 -0.0106,-0.0105 -0.0221,-0.0193 -0.0332,-0.0293 -0.008,-0.007 -0.0174,-0.0145 -0.0254,-0.0215 -0.0126,-0.01 -0.0261,-0.0183 -0.0391,-0.0273 -0.0145,-0.0119 -0.0287,-0.0249 -0.043,-0.0371 -0.0221,-0.0186 -0.0427,-0.0375 -0.0644,-0.0566 -0.022,-0.0198 -0.0453,-0.0399 -0.0664,-0.0605 -0.0209,-0.0195 -0.0419,-0.0387 -0.0625,-0.0586 -0.0149,-0.0143 -0.0296,-0.0272 -0.0449,-0.041 -0.009,-0.009 -0.0183,-0.0184 -0.0273,-0.0254 -0.008,-0.006 -0.009,-0.008 -0.0156,-0.0137 -0.001,-0.002 -0.002,-0.004 -0.004,-0.006 -10e-4,-8.4e-4 -0.003,10e-4 -0.004,-0.002 l -0.002,-0.002 c -0.0139,-0.0103 -0.0272,-0.0206 -0.0391,-0.0332 -0.0101,-0.0107 -0.0205,-0.0213 -0.0312,-0.0312 -0.0173,-0.0171 -0.0352,-0.032 -0.0527,-0.0488 -0.0323,-0.0279 -0.0654,-0.056 -0.0977,-0.084 v -0.002 c -0.0305,-0.0264 -0.0514,-0.054 -0.0644,-0.0801 -0.10484,-0.0691 -0.21252,-0.13396 -0.31446,-0.20703 -0.0587,-0.043 -0.11535,-0.0874 -0.17187,-0.13281 -0.10343,-0.0633 -0.21915,-0.11879 -0.32031,-0.18359 -1.12582,-0.72114 -2.25164,-1.69773 -3.59766,-1.96875 z m -33.02344,0.16406 v 0.16406 l -0.65429,0.16211 z m 3.59571,1.63477 c -1.45816,0.1324 -2.44326,1.65534 -2.94141,2.94335 h 3.92383 v 0.16211 l -0.6543,0.16407 v 0.16406 l 1.79883,-0.49024 -0.16406,0.49024 c 0.67325,0.23403 1.07952,0.25691 1.30664,-0.49024 h -0.98047 l 0.49023,-0.81835 -0.65234,0.16406 -0.16406,-0.16406 0.16406,-0.49024 -2.94336,-0.32617 z m -7.6836,1.14453 c 0.50383,0.66485 1.51105,0.64785 2.28906,0.65429 z m -19.78125,1.79882 0.16211,0.65235 0.6543,-0.16211 0.16406,1.14453 -3.26953,-0.16406 0.32617,-0.16406 v -0.16211 l -3.5957,0.8164 c 1.21494,-1.21743 3.87946,-1.95982 5.55859,-1.96094 z m 19.94531,1.68946 0.0547,0.0527 c -0.0807,0.0269 -0.17931,-0.0527 -0.0547,-0.0527 z m -17.0039,0.10742 v 0.16406 h -0.32617 v 0.16406 l 0.65429,0.16407 c 0.48743,-0.676 1.03367,-0.41805 1.63477,0 -0.41472,0.71077 -0.9029,0.42643 -1.4707,0 l 0.1621,0.65234 -1.4707,1.30859 -0.16406,-0.81835 -1.14453,0.32812 v -0.16406 c 0.77595,-0.64526 0.71572,-1.01782 -0.16211,-1.47071 z m -2.61524,0.16406 c -0.36742,0.70241 -1.05306,0.7966 -1.57812,1.34571 -0.93402,0.97676 -0.62841,2.02037 -2.18164,2.41406 -0.11862,-1.31347 0.72696,-1.99349 1.4707,-2.94141 l -0.32617,0.16211 c 0.64295,-0.72917 1.68105,-0.85467 2.61523,-0.98047 z m 1.96289,0 0.16211,0.16406 z m 64.41407,0.81836 0.64843,0.44727 c -0.0103,-0.0124 -0.0218,-0.0234 -0.0332,-0.0352 -0.0206,-0.0215 -0.0403,-0.0423 -0.0606,-0.0645 -10e-4,-0.002 -0.002,-0.004 -0.004,-0.006 -0.0239,-0.0172 -0.0482,-0.0339 -0.0723,-0.0508 -0.064,-0.0443 -0.12484,-0.094 -0.18554,-0.14258 -0.0332,-0.0267 -0.0184,-0.0148 -0.0449,-0.0352 -0.0216,-0.0166 -0.04,-0.0338 -0.0586,-0.0508 z m -59.2168,0.32617 c 0.32091,-0.0108 0.6168,-0.007 0.85156,0 -0.63553,0.95808 -2.39166,0.68668 -3.43359,0.81836 0.4318,-0.61885 1.61931,-0.78594 2.58203,-0.81836 z m -33.97266,0.16407 -0.16211,0.8164 h -0.16406 z m 31.88086,0.98046 v 0.16407 c -1.30181,0.35533 -3.28751,1.57437 -4.57812,0.8164 z m -3.75976,0.38086 c 0.12644,0 0.026,0.0816 -0.0547,0.0547 z m 66.70312,1.90821 c 0.75135,1.62075 2.55461,4.16146 3.97657,5.28515 0.78827,0.62296 1.86969,0.93162 2.72656,1.58203 h 0.16406 l 1.44336,-0.1621 -0.008,-0.008 c -0.004,0.005 -0.0125,0.003 -0.0176,-0.008 -0.005,-0.0111 -0.0102,-0.0206 -0.0156,-0.0312 l -0.006,-0.006 c -0.004,-0.005 -0.009,-0.009 -0.0117,-0.0137 -0.005,-0.007 -0.001,-0.008 0.004,-0.0117 -0.0351,-0.0458 -0.0691,-0.0924 -0.10351,-0.13867 -0.0638,-0.0862 -0.12706,-0.17247 -0.18946,-0.25977 -0.0202,-0.0283 -0.0184,-0.0507 -0.0215,-0.0742 -0.0182,2.9e-4 -0.0265,0.0151 -0.0137,0.0566 1.1e-4,0.001 0.002,0.004 0,0.004 -10e-4,0 0.001,-0.003 -0.002,-0.004 -0.005,-0.0103 -0.01,-0.0211 -0.0156,-0.0312 -0.007,-0.0123 -0.0154,-0.0217 -0.0234,-0.0332 -0.0153,-0.021 -0.03,-0.0433 -0.0449,-0.0644 -0.0112,-0.0162 -0.0228,-0.0317 -0.0352,-0.0469 -0.0118,-0.0141 -0.024,-0.0283 -0.0351,-0.043 -0.009,-0.0121 -0.0182,-0.025 -0.0274,-0.0371 -0.007,-0.01 -0.0145,-0.0193 -0.0215,-0.0293 -0.008,-0.0105 -0.0164,-0.0204 -0.0234,-0.0312 -0.005,-0.008 -0.0116,-0.0164 -0.0176,-0.0234 -0.01,-0.0125 -0.0173,-0.0265 -0.0273,-0.0391 -0.009,-0.0119 -0.0203,-0.0231 -0.0293,-0.0352 -0.009,-0.0108 -0.0154,-0.0221 -0.0234,-0.0332 -0.01,-0.0121 -0.0193,-0.025 -0.0293,-0.0371 -0.0123,-0.0167 -0.0249,-0.0321 -0.0371,-0.0488 -0.0116,-0.0158 -0.0235,-0.0331 -0.0352,-0.0488 -0.0111,-0.0142 -0.0209,-0.0281 -0.0312,-0.043 -0.0107,-0.0143 -0.0208,-0.0285 -0.0312,-0.043 -0.0152,-0.0195 -0.0305,-0.0405 -0.0449,-0.0605 -0.0105,-0.0146 -0.0205,-0.0285 -0.0312,-0.043 -0.006,-0.008 -0.0116,-0.0183 -0.0176,-0.0273 -0.009,-0.0137 -0.003,-0.0226 -0.008,-0.0352 l -0.002,-0.002 c -0.008,-0.0106 -0.0162,-0.0219 -0.0234,-0.0332 -0.0185,-0.0296 -0.0354,-0.0606 -0.0508,-0.0918 -0.0145,-0.0314 -0.0274,-0.0639 -0.041,-0.0957 -0.009,-0.0217 -0.0154,-0.0426 -0.0234,-0.0644 -0.007,-0.016 -0.0135,-0.0324 -0.0195,-0.0488 -0.005,-0.0134 -0.0106,-0.0276 -0.0156,-0.041 -0.006,-0.0158 -0.0145,-0.0314 -0.0215,-0.0469 -0.009,-0.0189 -0.0173,-0.0362 -0.0273,-0.0547 -0.0104,-0.0203 -0.0207,-0.0422 -0.0312,-0.0625 -0.005,-0.009 -0.009,-0.0179 -0.0137,-0.0273 -6.2e-4,-10e-4 0.001,-0.003 -0.002,-0.004 -0.009,-0.0118 -0.0181,-0.0234 -0.0274,-0.0351 -0.0844,-0.0477 -0.16938,-0.12622 -0.24609,-0.24219 -0.0279,-0.0423 -0.0546,-0.0879 -0.082,-0.13086 -0.0343,-0.0558 -0.0685,-0.11061 -0.10352,-0.16601 -0.0291,-0.0424 -0.0543,-0.0865 -0.0801,-0.13086 -0.0207,-0.0373 -0.045,-0.0719 -0.0684,-0.10743 -0.0291,-0.04 -0.0542,-0.0842 -0.082,-0.125 -0.0416,-0.0606 -0.0828,-0.12209 -0.12304,-0.18359 -0.0376,-0.0564 -0.0688,-0.11487 -0.10547,-0.17187 -0.0372,-0.059 -0.0762,-0.11864 -0.11328,-0.17774 -0.0369,-0.0557 -0.0663,-0.11452 -0.10352,-0.16992 -0.0359,-0.054 -0.0705,-0.10881 -0.10742,-0.16211 -0.0391,-0.0627 -0.0834,-0.12159 -0.12891,-0.17969 -0.0594,-0.0754 -0.11849,-0.15256 -0.17969,-0.22656 -0.0764,-0.092 -0.15146,-0.18364 -0.23046,-0.27344 -0.0824,-0.0942 -0.16655,-0.18625 -0.24805,-0.28125 -0.065,-0.0743 -0.12816,-0.15051 -0.19336,-0.22461 -0.068,-0.0756 -0.13417,-0.15397 -0.20117,-0.23047 -0.0668,-0.0765 -0.13598,-0.15019 -0.20508,-0.22461 -0.0607,-0.0624 -0.11959,-0.12655 -0.17969,-0.18945 -0.049,-0.0523 -0.10144,-0.10194 -0.15234,-0.15234 -0.064,-0.0654 -0.13017,-0.12921 -0.19727,-0.19141 -0.007,-0.006 -0.0128,-0.0132 -0.0195,-0.0195 z m -9.31836,2.77929 0.16211,0.16407 z m 16.18555,4.25 0.32617,1.47266 c -1.85537,1.04096 0.27675,2.28112 -0.10742,3.5957 -0.19904,0.68121 -0.96172,0.79179 -1.27344,1.35743 -0.53655,0.97332 -1.12405,3.92623 -0.93164,5.01757 0.22826,1.29488 1.67525,2.34119 1.93164,3.76172 0.32759,1.81498 -0.1422,3.54636 1.01172,5.18164 0.82235,1.16541 2.26964,2.06184 3.2168,3.16992 0.083,0.0971 0.16545,0.21202 0.24805,0.32032 0.002,-0.0111 0.004,-0.022 0.006,-0.0332 0.0112,-0.0761 0.0282,-0.15196 0.0469,-0.22656 0.0114,-0.0465 0.0245,-0.0918 0.041,-0.13672 0.0108,-0.027 0.0221,-0.0533 0.0332,-0.0801 0.0107,-0.0251 0.0237,-0.0494 0.0351,-0.0742 0.01,-0.0243 0.0225,-0.0473 0.0352,-0.0703 0.005,-0.007 0.01,-0.0168 0.0117,-0.0215 v -0.002 c 0.004,-0.0168 0.0108,-0.0342 0.0156,-0.0508 0.01,-0.0363 0.0215,-0.0717 0.0332,-0.10742 0.008,-0.0282 0.0164,-0.056 0.0254,-0.084 0.01,-0.0333 0.0195,-0.0669 0.0312,-0.0996 0.0104,-0.0311 0.0208,-0.0607 0.0312,-0.0918 0.009,-0.0252 0.0164,-0.0506 0.0234,-0.0762 0.01,-0.0294 0.0183,-0.0602 0.0273,-0.0898 0.01,-0.0319 0.0174,-0.0635 0.0254,-0.0957 0.0108,-0.0386 0.0223,-0.0783 0.0312,-0.11718 0.009,-0.0389 0.0198,-0.0769 0.0312,-0.11524 0.004,-0.0207 0.0145,-0.0399 0.0195,-0.0605 0.008,-0.0217 0.0116,-0.0442 0.0176,-0.0664 0.009,-0.0365 0.0173,-0.0731 0.0273,-0.10938 0.0102,-0.0368 0.0203,-0.0742 0.0293,-0.11133 0.006,-0.0278 0.0126,-0.0539 0.0176,-0.082 0.004,-0.0262 0.0116,-0.0523 0.0176,-0.0781 0.006,-0.0254 0.0144,-0.0517 0.0234,-0.0762 0.004,-0.0144 0.0107,-0.0263 0.0137,-0.041 0.008,-0.0244 0.0154,-0.0498 0.0234,-0.0742 0.0108,-0.0268 0.0203,-0.0546 0.0293,-0.082 0.01,-0.0259 0.0203,-0.0513 0.0273,-0.0781 0.008,-0.0285 0.0154,-0.0561 0.0254,-0.084 0.005,-0.019 0.018,-0.0378 0.0234,-0.0566 0.005,-0.0166 0.0106,-0.034 0.0156,-0.0508 0.008,-0.0217 0.0135,-0.0421 0.0195,-0.0645 0.004,-0.0194 0.0107,-0.0393 0.0156,-0.0586 0.003,-0.0234 0.007,-0.0468 0.01,-0.0703 2.4e-4,-0.002 -2.3e-4,-0.004 0,-0.006 0.005,-0.036 0.0106,-0.0719 0.0176,-0.10742 0.005,-0.0283 0.0135,-0.0564 0.0215,-0.084 0.005,-0.0215 0.01,-0.0429 0.0156,-0.0645 0.006,-0.0292 0.0144,-0.0593 0.0234,-0.0879 0.003,-0.008 0.004,-0.0154 0.006,-0.0234 0.0192,-0.0801 0.055,-0.12724 0.0957,-0.1582 0.005,-0.016 0.009,-0.0325 0.0137,-0.0488 -0.0235,-0.0618 -0.0321,-0.14145 -0.0195,-0.23828 0.013,-0.0998 0.0272,-0.19943 0.043,-0.29883 0.0127,-0.0793 0.0254,-0.15752 0.041,-0.23633 0.01,-0.051 0.0212,-0.10234 0.0352,-0.15234 0.01,-0.0364 0.0213,-0.0716 0.0332,-0.10742 0.013,-0.0371 0.0238,-0.0756 0.0352,-0.11328 0.0179,-0.0575 0.038,-0.11528 0.0586,-0.17188 0.0158,-0.0437 0.0294,-0.0871 0.0449,-0.13086 0.0147,-0.0442 0.0322,-0.0886 0.0469,-0.13281 0.0143,-0.0428 0.0285,-0.0842 0.043,-0.12695 0.01,-0.031 0.0203,-0.0625 0.0293,-0.0937 0.0111,-0.0421 0.0244,-0.0834 0.0371,-0.125 0.0125,-0.0436 0.0282,-0.0874 0.041,-0.13086 0.0126,-0.0392 0.0224,-0.0794 0.0332,-0.11914 0.0128,-0.0456 0.0268,-0.091 0.0391,-0.13672 0.0146,-0.0506 0.0272,-0.10104 0.0391,-0.15234 0.009,-0.0349 0.0162,-0.0703 0.0234,-0.10547 0.002,-0.0378 0.005,-0.0753 0.008,-0.11328 0.005,-0.0461 0.01,-0.0929 0.0156,-0.13868 0.005,-0.0318 0.0106,-0.0643 0.0176,-0.0957 0.005,-0.0293 0.0106,-0.0566 0.0156,-0.0859 0.01,-0.0565 0.0169,-0.11392 0.0293,-0.16992 0.0212,-0.0983 0.0467,-0.19527 0.0703,-0.29297 0.0146,-0.0631 0.0297,-0.1263 0.0449,-0.18945 0.008,-0.058 0.016,-0.116 0.0234,-0.17383 0.0138,-0.11117 0.0283,-0.2232 0.0449,-0.33398 0.009,-0.0584 0.0164,-0.11543 0.0254,-0.17383 0.009,-0.0595 0.0164,-0.11979 0.0234,-0.17969 0.01,-0.0795 0.0224,-0.15928 0.0352,-0.23828 0.009,-0.0626 0.0222,-0.12365 0.0352,-0.18555 0.008,-0.0463 0.0193,-0.0915 0.0371,-0.13476 0.0162,-0.0366 0.0383,-0.069 0.0586,-0.10352 0.0129,-0.0208 0.0241,-0.0426 0.0352,-0.0644 0.0166,-0.0328 0.0335,-0.0662 0.0488,-0.0996 0.0171,-0.0385 0.037,-0.0693 0.0606,-0.0937 0.008,-0.0431 0.0147,-0.0865 0.0234,-0.12891 0.011,-0.0576 0.0233,-0.11367 0.0312,-0.17187 0.004,-0.0268 0.009,-0.0534 0.0137,-0.0801 v -0.002 c -0.0618,-0.0653 -0.10347,-0.17538 -0.0957,-0.32813 0.004,-0.0664 0.007,-0.13086 0.01,-0.19726 0.006,-0.0996 0.0116,-0.20048 0.0156,-0.30079 10e-4,-0.0744 0.006,-0.14835 0.01,-0.22265 0.001,-0.0558 0.007,-0.11052 0.0117,-0.16602 0.003,-0.0318 0.007,-0.0642 0.0117,-0.0957 0.004,-0.0121 0.005,-0.0229 0.006,-0.0352 10e-4,-0.0409 0.002,-0.0822 0.004,-0.12304 0.002,-0.0403 0.0107,-0.0807 0.0117,-0.1211 0.001,-0.0547 0.0107,-0.10941 0.0117,-0.16406 10e-4,-0.11339 0.002,-0.22643 0.002,-0.33984 1.9e-4,-0.057 6e-5,-0.11449 0,-0.17188 -0.003,-0.0162 -0.008,-0.0324 -0.01,-0.0488 -0.005,-0.0356 -0.008,-0.0717 -0.0117,-0.10742 -0.003,-0.0297 -0.007,-0.0604 -0.0117,-0.0898 -0.007,-0.0344 -0.0126,-0.0688 -0.0176,-0.10352 -0.005,-0.0284 -0.01,-0.0558 -0.0156,-0.084 -0.005,-0.0221 -0.007,-0.0444 -0.0117,-0.0664 -0.005,-0.0257 -0.0109,-0.0526 -0.0156,-0.0781 -0.006,-0.0378 -0.008,-0.0757 -0.0156,-0.11328 -0.007,-0.0377 -0.0126,-0.0754 -0.0176,-0.11329 -0.003,-0.0319 -0.007,-0.064 -0.0117,-0.0957 -0.004,-0.0326 -0.01,-0.0639 -0.0176,-0.0977 -0.007,-0.032 -0.0136,-0.0631 -0.0176,-0.0957 -0.004,-0.0289 -0.0135,-0.0573 -0.0195,-0.0859 -0.008,-0.0369 -0.0145,-0.0743 -0.0215,-0.11132 -0.006,-0.0296 -0.0115,-0.0594 -0.0215,-0.0879 -3.3e-4,-10e-4 3.5e-4,-0.003 0,-0.004 -0.0316,-0.0177 -0.0483,-0.0573 -0.0664,-0.13281 -0.0137,-0.0632 -0.0258,-0.12616 -0.0391,-0.18946 -0.0135,-0.0705 -0.0266,-0.14063 -0.041,-0.21093 -0.009,-0.0433 -0.0177,-0.0871 -0.0254,-0.13086 -0.003,-0.0111 -0.008,-0.0225 -0.0117,-0.0332 -0.006,-0.0203 -0.009,-0.0409 -0.0176,-0.0605 -0.008,-0.0271 -0.0165,-0.0539 -0.0215,-0.082 -0.008,-0.0379 -0.0154,-0.0753 -0.0234,-0.11329 -0.008,-0.0426 -0.0175,-0.0856 -0.0215,-0.1289 -0.004,-0.0433 -0.009,-0.0875 -0.0117,-0.13086 -0.001,-0.0414 -0.008,-0.0819 -0.0117,-0.12305 -0.005,-0.0425 -0.0126,-0.0845 -0.0176,-0.12695 -0.008,-0.0562 -0.0154,-0.11197 -0.0254,-0.16797 -0.0126,-0.0676 -0.0237,-0.13568 -0.0371,-0.20312 -0.009,-0.0492 -0.0187,-0.0995 -0.0293,-0.14844 -0.001,-0.007 -0.004,-0.0131 -0.006,-0.0195 -0.0156,0.022 -0.0229,0.0616 -0.0176,0.12695 -0.003,-0.0137 -0.008,-0.0272 -0.0117,-0.041 -0.008,-0.0368 -0.0174,-0.0745 -0.0254,-0.11132 -0.0176,-0.078 -0.0344,-0.15618 -0.0508,-0.23438 -0.012,-0.0514 -0.0218,-0.10283 -0.0332,-0.1543 -5.2e-4,-10e-4 5.3e-4,-0.003 0,-0.004 -0.003,-0.006 -0.008,-0.0134 -0.0117,-0.0195 -0.0171,-0.0335 -0.0328,-0.0668 -0.0469,-0.10157 -0.013,-0.0321 -0.0261,-0.0648 -0.0371,-0.0976 -0.0115,-0.0378 -0.0215,-0.0746 -0.0293,-0.11328 -0.0134,-0.0643 -0.0296,-0.12946 -0.0449,-0.19336 -0.0196,-0.0805 -0.041,-0.16014 -0.0625,-0.24024 -0.017,-0.062 -0.0309,-0.1257 -0.0488,-0.1875 h -0.002 c -0.01,-0.0328 -10e-4,-0.0584 0.01,-0.0742 -0.009,-0.0267 -0.019,-0.0532 -0.0293,-0.0801 -0.0189,-0.0469 -0.04,-0.0924 -0.0605,-0.13868 -0.0239,-0.0535 -0.049,-0.10715 -0.0742,-0.16015 -0.023,-0.0477 -0.0463,-0.0954 -0.0703,-0.14258 -0.0149,-0.0293 -0.0297,-0.0588 -0.0449,-0.0879 -0.0112,-0.0214 3.5e-4,-0.0369 0.0117,-0.0371 0.001,-2e-5 0.0107,-2.7e-4 0.0117,0 -0.004,-5.6e-4 -0.01,10e-4 -0.0117,-0.006 l -0.004,-0.01 c -0.0104,-0.0271 -0.0203,-0.0543 -0.0293,-0.082 -0.0108,-0.032 -0.0189,-0.0638 -0.0293,-0.0957 -0.0115,-0.0344 -0.0256,-0.0691 -0.0371,-0.10352 -0.008,-0.0226 -0.0145,-0.0456 -0.0215,-0.0684 -0.0135,-0.0242 -0.0278,-0.0479 -0.041,-0.0723 -0.0316,-0.059 -0.0611,-0.11823 -0.0918,-0.17773 -0.03,-0.061 -0.0611,-0.12095 -0.0918,-0.18165 -0.0216,-0.0442 -0.0432,-0.0893 -0.0664,-0.13281 -0.024,-0.0433 -0.0374,-0.0899 -0.0527,-0.13672 -0.0143,-0.042 -0.0287,-0.0851 -0.043,-0.12695 -0.0106,-0.0307 -0.0203,-0.062 -0.0332,-0.0918 -0.0154,-0.0341 -0.0325,-0.0679 -0.0488,-0.10156 -0.0228,-0.0459 -0.0442,-0.0906 -0.0664,-0.13672 -0.0296,-0.063 -0.0593,-0.12695 -0.0898,-0.18945 -0.0353,-0.0694 -0.0678,-0.13989 -0.10352,-0.20899 -0.023,-0.0443 -0.0433,-0.0889 -0.0625,-0.13476 -0.0197,-0.0449 -0.0375,-0.0901 -0.0527,-0.13672 -0.008,-0.025 -0.0142,-0.0507 -0.0215,-0.0762 -0.002,-10e-4 -0.008,-0.002 -0.0117,-0.008 -0.0137,-0.0235 -0.0258,-0.0475 -0.0371,-0.0723 -0.012,-0.0291 -0.0143,-0.0582 -0.0293,-0.0859 -0.0136,-0.0286 -0.0282,-0.0579 -0.043,-0.0859 -0.0133,-0.0252 -0.0262,-0.0518 -0.041,-0.0762 -0.0102,-0.0175 -0.0193,-0.0349 -0.0293,-0.0527 -0.01,-0.0201 -0.0162,-0.0403 -0.0254,-0.0606 -0.008,-0.0222 -0.0193,-0.043 -0.0293,-0.0644 -0.0133,-0.0323 -0.0284,-0.065 -0.041,-0.0977 -0.0136,-0.0377 -0.0271,-0.0738 -0.041,-0.11133 -0.002,-0.006 -0.007,-0.0117 -0.01,-0.0176 -0.007,-0.0143 -0.0161,-0.0286 -0.0234,-0.043 -0.0244,-0.0478 -0.049,-0.0963 -0.0723,-0.14453 -0.0241,-0.0489 -0.0493,-0.098 -0.0742,-0.14649 -0.0206,-0.0431 -0.0449,-0.0843 -0.0664,-0.12695 -0.0166,-0.0337 -0.0315,-0.0673 -0.0469,-0.10156 -8e-4,-10e-4 -0.003,-0.003 -0.004,-0.004 -0.009,-0.0138 -0.019,-0.0281 -0.0293,-0.041 -0.0209,-0.0295 -0.0418,-0.0589 -0.0606,-0.0898 -0.0201,-0.0301 -0.0401,-0.0599 -0.0606,-0.0898 -0.033,-0.0449 -0.0689,-0.0881 -0.0996,-0.13477 -0.0416,-0.0621 -0.0805,-0.12545 -0.11914,-0.18945 -0.043,-0.0735 -0.0865,-0.14766 -0.12695,-0.22266 -0.0312,-0.0585 -0.0643,-0.11738 -0.0957,-0.17578 -0.0254,-0.0469 -0.0503,-0.0931 -0.0781,-0.13867 -0.0214,-0.0384 -0.041,-0.0761 -0.0644,-0.11328 -0.0234,-0.0392 -0.0449,-0.0793 -0.0703,-0.11719 -0.0359,-0.0577 -0.0694,-0.11633 -0.10546,-0.17383 -0.0394,-0.0638 -0.0787,-0.12906 -0.11719,-0.19336 -0.0326,-0.0569 -0.0646,-0.11407 -0.0957,-0.17187 -0.0284,-0.0553 -0.0533,-0.10992 -0.0801,-0.16602 -0.023,-0.0471 -0.0478,-0.0953 -0.0742,-0.14062 -0.0106,-0.0187 -0.0232,-0.0363 -0.0371,-0.0527 -0.0169,-0.0221 -0.0308,-0.0458 -0.0469,-0.0684 -0.0372,-0.0499 -0.0739,-0.10049 -0.10546,-0.15429 -0.006,-0.0104 -0.0135,-0.0215 -0.0195,-0.0312 l -0.20703,0.0488 z m -72.91602,4.41407 v 0.16406 h 0.65235 z m 1.79688,0 -0.16211,0.65429 h 0.16211 z m 65.56055,0.32812 0.16211,0.16211 z m 3.37695,0.2168 0.10937,0.0547 z m -2.07031,0.10937 v 0.49024 l 0.32812,-0.49024 z m 1.96289,0.16407 v 0.49023 l 0.32617,-0.49023 z m -1.14453,0.32617 v 0.32812 h 0.32617 v -0.32812 z m -68.99219,0.32812 -0.16406,0.65235 0.81836,0.49218 -0.32813,-1.14453 z m -4.9043,2.12696 c -1.17868,0.0345 -2.82564,0.22822 -3.27148,1.46875 l 3.27148,-1.14454 -0.16406,0.49024 4.08594,0.32812 c 0.43436,0.77418 0.96142,0.81345 1.79882,0.81641 l -0.65429,0.81836 4.41406,-0.49023 c -0.80774,-0.64234 -2.11999,-0.77598 -3.10547,-1.06641 -2.20016,-0.64842 -4.05239,-1.28881 -6.375,-1.2207 z m -0.98242,1.14257 -0.6543,0.16407 v 0.16211 l 0.6543,0.16406 z m 11.11719,0.16407 v 0.16211 h 0.81836 z m 2.00586,1.08007 c -0.53301,-0.0176 -1.08606,-5e-5 -1.67774,0.0625 v 0.16407 l 0.81641,0.16406 0.32812,0.81641 -2.61718,0.16406 v 0.16406 c 2.0658,0.78299 5.76066,0.24707 7.84765,-0.32812 v -0.32618 c -1.68659,-0.45407 -3.09823,-0.82804 -4.69726,-0.88086 z m -1.35157,0.88086 0.32813,0.32618 z m 7.6836,0.16407 -0.16211,0.16211 v 0.32812 c 0.77703,0.22968 1.53344,0.27594 2.125,-0.32812 z m -12.97656,0.59375 c -0.48168,-0.0427 -0.99769,0.0169 -1.41016,0.0605 0.73096,0.75488 1.65317,0.50945 2.61523,0.49024 -0.27665,-0.36343 -0.7234,-0.50812 -1.20507,-0.55078 z m 19.84375,0.71289 0.16406,0.16406 z m 0.65429,0.65429 -0.65429,0.32813 0.16406,0.16211 z m -0.16406,0.81836 v 0.32618 h 0.32617 v -0.32618 z m 42.94336,0.54492 0.10937,0.0547 z m -42.45313,0.10938 0.32813,0.49023 z m 0.21875,0.92578 0.0547,0.10938 z m 1.74414,0.70899 0.16211,0.16211 z m 42.34376,0.16211 0.49023,0.32812 z m -0.49219,0.16406 0.16406,0.16406 z m -47.90039,1.79883 v 0.16211 h 0.49023 z m 4.41406,0.16211 -0.81836,0.16406 -0.16406,0.65429 c 0.63178,-0.049 0.87587,-0.17902 0.98242,-0.81835 z m -27.95703,4.25195 0.16406,0.16406 z m 42.34375,6.53906 -0.16406,0.49023 h 0.98046 v 0.16407 l -1.96093,0.98047 -0.16407,-0.6543 v -0.16211 z m -0.32813,0.49023 -0.49023,0.32813 z m -1.4707,1.47266 v 0.16211 h -0.6543 z m -53.625,0.16211 -0.32617,0.6543 h 0.6543 l -0.32813,0.65429 0.6543,-0.16406 z m 55.91406,0.16406 v 0.16407 h -0.49023 z m -55.0957,0.16407 0.16406,0.1621 z m 0.49023,0.1621 -0.16406,0.32813 h 0.32813 z m 1.14454,0.16407 0.16406,0.16406 z m 112.17773,26.97461 c -0.044,0.11557 -0.086,0.23163 -0.12891,0.34765 0.002,0.17504 -0.001,0.34943 0.01,0.52539 0.0296,-0.29229 0.0757,-0.58251 0.11914,-0.87304 z m 1.5625,1.05664 c -0.008,0.0777 -0.0198,0.15472 -0.0273,0.23242 -0.0199,0.1914 -0.0403,0.3828 -0.0606,0.57422 0.0394,-0.21278 0.0776,-0.42591 0.11719,-0.63867 -0.0122,-0.0538 -0.0217,-0.10873 -0.0293,-0.16797 z m -58.31836,0.58008 0.16406,0.1621 z m 58.08594,6.40625 c 10e-4,0.21419 0.003,0.42837 0.004,0.64257 0.0432,-0.20334 0.0814,-0.40819 0.125,-0.61132 -0.0436,-0.006 -0.0867,-0.0168 -0.1289,-0.0312 z m -90.29297,12.88476 0.16406,0.16406 z m 0,1.79883 0.16406,0.6543 h -0.16406 z m 0.32812,0.49023 h 0.32618 l -0.16407,0.49024 h -0.16211 z m 0.32618,2.61524 h 0.32617 v 0.32812 h -0.32617 z m -1.14454,0.81836 h 0.81836 v 0.65429 c -0.3918,-0.13483 -1.00664,-0.16214 -0.81836,-0.65429 z m 0,0.65429 v 0.32618 h -0.32617 z m -0.16406,1.30664 v 0.81836 l 0.49219,-0.81836 z m 0.6543,1.9629 0.49023,0.8164 -0.16211,-0.8164 z m 2.7793,0.1621 v 0.16407 l -0.6543,0.16406 z m 3.26953,0.6543 -0.81641,1.14453 h 1.14453 v 0.16407 l -0.81836,0.32617 0.49024,0.65429 -0.81641,-0.16406 v -0.65234 h -0.16406 l -0.16406,0.98047 h -0.16211 l -0.49024,-0.49024 v -0.16406 h 0.49024 c 0.004,-1.08764 0.22819,-1.4997 1.30664,-1.79883 z m -2.28907,0.16406 v 0.16407 l -1.14257,0.16211 z m -2.77929,0.6543 v 0.16211 l 0.97656,0.16406 z m 4.25195,1.52539 c 0.12644,0 0.026,0.0816 -0.0547,0.0547 z m 6.53906,0.27344 v 0.16211 h 0.49024 z m -5.55859,0.2168 c 0.12644,0 0.026,0.0816 -0.0547,0.0547 z m -1.63477,0.10937 0.16407,0.16406 z m 0.32618,0.16406 v 0.16211 h 0.65429 z m 3.8164,0.76172 0.0527,0.10938 z m -0.38281,0.21875 0.16406,0.16407 z m 21.19922,6.10352 0.10937,0.0547 z m -14.4961,2.23437 v 0.14453 c 0.022,-0.0299 0.0438,-0.0604 0.0664,-0.0898 0.0102,-0.0133 0.0211,-0.0259 0.0312,-0.0391 z m -9.31835,8.82813 v 0.041 c 9.9e-4,-0.0131 0.002,-0.026 0.004,-0.0391 z m -0.98047,0.49023 -0.98243,0.16406 v 0.16407 l 0.98243,0.16211 z m 0.8164,0.98047 -1.96093,0.49024 v 0.16406 c 0.74365,-0.006 1.50968,0.005 1.96093,-0.6543 z m -0.8164,1.14453 c 0.12379,0.37695 0.35569,0.52581 0.63671,0.63282 0.006,-0.0469 0.0127,-0.0939 0.0195,-0.14063 0.003,-0.0358 0.006,-0.0714 0.004,-0.10742 v -0.17578 -0.17188 c -0.06,0.0377 -0.12452,0.0695 -0.16992,0.12695 z m -13.57032,1.47266 -0.49023,0.49023 h -0.16406 c -0.44141,-0.61229 -2.26405,-0.25344 -2.61524,0.32617 h 3.92383 l -0.16406,-0.65429 -0.49024,0.32812 z m 13.73243,0.16211 -0.16211,0.49023 0.60742,0.20313 c -7.3e-4,-0.0903 -0.001,-0.18133 0.002,-0.27149 4.1e-4,-0.009 0.002,-0.0182 0.002,-0.0273 -1e-4,-10e-4 7e-5,-0.002 0,-0.004 -3.5e-4,-0.007 -6.3e-4,-0.0135 0,-0.0215 10e-5,-10e-4 -1.1e-4,-0.003 0,-0.004 1.5e-4,-0.004 0.002,-0.008 0.002,-0.0117 8.6e-4,-0.0222 2e-5,-0.0444 0.002,-0.0664 0.001,-0.0296 0.003,-0.0583 0.004,-0.0879 v -0.0996 -0.0625 c -0.002,-0.013 -0.004,-0.0257 -0.004,-0.0371 z m -10.29883,0.32812 0.32617,0.81641 -6.86524,0.16406 c 0.73832,0.88641 1.88041,0.6543 2.94141,0.6543 v 0.16406 l -1.63476,0.16211 v 0.16406 l 3.76171,1.3086 v 0.16211 l -2.12695,0.0527 -3.5957,0.60156 c -0.20809,-0.70079 -0.59984,-0.90126 -1.3086,-0.98047 l 0.6543,0.81641 -2.28906,-0.81641 0.49023,0.6543 -1.30664,0.16211 c -0.19329,0.83041 -2.92632,1.5883 -3.76172,1.63477 l 0.16407,1.14453 c 1.18895,1.38884 1.59334,1.7063 3.43359,2.12695 l -0.16406,0.49024 h 0.65429 v 0.1621 h -1.14453 v 0.16407 l 6.04883,1.46679 3.43359,1.35547 5.72266,1.26563 v 0.16406 l -0.49023,0.16211 v 0.16406 h 4.74023 v 0.16406 l -1.30859,0.49024 v 0.16211 c 2.58515,0.0214 5.14988,0.2722 7.72265,0.46289 -0.0414,-0.0845 -0.0763,-0.18248 -0.10156,-0.29688 -0.0123,-0.0541 -0.005,-0.11221 -0.0176,-0.16601 -0.009,-0.0705 -0.028,-0.14019 -0.0449,-0.20899 -0.0368,-0.12296 -0.0728,-0.24601 -0.11523,-0.36718 -0.0442,-0.12066 -0.0906,-0.24136 -0.13672,-0.36133 -0.0427,-0.1073 -0.0858,-0.21242 -0.12695,-0.32031 -0.0413,-0.10609 -0.0704,-0.21675 -0.10743,-0.32422 -0.0334,-0.10052 -0.068,-0.20098 -0.10351,-0.30078 -0.024,-0.0701 -0.048,-0.13969 -0.0742,-0.20899 -0.0268,-0.0709 -0.0486,-0.1442 -0.0703,-0.2168 -0.0193,-0.0763 -0.0409,-0.15221 -0.0606,-0.22851 -0.0286,-0.0987 -0.0515,-0.19808 -0.0801,-0.29688 -0.0317,-0.1076 -0.0549,-0.2179 -0.084,-0.32617 -0.0272,-0.10159 -0.0504,-0.20379 -0.0723,-0.30664 -0.0196,-0.10715 -0.043,-0.21352 -0.0644,-0.32031 -0.0218,-0.10231 -0.0423,-0.20438 -0.0645,-0.30664 -0.0218,-0.10312 -0.0439,-0.20756 -0.0664,-0.31055 -0.0238,-0.13287 -0.0576,-0.2631 -0.0879,-0.39453 -0.0305,-0.13226 -0.0598,-0.26412 -0.0899,-0.39648 -0.0231,-0.11742 -0.053,-0.2331 -0.0801,-0.34961 -0.01,-0.0418 -0.0222,-0.0832 -0.0332,-0.125 -0.007,-0.016 -0.01,-0.0373 -0.0156,-0.0547 -0.01,-0.0345 -0.0169,-0.0696 -0.0274,-0.10352 -0.0314,-0.11025 -0.0636,-0.2186 -0.0976,-0.32812 -0.0263,-0.074 -0.052,-0.14838 -0.0781,-0.22266 -0.19212,-0.0728 -0.36026,-0.25562 -0.34961,-0.65429 0.003,-0.0999 -0.008,-0.19963 -0.0176,-0.29883 -0.003,-0.0326 -0.006,-0.0651 -0.01,-0.0977 -0.0156,-0.0404 -0.0315,-0.0807 -0.0469,-0.12109 -0.0587,-0.15492 -0.12094,-0.30878 -0.18164,-0.46289 -5.3e-4,-10e-4 -9.5e-4,-0.003 -0.002,-0.004 -0.96972,-0.0265 -1.90902,-0.18178 -2.59961,-0.97266 0.77894,0.33516 1.57049,0.52182 2.38867,0.39063 -0.0283,-0.0871 -0.054,-0.17552 -0.0801,-0.26367 -0.0253,-0.0878 -0.0507,-0.17576 -0.0762,-0.26368 l -1.41601,-0.35546 v -0.16211 c 0.35178,0.0445 0.85465,0.13007 1.33203,0.20312 -0.0226,-0.096 -0.0439,-0.19216 -0.0625,-0.28906 -0.0244,-0.1449 -0.0449,-0.29139 -0.0605,-0.4375 -0.0149,-0.10878 -0.0272,-0.21669 -0.0351,-0.32617 -0.009,-0.0934 -0.005,-0.18775 -0.0117,-0.28125 -0.009,-0.0984 -0.0146,-0.19818 -0.0176,-0.29688 -0.008,-0.12029 -0.0145,-0.23889 -0.0195,-0.35937 -0.001,-0.0212 -9.5e-4,-0.0433 -0.002,-0.0645 -0.003,-0.0814 0.003,-0.15431 0.0137,-0.22265 -0.0413,-0.10553 -0.0679,-0.23272 -0.0684,-0.38672 -1.6e-4,-0.0601 4e-4,-0.11949 0,-0.17969 0,-0.1099 -2.8e-4,-0.22021 -0.004,-0.33008 -0.003,-0.13164 -0.009,-0.26314 -0.0176,-0.39453 -0.007,-0.10104 -0.0116,-0.2036 -0.0176,-0.30469 -7.4e-4,-0.0117 -0.002,-0.024 -0.002,-0.0351 -0.0115,-0.0484 -0.0342,-0.079 -0.0371,-0.13867 -0.008,-0.15773 -0.0146,-0.31475 -0.0176,-0.47266 -0.005,-0.19382 -0.009,-0.38817 -0.0117,-0.58203 -1.9e-4,-0.0215 8e-5,-0.043 0,-0.0644 l -3.57618,-0.59571 -0.32617,0.32617 0.16211,0.6543 -4.74023,-0.32617 c -0.26128,-0.77686 -0.99843,-0.55736 -1.14453,0.16211 h -0.49024 v -0.16211 z m -2.01563,0.2168 0.10742,0.0547 z m -5.01367,1.25391 0.16211,0.16406 z m 49.37305,0.16406 -0.6543,0.8164 z m -53.29688,1.79883 v 0.32617 h 0.32617 v -0.32617 z m -4.25195,0.16211 c 0.46819,0.67099 1.51488,0.75513 2.28906,0.81836 v -0.16407 l -0.49023,-0.16406 v -0.16211 l 1.4707,0.49024 -0.13281,-0.67579 z m 3.13672,0.14257 0.46094,0.0215 -0.49024,-0.16406 z m 25.67578,0.10938 c -0.0107,0.10994 -0.0214,0.22009 -0.0312,0.33008 l 0.0234,0.002 c 0.001,-0.11075 0.006,-0.22136 0.008,-0.33203 z m 39.17969,0.45508 c -0.0437,0.15564 -0.0863,0.3114 -0.13086,0.46679 0.007,-0.0137 0.0143,-0.0273 0.0215,-0.041 0.0292,-0.10292 0.0591,-0.20561 0.0879,-0.30859 0.003,-0.0111 0.007,-0.0221 0.01,-0.0332 2.8e-4,-0.002 -2.9e-4,-0.004 0,-0.006 0.004,-0.026 0.008,-0.0521 0.0117,-0.0781 z m -66.24805,0.65625 0.10937,0.0547 z m -1.25391,0.27148 v 0.16406 h 0.49024 z m 2.7793,3.92383 0.16406,0.16406 z m 4.41406,2.28906 v 0.16407 l 1.79883,0.49023 z m 5.88672,1.47266 0.16406,0.16211 z" /><path
       style="display:inline;fill:url(#linearGradient8)"
       d="m 283.34967,514.12812 -33.12135,-2.85488 a 43.809226,43.809226 15.888618 0 1 -16.02511,-4.56143 l -19.41414,-9.82842 a 56.944598,56.944598 39.326066 0 1 -19.03099,-15.59115 l -8.50133,-10.80377 a 70.924943,70.924943 60.413912 0 1 -10.48804,-18.47273 l -2.84935,-7.43308 a 67.268684,67.268684 79.141224 0 1 -4.45114,-23.20432 l -0.097,-7.46741 a 114.67186,114.67186 97.848159 0 1 4.67873,-33.94328 129.66613,129.66613 112.6045 0 1 10.34538,-24.84768 l 3.15243,-5.84128 a 182.28354,182.28354 122.61243 0 1 14.58676,-22.79778 l 5.45593,-7.27457 A 232.07895,232.07895 123.03369 0 0 224.51914,293.172 l 6.66676,-11.92999 a 249.60896,249.60896 117.36359 0 0 7.34313,-14.1884 l 8.27637,-17.32864 a 138.76989,138.76989 112.11434 0 0 6.22436,-15.31777 l 6.37062,-18.82228 a 688.90481,688.90481 108.31345 0 0 2.91317,-8.80166 l 3.82898,-11.83505 -0.72012,42.84729 a 177.18034,177.18034 95.485423 0 1 -2.67104,27.81394 l -0.23129,1.31066 a 151.40489,151.40489 106.65644 0 1 -10.04889,33.58744 l -6.39686,14.84986 27.05543,-5.16789 a 120.91804,120.91804 176.60719 0 1 31.18086,-1.84855 l 18.21399,1.28267 -28.68214,8.72935 a 198.05366,198.05366 158.46282 0 0 -29.61129,11.6864 l -5.58464,2.74155 a 62.246087,62.246087 147.35892 0 0 -11.85671,7.59466 l -3.17051,2.57985 a 75.46164,75.46164 136.22686 0 0 -8.81171,8.44221 l -3.67302,4.1386 a 142.40285,142.40285 129.00995 0 0 -8.067,9.95839 l -8.66938,11.74562 a 51.591059,51.591059 120.40862 0 0 -5.47937,9.33613 75.456226,75.456226 102.51394 0 0 -5.18138,23.34486 l -0.1719,1.59481 a 77.33587,77.33587 88.021276 0 0 0.75531,21.86207 l 0.39175,2.19718 a 170.19225,170.19225 76.912148 0 0 4.00517,17.22774 l 1.55728,5.40722 a 49.130788,49.130788 65.262883 0 0 6.19877,13.45414 l 4.23308,6.41788 a 55.205063,55.205063 42.994049 0 0 18.98673,17.70174 l 10.30241,5.80414 a 54.725812,54.725812 24.308257 0 0 8.84564,3.99549 z"
       id="path3"
       transform="translate(-413.08798,346.50495)"
       sodipodi:nodetypes="cccccccccccccccccccccccccccccc"
       inkscape:label="agua"
       inkscape:original-d="m 283.34967,514.12812 -41.57567,-3.5836 -38.22513,-19.35148 -22.93509,-29.14667 -10.98972,-28.66885 -0.47782,-36.7917 8.60066,-29.14667 16.24568,-30.1023 22.93509,-30.58011 18.15694,-32.49137 15.29005,-32.01355 10.51192,-31.05793 5.25595,-16.24568 -0.95563,56.8599 -5.73377,32.49136 -13.3788,31.05793 42.52547,-8.12284 33.92481,2.38907 -43.95891,13.3788 -26.27978,12.90098 -13.41488,10.91572 -11.99423,13.51463 -15.71075,21.28554 -5.74372,12.66996 -3.04079,28.21179 3.88545,21.79233 6.08159,21.11661 15.71075,23.81953 26.18168,14.75016 z"
       inkscape:path-effect="#path-effect6" /><path
       style="fill:url(#linearGradient9);fill-opacity:1;stroke-width:1.03828"
       d="m 62.240471,892.49153 -2.917295,-3.78672 a 52.798406,52.798406 61.834335 0 1 -8.179468,-15.27662 103.31081,103.31081 84.573977 0 1 -3.427655,-36.08587 129.13396,129.13396 97.484365 0 1 2.58477,-19.67476 l 2.127929,-11.70885 a 75.314321,75.314321 109.3875 0 1 7.897155,-22.44082 l 1.058049,-1.95074 a 66.601083,66.601083 123.00544 0 1 5.731666,-8.82415 l 15.726244,-20.46804 a 37.439163,37.439163 119.17697 0 0 5.306903,-9.50456 232.77577,232.77577 101.75172 0 0 11.459724,-55.08643 66.69293,66.69293 78.594991 0 0 -4.674355,-23.17176 48.391576,48.391576 64.999623 0 0 -5.677695,-12.17565 L 73.262539,623.99718 91.98288,647.85205 a 85.986048,85.986048 60.605082 0 1 12.80916,22.73731 l 1.1,2.91624 a 239.3796,239.3796 74.877771 0 1 12.0669,44.65303 191.77906,191.77906 87.00248 0 1 1.67966,32.07632 182.05711,182.05711 95.114159 0 1 -2.46824,27.57905 169.61053,169.61053 104.90972 0 1 -9.3514,35.12117 162.56238,162.56238 115.34763 0 1 -8.085863,17.06904 l 0,0 a 83.527566,83.527566 124.5184 0 1 -11.216075,16.30827 l -5.944148,6.76064 6.095822,-5.05391 a 69.684102,69.684102 130.02419 0 0 16.048154,-19.10905 91.768496,91.768496 112.54838 0 0 5.92896,-14.27965 293.99689,293.99689 106.23919 0 0 8.82175,-30.28733 145.16401,145.16401 96.213459 0 0 3.75621,-34.50104 323.20343,323.20343 85.512308 0 0 -2.81699,-35.89178 l -0.60867,-5.58268 5.01906,12.49928 a 95.418937,95.418937 72.357165 0 1 4.27132,13.43005 231.4575,231.4575 78.492148 0 1 2.78763,13.692 152.06441,152.06441 87.758394 0 1 1.50239,38.38194 l -0.29769,3.72999 a 205.30808,205.30808 99.477318 0 1 -5.79169,34.69414 139.45798,139.45798 111.15419 0 1 -11.83793,30.59253 l 0,0 a 113.87547,113.87547 126.08549 0 1 -19.099843,26.20636 32.590442,32.590442 151.94879 0 1 -17.467644,9.30775 l -4.888226,0.89484 a 35.366477,35.366477 174.23053 0 1 -5.649178,0.57078 z"
       id="path5"
       sodipodi:nodetypes="cccccccccccccccccccccccccccccccccc"
       transform="matrix(1.2912852,0,0,0.65299967,-212.14323,278.01645)"
       inkscape:label="folha"
       inkscape:original-d="m 62.240471,892.49153 -8.27771,-10.74468 -6.87296,-20.28122 0.79138,-30.48408 6.701508,-36.8748 9.317477,-17.17877 22.293453,-29.0154 8.953791,-23.54907 4.757491,-39.11664 -5.852393,-24.41223 -20.789969,-36.83746 26.870351,34.24023 13.95979,37.00905 5.55726,32.93334 -0.0173,33.64037 -5.2402,34.03796 -8.9887,23.35148 -10.305714,19.6179 -12.525152,14.24561 15.858742,-13.14812 8.279004,-14.50891 8.06456,-22.10339 8.39291,-33.92938 0.0836,-29.33982 -3.45358,-31.67582 7.65197,19.05616 3.09968,13.00322 4.46425,25.45204 -3.33757,41.81789 -8.48709,33.0756 -15.40319,29.09195 -18.685399,19.16684 -17.90688,3.27804 z"
       inkscape:path-effect="#path-effect8" /></g></svg>
